<svg width="114" height="56" viewBox="0 0 114 56" fill="none" xmlns="http://www.w3.org/2000/svg">
<mask id="mask0_4870_7627" style="mask-type:alpha" maskUnits="userSpaceOnUse" x="1" y="0" width="112" height="56">
<rect width="112" height="56" transform="translate(1)" fill="url(#paint0_linear_4870_7627)"/>
</mask>
<g mask="url(#mask0_4870_7627)">
<path opacity="0.1" d="M12.8525 45.356L1.86261 46.8804C1.36815 46.9489 1 47.3717 1 47.8709V55.5C1 56.0523 1.44772 56.5 2 56.5H112C112.552 56.5 113 56.0523 113 55.5V10C113 9.44772 112.552 9 112 9H109.236C109.081 9 108.928 8.96385 108.789 8.89443L97.5528 3.27639C97.214 3.107 96.8086 3.14356 96.5056 3.37082L85.1616 11.8788C85.0549 11.9588 84.9334 12.0167 84.8041 12.049L73.168 14.958C73.0568 14.9858 72.9512 15.0325 72.8559 15.0961L61.3681 22.7546C61.1336 22.9109 60.8442 22.961 60.5708 22.8927L49.3214 20.0803C49.1127 20.0282 48.8928 20.0447 48.6942 20.1274L37.2363 24.9015C37.0813 24.9661 36.945 25.0688 36.8401 25.1999L25.1522 39.8098C25.0522 39.9348 24.9237 40.0339 24.7774 40.0989L13.1213 45.2793C13.0357 45.3173 12.9453 45.3431 12.8525 45.356Z" fill="#17B26A"/>
</g>
<path d="M1 47L12.8525 45.356C12.9453 45.3431 13.0357 45.3173 13.1213 45.2793L24.7774 40.0989C24.9237 40.0339 25.0522 39.9348 25.1522 39.8098L36.8401 25.1999C36.945 25.0688 37.0813 24.9661 37.2363 24.9015L48.6942 20.1274C48.8928 20.0447 49.1127 20.0282 49.3214 20.0803L60.5708 22.8927C60.8442 22.961 61.1336 22.9109 61.3681 22.7546L72.8559 15.0961C72.9512 15.0325 73.0568 14.9858 73.168 14.958L84.8041 12.049C84.9334 12.0167 85.0549 11.9588 85.1616 11.8788L96.5056 3.37082C96.8086 3.14356 97.214 3.107 97.5528 3.27639L108.789 8.89443C108.928 8.96385 109.081 9 109.236 9H113" stroke="#17B26A" stroke-width="2" stroke-linecap="round" stroke-linejoin="round"/>
<g opacity="0.2">
<rect x="64.75" y="6" width="17.25" height="17.25" rx="8.625" stroke="#17B26A" stroke-width="2"/>
</g>
<rect x="69.125" y="10.375" width="8.5" height="8.5" rx="4.25" fill="white"/>
<rect x="69.125" y="10.375" width="8.5" height="8.5" rx="4.25" stroke="#17B26A" stroke-width="2"/>
<defs>
<linearGradient id="paint0_linear_4870_7627" x1="56" y1="0" x2="56" y2="56" gradientUnits="userSpaceOnUse">
<stop/>
<stop offset="1" stop-opacity="0"/>
</linearGradient>
</defs>
</svg>
