<svg width="114" height="56" viewBox="0 0 114 56" fill="none" xmlns="http://www.w3.org/2000/svg">
<mask id="mask0_4870_6538" style="mask-type:alpha" maskUnits="userSpaceOnUse" x="1" y="0" width="112" height="56">
<rect width="112" height="56" transform="translate(1)" fill="url(#paint0_linear_4870_6538)"/>
</mask>
<g mask="url(#mask0_4870_6538)">
<path opacity="0.1" d="M100.879 45.2793C100.964 45.3173 101.055 45.3431 101.147 45.356L112.137 46.8804C112.632 46.9489 113 47.3717 113 47.8709V55.5C113 56.0523 112.552 56.5 112 56.5H2C1.44772 56.5 1 56.0523 1 55.5V10C1 9.44772 1.44772 9 2 9H4.76393C4.91918 9 5.07229 8.96385 5.21115 8.89443L16.4472 3.27639C16.786 3.107 17.1914 3.14356 17.4944 3.37082L28.8384 11.8788C28.9451 11.9588 29.0666 12.0167 29.1959 12.049L40.832 14.958C40.9432 14.9858 41.0488 15.0325 41.1441 15.0961L52.6319 22.7546C52.8664 22.9109 53.1558 22.961 53.4292 22.8927L64.6786 20.0803C64.8873 20.0282 65.1072 20.0447 65.3058 20.1274L76.7637 24.9015C76.9187 24.9661 77.055 25.0688 77.1599 25.1999L88.8478 39.8098C88.9478 39.9348 89.0763 40.0339 89.2226 40.0989L100.879 45.2793Z" fill="#F04438"/>
</g>
<path d="M113 47L101.147 45.356C101.055 45.3431 100.964 45.3173 100.879 45.2793L89.2226 40.0989C89.0763 40.0339 88.9478 39.9348 88.8478 39.8098L77.1599 25.1999C77.055 25.0688 76.9187 24.9661 76.7637 24.9015L65.3058 20.1274C65.1072 20.0447 64.8873 20.0282 64.6786 20.0803L53.4292 22.8927C53.1558 22.961 52.8664 22.9109 52.6319 22.7546L41.1441 15.0961C41.0488 15.0325 40.9432 14.9858 40.832 14.958L29.1959 12.049C29.0666 12.0167 28.9451 11.9588 28.8384 11.8788L17.4944 3.37082C17.1914 3.14356 16.786 3.107 16.4472 3.27639L5.21115 8.89443C5.07229 8.96385 4.91918 9 4.76393 9H1" stroke="#F04438" stroke-width="2" stroke-linecap="round" stroke-linejoin="round"/>
<g opacity="0.2">
<rect x="64.75" y="15" width="17.25" height="17.25" rx="8.625" stroke="#F04438" stroke-width="2"/>
</g>
<rect x="69.125" y="19.375" width="8.5" height="8.5" rx="4.25" fill="white"/>
<rect x="69.125" y="19.375" width="8.5" height="8.5" rx="4.25" stroke="#F04438" stroke-width="2"/>
<defs>
<linearGradient id="paint0_linear_4870_6538" x1="56" y1="0" x2="56" y2="56" gradientUnits="userSpaceOnUse">
<stop/>
<stop offset="1" stop-opacity="0"/>
</linearGradient>
</defs>
</svg>
