<svg width="114" height="57" viewBox="0 0 114 57" fill="none" xmlns="http://www.w3.org/2000/svg">
<mask id="mask0_4870_11005" style="mask-type:alpha" maskUnits="userSpaceOnUse" x="1" y="0" width="112" height="56">
<rect width="112" height="56" transform="translate(1)" fill="url(#paint0_linear_4870_11005)"/>
</mask>
<g mask="url(#mask0_4870_11005)">
<path opacity="0.1" d="M5.86328 9.58985C5.5687 8.70609 4.3321 8.66976 3.98612 9.53469L1.07152 16.8212C1.02428 16.9393 1 17.0654 1 17.1926V55C1 55.5523 1.44772 56 2 56H111.674C112.339 56 112.818 55.3641 112.636 54.7253L109.532 43.8627C109.309 43.0817 108.297 42.8785 107.79 43.5127L105.605 46.2432C105.268 46.6649 104.657 46.7425 104.225 46.4185L101.057 44.0426C101.019 44.0142 100.983 43.9832 100.95 43.9497L97.4004 40.4004C97.152 40.152 96.7915 40.0521 96.4507 40.1373L93.8984 40.7754C93.3914 40.9021 92.8724 40.6172 92.7072 40.1215L89.9076 31.7229C89.608 30.8241 88.3429 30.807 88.0191 31.6973L85.6755 38.1425C85.3953 38.9128 84.3583 39.0375 83.9036 38.3554L81.4897 34.7345C81.2099 34.3149 80.6615 34.1693 80.2104 34.3948L77.936 35.532C77.4261 35.787 76.8065 35.5647 76.575 35.0437L74.1503 29.5881C73.7672 28.7262 72.5133 28.8252 72.2702 29.7366L69.6802 39.4494C69.4429 40.339 68.2312 40.4625 67.8195 39.639L66.0397 36.0794C65.6471 35.2942 64.5055 35.3598 64.2055 36.1849L62.3925 41.1706C62.0351 42.1534 60.5997 41.9976 60.4615 40.9611L57.2674 17.0058C57.158 16.1847 56.1548 15.8452 55.5691 16.4309L54.1706 17.8294C53.6386 18.3614 52.7319 18.1376 52.5086 17.4192L49.4822 7.68412C49.2611 6.97282 48.3678 6.74429 47.8322 7.26202L46.0705 8.96509C45.5596 9.45903 44.7109 9.27734 44.447 8.61751L41.827 2.06757C41.5066 1.26644 40.39 1.21999 40.0041 1.99175L37.1491 7.70186C37.0523 7.89538 36.8954 8.05231 36.7019 8.14907L33.6332 9.68338C33.2538 9.87309 32.796 9.80277 32.491 9.50792L29.7793 6.88649C29.3595 6.48058 28.6826 6.51933 28.3117 6.97051L25.7726 10.06C25.3725 10.5467 24.6275 10.5467 24.2274 10.06L22.3008 7.71583C21.772 7.07239 20.7344 7.31955 20.5524 8.1323L17.6138 21.2583C17.4083 22.1763 16.1642 22.3284 15.7435 21.4871L13.5359 17.0717C13.2568 16.5137 12.5406 16.3446 12.0414 16.7189L10.1099 18.1675C9.56389 18.5771 8.7771 18.3313 8.56126 17.6838L5.86328 9.58985Z" fill="#F04438"/>
</g>
<path d="M1 17L3.98612 9.53469C4.3321 8.66976 5.5687 8.7061 5.86328 9.58985L8.56126 17.6838C8.7771 18.3313 9.56389 18.5771 10.1099 18.1675L12.0414 16.7189C12.5406 16.3446 13.2568 16.5137 13.5359 17.0717L15.7435 21.4871C16.1642 22.3284 17.4083 22.1763 17.6138 21.2583L20.5524 8.1323C20.7344 7.31955 21.772 7.07239 22.3008 7.71583L24.2274 10.06C24.6275 10.5467 25.3725 10.5467 25.7726 10.06L28.3117 6.97051C28.6826 6.51933 29.3595 6.48058 29.7793 6.88649L32.491 9.50792C32.796 9.80277 33.2538 9.87309 33.6332 9.68338L36.7019 8.14907C36.8954 8.05231 37.0523 7.89539 37.1491 7.70186L40.0041 1.99175C40.39 1.21999 41.5066 1.26644 41.827 2.06757L44.447 8.61751C44.7109 9.27734 45.5596 9.45903 46.0705 8.96509L47.8322 7.26202C48.3678 6.74429 49.2611 6.97282 49.4822 7.68412L52.5086 17.4192C52.7319 18.1376 53.6386 18.3614 54.1706 17.8294L55.5691 16.4309C56.1548 15.8452 57.158 16.1847 57.2674 17.0058L60.4615 40.9611C60.5997 41.9976 62.0351 42.1534 62.3925 41.1706L64.2055 36.1849C64.5055 35.3598 65.6471 35.2942 66.0397 36.0794L67.8195 39.639C68.2312 40.4625 69.4429 40.339 69.6802 39.4494L72.2702 29.7366C72.5133 28.8252 73.7672 28.7262 74.1503 29.5881L76.575 35.0437C76.8065 35.5647 77.4261 35.787 77.936 35.532L80.2104 34.3948C80.6615 34.1693 81.2099 34.3149 81.4897 34.7345L83.9036 38.3554C84.3583 39.0375 85.3953 38.9128 85.6755 38.1425L88.0191 31.6973C88.3429 30.807 89.608 30.8241 89.9076 31.7229L92.7072 40.1215C92.8724 40.6172 93.3914 40.9021 93.8984 40.7754L96.4507 40.1373C96.7915 40.0521 97.152 40.152 97.4004 40.4004L100.95 43.9497C100.983 43.9832 101.019 44.0142 101.057 44.0426L104.225 46.4185C104.657 46.7425 105.268 46.6649 105.605 46.2432L107.79 43.5127C108.297 42.8785 109.309 43.0817 109.532 43.8627L113 56" stroke="#F04438" stroke-width="2" stroke-linecap="round" stroke-linejoin="round"/>
<g opacity="0.2">
<rect x="48.25" y="8" width="17.25" height="17.25" rx="8.625" stroke="#F04438" stroke-width="2"/>
</g>
<rect x="52.625" y="12.375" width="8.5" height="8.5" rx="4.25" fill="white"/>
<rect x="52.625" y="12.375" width="8.5" height="8.5" rx="4.25" stroke="#F04438" stroke-width="2"/>
<defs>
<linearGradient id="paint0_linear_4870_11005" x1="56" y1="0" x2="56" y2="56" gradientUnits="userSpaceOnUse">
<stop/>
<stop offset="1" stop-opacity="0"/>
</linearGradient>
</defs>
</svg>
