<svg width="114" height="59" viewBox="0 0 114 59" fill="none" xmlns="http://www.w3.org/2000/svg">
<mask id="mask0_4870_8003" style="mask-type:alpha" maskUnits="userSpaceOnUse" x="1" y="1" width="112" height="57">
<rect width="112" height="56" transform="translate(1 1.66663)" fill="url(#paint0_linear_4870_8003)"/>
</mask>
<g mask="url(#mask0_4870_8003)">
<path opacity="0.1" d="M5.0303 50.908L1 57.6666H113V1.66663L111.409 11.3218H109.288C108.722 12.931 107.548 16.1494 107.379 16.1494C107.209 16.1494 106.106 18.0804 105.576 19.0459L101.015 21.9425L98.3636 25.8046L94.1212 21.9425L91.8939 19.0459L88.7121 25.8046H85.4242L82.6667 19.0459C81.6061 18.0804 79.4424 16.1494 79.2727 16.1494C79.103 16.1494 77.7172 14.2184 77.0455 13.2528H75.3485L71.3182 16.1494L67.8182 19.0459L66.2273 25.8046L61.4545 28.7011L59.0152 31.5977L56.2576 36.4253L53.6061 42.7615H52.4394L49.2576 43.3649L46.1818 36.4253L43.5303 31.5977H41.9394L39.1818 28.7011L35.2576 31.5977H31.5455L27.8333 36.4253L24.1212 42.2184L21.3636 48.0115L18.3939 50.908L14.3636 48.0115L11.1818 50.908L8 53.8046L5.0303 50.908Z" fill="#079455"/>
</g>
<path d="M1 57.6666L5.0303 50.908L8 53.8046L11.1818 50.908L14.3636 48.0115L18.3939 50.908L21.3636 48.0115L24.1212 42.2184L27.8333 36.4253L31.5455 31.5977H35.2576L39.1818 28.7011L41.9394 31.5977H43.5303L46.1818 36.4253L49.2576 43.3649L52.4394 42.7615H53.6061L56.2576 36.4253L59.0152 31.5977L61.4545 28.7011L66.2273 25.8046L67.8182 19.0459L71.3182 16.1494L75.3485 13.2528H77.0455C77.7172 14.2184 79.103 16.1494 79.2727 16.1494C79.4424 16.1494 81.6061 18.0804 82.6667 19.0459L85.4242 25.8046H88.7121L91.8939 19.0459L94.1212 21.9425L98.3636 25.8046L101.015 21.9425L105.576 19.0459C106.106 18.0804 107.209 16.1494 107.379 16.1494C107.548 16.1494 108.722 12.931 109.288 11.3218H111.409L113 1.66663" stroke="#17B26A" stroke-width="2" stroke-linecap="round" stroke-linejoin="round"/>
<g opacity="0.2">
<rect x="66.75" y="5.29163" width="17.25" height="17.25" rx="8.625" stroke="#17B26A" stroke-width="2"/>
</g>
<rect x="71.125" y="9.66663" width="8.5" height="8.5" rx="4.25" fill="white"/>
<rect x="71.125" y="9.66663" width="8.5" height="8.5" rx="4.25" stroke="#17B26A" stroke-width="2"/>
<defs>
<linearGradient id="paint0_linear_4870_8003" x1="56" y1="0" x2="56" y2="56" gradientUnits="userSpaceOnUse">
<stop/>
<stop offset="1" stop-opacity="0"/>
</linearGradient>
</defs>
</svg>
