<svg width="116" height="70" viewBox="0 0 116 70" fill="none" xmlns="http://www.w3.org/2000/svg">
<g clip-path="url(#clip0_2180_8190)">
<path d="M0.743254 65.9579C0.743254 65.9579 0.743254 65.9211 0.743254 65.9053C0.699023 65.479 0.691651 65.0527 0.713767 64.6316C0.765369 63.7737 0.853831 62.9211 1.22979 62.1C1.19293 62.4421 1.65736 62.7369 2.13652 62.7737C2.61569 62.8105 3.08748 62.6527 3.48556 62.4632C4.8862 61.779 5.86665 60.6106 6.72915 59.5948C7.7096 58.4421 8.51313 57.2158 9.29454 55.9895C10.3929 54.2632 11.4029 52.5053 12.4497 50.7632C12.9804 49.8737 13.5186 48.9842 14.0862 48.1053C15.4721 45.9421 16.8506 43.779 18.2365 41.6105C18.8189 40.7 19.6593 39.7316 20.0574 38.7632C19.9394 39.0474 19.8288 39.3369 19.7109 39.6211L18.3102 43.0737C17.6025 44.8158 16.8949 46.5632 16.1872 48.3053C15.3615 50.3316 14.5433 52.3632 13.7176 54.3895C12.9067 56.3895 12.0958 58.3895 11.2849 60.3948C10.6067 62.0579 9.93588 63.7211 9.25768 65.3842C9.01441 65.9948 8.76377 66.6 8.5205 67.2105C8.34357 67.6421 8.17402 68.5842 7.59165 68.7948C7.36313 68.879 7.09774 68.8948 6.83973 68.9053C6.13204 68.9316 5.41697 68.9053 4.71665 68.8421C4.26697 68.8 3.80992 68.7316 3.3971 68.5948C2.62306 68.3316 2.07018 67.8316 1.54678 67.3527C1.333 67.1579 1.11922 66.9632 0.986523 66.7369C0.839087 66.4948 0.794857 66.2316 0.765369 65.9737L0.743254 65.9579Z" fill="#6DB8EE"/>
<path d="M9.03655 69.4896L10.5478 69.3949C10.5478 69.3949 71.2766 65.658 71.284 65.658C80.2407 65.1054 85.8138 60.8843 89.5218 55.3791C92.2199 51.3738 94.3798 47.1791 97.0705 43.1896C98.4269 41.1791 99.6507 39.1317 100.933 37.1001C101.612 36.0212 102.621 34.8738 103.086 33.7317L89.1753 68.0159C88.9542 68.5633 88.2539 68.9422 87.4577 68.9475L9.02917 69.4948L9.03655 69.4896Z" fill="#6DB8EE"/>
<path d="M81.6487 21.5894V30.442H26.5151C25.0628 30.442 23.7875 31.121 23.3747 32.1157L8.72693 67.1473C8.23301 68.3315 6.70705 69.1473 4.97468 69.1473C2.80737 69.1473 1.05289 67.8946 1.05289 66.3473V21.5894C1.05289 20.2946 2.51987 19.2473 4.33334 19.2473H13.5554C15.3468 19.2473 16.8138 18.2157 16.8359 16.9368L16.8728 15.1157C16.8949 13.8368 18.3619 12.8052 20.1532 12.8052H44.5096C46.301 12.8052 47.7606 13.8315 47.7901 15.1104L47.8343 16.942C47.8638 18.221 49.3234 19.2473 51.1147 19.2473H78.3683C80.1817 19.2473 81.6487 20.2946 81.6487 21.5894Z" stroke="#006FD6" stroke-width="1.5" stroke-linecap="round" stroke-linejoin="round"/>
<path d="M4.97467 69.142L85.9759 69.2947C87.4282 69.2947 88.7035 68.6157 89.1163 67.621L103.403 33.4473C104.029 31.9473 102.452 30.4368 100.262 30.4368H26.5151C25.0628 30.4368 23.7875 31.1157 23.3747 32.1105L18.008 44.9526" stroke="#006FD6" stroke-width="1.5" stroke-linecap="round" stroke-linejoin="round"/>
<path d="M21.3843 15.4106H42.1875" stroke="#006FD6" stroke-width="1.5" stroke-linecap="round" stroke-linejoin="round"/>
<path d="M21.3843 18.0632H32.4346" stroke="#006FD6" stroke-width="1.5" stroke-linecap="round" stroke-linejoin="round"/>
<path d="M87.6567 23.8736C87.3766 18.8789 91.2763 11.4999 98.5744 10.0052C100.624 9.80519 103.307 10.0473 104.774 11.1631C105.519 11.821 105.585 12.8368 105.43 13.7526C105.342 14.342 105.032 14.9631 104.472 15.1473C103.941 15.3262 103.425 15.0473 103.337 14.6052C103.123 13.3368 105.084 12.5157 106.683 12.5473C109.92 12.5157 112.927 13.9999 114.497 15.9841" stroke="#006FD6" stroke-width="1.5" stroke-linecap="round" stroke-linejoin="round"/>
<path d="M58.6413 24.6841C58.7593 21.6157 58.3317 0.963075 49.1612 3.44729C47.7753 3.87886 47.0897 5.1315 47.5542 6.16308C47.9301 7.05781 49.1391 7.79992 50.1417 7.51044C52.3237 6.4315 49.6625 3.31571 48.0186 2.45781C43.1901 -0.373767 36.1942 1.06834 31.7859 3.68939" stroke="#006FD6" stroke-width="1.5" stroke-linecap="round" stroke-linejoin="round"/>
</g>
<defs>
<clipPath id="clip0_2180_8190">
<rect width="115" height="70" fill="white" transform="translate(0.5)"/>
</clipPath>
</defs>
</svg>
