<svg width="160" height="152" viewBox="0 0 160 152" fill="none" xmlns="http://www.w3.org/2000/svg">
<path d="M152 80C152 70.5448 150.138 61.1822 146.519 52.4468C142.901 43.7114 137.598 35.7741 130.912 29.0883C124.226 22.4025 116.289 17.099 107.553 13.4807C98.8178 9.86234 89.4552 8 80 8C70.5448 7.99999 61.1823 9.86232 52.4468 13.4807C43.7114 17.099 35.7742 22.4025 29.0883 29.0883C22.4025 35.7741 17.099 43.7113 13.4807 52.4468C9.86234 61.1822 8 70.5448 8 80" stroke="#F4CF3E" stroke-width="16" stroke-linecap="round" stroke-linejoin="round"/>
<path d="M8 80C8 64.7951 12.8136 49.9805 21.7508 37.6795C30.688 25.3784 43.2901 16.2225 57.7508 11.5239C72.2115 6.82535 87.7885 6.82536 102.249 11.5239C116.71 16.2225 129.312 25.3785 138.249 37.6795" stroke="#015DB1" stroke-width="16" stroke-linecap="round" stroke-linejoin="round"/>
<path d="M60.918 83.1992C60.1094 83.1992 59.416 83.0195 58.8379 82.6602C58.2598 82.2969 57.8145 81.7832 57.502 81.1191C57.1934 80.4551 57.0391 79.6738 57.0391 78.7754V78.7637C57.0391 77.8574 57.1953 77.0742 57.5078 76.4141C57.8242 75.7539 58.2715 75.2441 58.8496 74.8848C59.4316 74.5254 60.1211 74.3457 60.918 74.3457C61.7188 74.3457 62.4082 74.5254 62.9863 74.8848C63.5684 75.2441 64.0156 75.7559 64.3281 76.4199C64.6406 77.0801 64.7969 77.8613 64.7969 78.7637V78.7754C64.7969 79.6738 64.6406 80.4551 64.3281 81.1191C64.0195 81.7793 63.5742 82.291 62.9922 82.6543C62.4141 83.0176 61.7227 83.1992 60.918 83.1992ZM60.918 82.2266C61.4961 82.2266 61.9941 82.084 62.4121 81.7988C62.8301 81.5137 63.1523 81.1133 63.3789 80.5977C63.6055 80.0781 63.7188 79.4707 63.7188 78.7754V78.7637C63.7188 78.0605 63.6055 77.4512 63.3789 76.9355C63.1523 76.4199 62.8301 76.0215 62.4121 75.7402C61.9941 75.459 61.4961 75.3184 60.918 75.3184C60.3438 75.3184 59.8477 75.459 59.4297 75.7402C59.0117 76.0215 58.6875 76.4199 58.457 76.9355C58.2305 77.4512 58.1172 78.0605 58.1172 78.7637V78.7754C58.1172 79.4707 58.2285 80.0781 58.4512 80.5977C58.6738 81.1133 58.9941 81.5137 59.4121 81.7988C59.8301 82.084 60.332 82.2266 60.918 82.2266ZM66.4961 83V76.6836H67.5156V77.6328H67.6094C67.7695 77.2969 68 77.0371 68.3008 76.8535C68.6016 76.666 68.9844 76.5723 69.4492 76.5723C70.1602 76.5723 70.7051 76.7754 71.084 77.1816C71.4668 77.584 71.6582 78.1602 71.6582 78.9102V83H70.6387V79.1562C70.6387 78.5859 70.5176 78.1641 70.2754 77.8906C70.0371 77.6133 69.666 77.4746 69.1621 77.4746C68.8262 77.4746 68.5352 77.5469 68.2891 77.6914C68.043 77.8359 67.8516 78.041 67.7148 78.3066C67.582 78.5723 67.5156 78.8906 67.5156 79.2617V83H66.4961ZM79.123 83.0469C78.4746 83.0469 78.0039 82.916 77.7109 82.6543C77.4219 82.3926 77.2773 81.9609 77.2773 81.3594V77.5273H76.2812V76.6836H77.2773V75.0488H78.332V76.6836H79.7148V77.5273H78.332V81.1016C78.332 81.4727 78.4023 81.7402 78.543 81.9043C78.6836 82.0645 78.918 82.1445 79.2461 82.1445C79.3359 82.1445 79.4121 82.1426 79.4746 82.1387C79.541 82.1348 79.6211 82.1289 79.7148 82.1211V82.9883C79.6172 83.0039 79.5195 83.0176 79.4219 83.0293C79.3242 83.041 79.2246 83.0469 79.123 83.0469ZM81.2383 83V76.6836H82.2578V77.6211H82.3516C82.4727 77.2891 82.6777 77.0312 82.9668 76.8477C83.2559 76.6641 83.6133 76.5723 84.0391 76.5723C84.1367 76.5723 84.2324 76.5781 84.3262 76.5898C84.4238 76.5977 84.498 76.6055 84.5488 76.6133V77.6035C84.4434 77.584 84.3398 77.5703 84.2383 77.5625C84.1406 77.5508 84.0352 77.5449 83.9219 77.5449C83.5977 77.5449 83.3105 77.6094 83.0605 77.7383C82.8105 77.8672 82.6133 78.0469 82.4688 78.2773C82.3281 78.5078 82.2578 78.7773 82.2578 79.0859V83H81.2383ZM87.543 83.1113C87.1445 83.1113 86.7852 83.0352 86.4648 82.8828C86.1484 82.7305 85.8965 82.5137 85.709 82.2324C85.5254 81.9512 85.4336 81.6191 85.4336 81.2363V81.2246C85.4336 80.8496 85.5234 80.5293 85.7031 80.2637C85.8828 79.9941 86.1445 79.7832 86.4883 79.6309C86.832 79.4785 87.248 79.3887 87.7363 79.3613L90.0566 79.2207V80.0352L87.8594 80.1758C87.3789 80.2031 87.0273 80.3027 86.8047 80.4746C86.5859 80.6465 86.4766 80.8887 86.4766 81.2012V81.2129C86.4766 81.5332 86.5977 81.7832 86.8398 81.9629C87.082 82.1387 87.3867 82.2266 87.7539 82.2266C88.1016 82.2266 88.4102 82.1582 88.6797 82.0215C88.9492 81.8809 89.1602 81.6914 89.3125 81.4531C89.4688 81.2148 89.5469 80.9453 89.5469 80.6445V78.6758C89.5469 78.2852 89.4277 77.9883 89.1895 77.7852C88.9551 77.5781 88.6016 77.4746 88.1289 77.4746C87.75 77.4746 87.4395 77.543 87.1973 77.6797C86.9551 77.8125 86.793 78.002 86.7109 78.248L86.7051 78.2656H85.6855L85.6914 78.2305C85.7461 77.8984 85.8828 77.6094 86.1016 77.3633C86.3242 77.1133 86.6113 76.9199 86.9629 76.7832C87.3145 76.6426 87.7148 76.5723 88.1641 76.5723C88.6797 76.5723 89.1152 76.6562 89.4707 76.8242C89.8301 76.9922 90.1016 77.2344 90.2852 77.5508C90.4727 77.8633 90.5664 78.2383 90.5664 78.6758V83H89.5469V82.0684H89.4531C89.3203 82.291 89.1582 82.4805 88.9668 82.6367C88.7793 82.793 88.5664 82.9121 88.3281 82.9941C88.0898 83.0723 87.8281 83.1113 87.543 83.1113ZM95.0137 83.1113C94.4238 83.1113 93.9121 82.9766 93.4785 82.707C93.0449 82.4375 92.709 82.0566 92.4707 81.5645C92.2324 81.0723 92.1133 80.4922 92.1133 79.8242V79.8125C92.1133 79.1562 92.2305 78.5859 92.4648 78.1016C92.7031 77.6172 93.0391 77.2422 93.4727 76.9766C93.9062 76.707 94.418 76.5723 95.0078 76.5723C95.5195 76.5723 95.9609 76.6621 96.332 76.8418C96.7031 77.0215 97 77.2637 97.2227 77.5684C97.4453 77.8691 97.5879 78.207 97.6504 78.582L97.6562 78.6172H96.6426L96.6367 78.5996C96.5586 78.2871 96.3809 78.0215 96.1035 77.8027C95.8262 77.584 95.4609 77.4746 95.0078 77.4746C94.6289 77.4746 94.3008 77.5703 94.0234 77.7617C93.7461 77.9531 93.5312 78.2246 93.3789 78.5762C93.2305 78.9238 93.1562 79.3359 93.1562 79.8125V79.8242C93.1562 80.3086 93.2324 80.7305 93.3848 81.0898C93.5371 81.4453 93.752 81.7207 94.0293 81.916C94.3066 82.1113 94.6328 82.209 95.0078 82.209C95.4336 82.209 95.7812 82.1172 96.0508 81.9336C96.3203 81.75 96.5137 81.4824 96.6309 81.1309L96.6426 81.0957L97.6504 81.0898L97.6387 81.1543C97.5527 81.5332 97.4004 81.8711 97.1816 82.168C96.9629 82.4609 96.6738 82.6914 96.3145 82.8594C95.9551 83.0273 95.5215 83.1113 95.0137 83.1113ZM99.2031 83V74.1758H100.223V83H99.2031ZM103.182 83L100.715 79.9062L101.465 79.2559L104.465 83H103.182ZM100.094 80.7266L100.047 79.4434H100.316L103.047 76.6836H104.283L101.283 79.5781L101.037 79.8184L100.094 80.7266Z" fill="#8F979E"/>
<path d="M66.499 44.7734C67.4209 44.7734 68.292 44.9414 69.1123 45.2773C69.9326 45.6133 70.6553 46.1289 71.2803 46.8242C71.9131 47.5195 72.4092 48.4062 72.7686 49.4844C73.1279 50.5625 73.3076 51.8438 73.3076 53.3281V53.3516C73.3076 55.2266 73.0303 56.832 72.4756 58.168C71.9287 59.5039 71.1396 60.5312 70.1084 61.25C69.085 61.9609 67.8584 62.3164 66.4287 62.3164C65.3896 62.3164 64.4482 62.1289 63.6045 61.7539C62.7686 61.3789 62.0732 60.8633 61.5186 60.207C60.9717 59.5508 60.6084 58.7969 60.4287 57.9453L60.4053 57.8164H63.3936L63.4404 57.9219C63.5967 58.3047 63.8115 58.6445 64.085 58.9414C64.3584 59.2305 64.6904 59.4531 65.0811 59.6094C65.4795 59.7656 65.9326 59.8438 66.4404 59.8438C67.3467 59.8438 68.0811 59.582 68.6436 59.0586C69.2139 58.5352 69.6396 57.832 69.9209 56.9492C70.21 56.0664 70.374 55.0938 70.4131 54.0312C70.4209 53.9297 70.4248 53.8281 70.4248 53.7266C70.4248 53.6172 70.4248 53.5117 70.4248 53.4102L69.8975 50.6094C69.8975 49.9766 69.749 49.4062 69.4521 48.8984C69.1553 48.3906 68.7529 47.9883 68.2451 47.6914C67.7373 47.3945 67.167 47.2461 66.5342 47.2461C65.9092 47.2461 65.3389 47.3945 64.8232 47.6914C64.3076 47.9805 63.8975 48.375 63.5928 48.875C63.2959 49.375 63.1475 49.9336 63.1475 50.5508V50.5742C63.1475 51.2148 63.292 51.7852 63.5811 52.2852C63.8701 52.7773 64.2686 53.1641 64.7764 53.4453C65.2842 53.7266 65.8584 53.8672 66.499 53.8672C67.1396 53.8672 67.7178 53.7305 68.2334 53.457C68.749 53.1758 69.1553 52.793 69.4521 52.3086C69.749 51.8164 69.8975 51.2539 69.8975 50.6211V50.6094H70.6123V53.5156H70.3311C70.1123 54.0156 69.7881 54.4688 69.3584 54.875C68.9287 55.2812 68.4053 55.6055 67.7881 55.8477C67.1787 56.082 66.4912 56.1992 65.7256 56.1992C64.6396 56.1992 63.6787 55.9609 62.8428 55.4844C62.0146 55.0078 61.3623 54.3516 60.8857 53.5156C60.417 52.6797 60.1826 51.7305 60.1826 50.668V50.6445C60.1826 49.5039 60.4561 48.4922 61.0029 47.6094C61.5498 46.7266 62.2959 46.0352 63.2412 45.5352C64.1943 45.0273 65.2803 44.7734 66.499 44.7734ZM81.8975 62.3164C80.7334 62.3164 79.7061 62.1016 78.8154 61.6719C77.9248 61.2422 77.2139 60.6602 76.6826 59.9258C76.1592 59.1836 75.8623 58.3477 75.792 57.418L75.7803 57.2656H78.6045L78.6162 57.3477C78.6943 57.8164 78.8818 58.2422 79.1787 58.625C79.4756 59.0078 79.8584 59.3086 80.3271 59.5273C80.7959 59.7461 81.3232 59.8555 81.9092 59.8555C82.5811 59.8555 83.1709 59.7148 83.6787 59.4336C84.1943 59.1445 84.5967 58.7461 84.8857 58.2383C85.1748 57.7305 85.3193 57.1484 85.3193 56.4922V56.4688C85.3193 55.8203 85.1709 55.2461 84.874 54.7461C84.585 54.2461 84.1865 53.8555 83.6787 53.5742C83.1709 53.2852 82.5889 53.1406 81.9326 53.1406C81.4561 53.1406 81.0107 53.2109 80.5967 53.3516C80.1826 53.4922 79.8193 53.6992 79.5068 53.9727C79.3428 54.1055 79.1904 54.2539 79.0498 54.418C78.917 54.5742 78.7998 54.7461 78.6982 54.9336H76.0732L76.8818 45.0898H87.2295V47.5625H79.2959L78.8154 52.6719H78.9092C79.1514 52.2891 79.46 51.9648 79.835 51.6992C80.2178 51.4336 80.6514 51.2305 81.1357 51.0898C81.6201 50.9414 82.1396 50.8672 82.6943 50.8672C83.7646 50.8672 84.7139 51.1055 85.542 51.582C86.3779 52.0586 87.0342 52.7148 87.5107 53.5508C87.9873 54.3867 88.2256 55.3398 88.2256 56.4102V56.4336C88.2256 57.5977 87.9561 58.6211 87.417 59.5039C86.8779 60.3867 86.1318 61.0781 85.1787 61.5781C84.2334 62.0703 83.1396 62.3164 81.8975 62.3164ZM92.25 57.4609C91.7897 57.4609 91.3932 57.3516 91.0605 57.1328C90.7324 56.9095 90.4795 56.5928 90.3018 56.1826C90.124 55.7725 90.0352 55.2871 90.0352 54.7266V54.7197C90.0352 54.1592 90.124 53.6761 90.3018 53.2705C90.4795 52.8604 90.7324 52.5459 91.0605 52.3271C91.3932 52.1084 91.7897 51.999 92.25 51.999C92.7103 51.999 93.1045 52.1084 93.4326 52.3271C93.7653 52.5459 94.0205 52.8604 94.1982 53.2705C94.376 53.6761 94.4648 54.1592 94.4648 54.7197V54.7266C94.4648 55.2871 94.376 55.7725 94.1982 56.1826C94.0205 56.5928 93.7653 56.9095 93.4326 57.1328C93.1045 57.3516 92.7103 57.4609 92.25 57.4609ZM92.25 56.4697C92.5599 56.4697 92.8014 56.3193 92.9746 56.0186C93.1478 55.7132 93.2344 55.2826 93.2344 54.7266V54.7197C93.2344 54.1683 93.1478 53.7422 92.9746 53.4414C92.8014 53.1406 92.5599 52.9902 92.25 52.9902C91.9355 52.9902 91.6917 53.1406 91.5186 53.4414C91.3499 53.7422 91.2656 54.1683 91.2656 54.7197V54.7266C91.2656 55.2826 91.3499 55.7132 91.5186 56.0186C91.6917 56.3193 91.9355 56.4697 92.25 56.4697ZM93.4805 62H92.0723L98.7373 52.1357H100.146L93.4805 62ZM99.9609 62.1367C99.5052 62.1367 99.111 62.0273 98.7783 61.8086C98.4456 61.5853 98.1904 61.2708 98.0127 60.8652C97.835 60.4551 97.7461 59.9697 97.7461 59.4092V59.4023C97.7461 58.8372 97.835 58.3519 98.0127 57.9463C98.1904 57.5361 98.4456 57.2217 98.7783 57.0029C99.111 56.7842 99.5052 56.6748 99.9609 56.6748C100.421 56.6748 100.818 56.7842 101.15 57.0029C101.483 57.2217 101.738 57.5361 101.916 57.9463C102.094 58.3519 102.183 58.8372 102.183 59.4023V59.4092C102.183 59.9697 102.094 60.4551 101.916 60.8652C101.738 61.2708 101.483 61.5853 101.15 61.8086C100.818 62.0273 100.421 62.1367 99.9609 62.1367ZM99.9609 61.1455C100.275 61.1455 100.517 60.9951 100.686 60.6943C100.859 60.389 100.945 59.9606 100.945 59.4092V59.4023C100.945 58.8464 100.859 58.418 100.686 58.1172C100.517 57.8164 100.275 57.666 99.9609 57.666C99.651 57.666 99.4095 57.8164 99.2363 58.1172C99.0677 58.418 98.9834 58.8464 98.9834 59.4023V59.4092C98.9834 59.9606 99.0677 60.389 99.2363 60.6943C99.4095 60.9951 99.651 61.1455 99.9609 61.1455Z" fill="#14191F"/>
</svg>
