<svg width="1146" height="251" viewBox="0 0 1146 251" fill="none" xmlns="http://www.w3.org/2000/svg">
<circle cx="1008" cy="8" r="4" fill="#015DB1"/>
<path d="M1016.47 13L1020.11 3.13574H1021.05V4.72852H1020.66L1017.76 13H1016.47ZM1018.12 10.1768L1018.5 9.13086H1022.96L1023.34 10.1768H1018.12ZM1023.67 13L1020.77 4.72852V3.13574H1021.33L1024.96 13H1023.67ZM1029.15 13.1299C1028.46 13.1299 1027.86 12.9727 1027.35 12.6582C1026.85 12.3438 1026.46 11.8994 1026.18 11.3252C1025.9 10.751 1025.76 10.0742 1025.76 9.29492V9.28125C1025.76 8.51562 1025.9 7.85026 1026.17 7.28516C1026.45 6.72005 1026.84 6.28255 1027.35 5.97266C1027.85 5.6582 1028.45 5.50098 1029.14 5.50098C1029.74 5.50098 1030.25 5.60579 1030.68 5.81543C1031.12 6.02507 1031.46 6.30762 1031.72 6.66309C1031.98 7.014 1032.15 7.4082 1032.22 7.8457L1032.23 7.88672H1031.05L1031.04 7.86621C1030.95 7.50163 1030.74 7.19173 1030.42 6.93652C1030.09 6.68132 1029.67 6.55371 1029.14 6.55371C1028.7 6.55371 1028.31 6.66536 1027.99 6.88867C1027.67 7.11198 1027.42 7.42871 1027.24 7.83887C1027.07 8.24447 1026.98 8.72526 1026.98 9.28125V9.29492C1026.98 9.86003 1027.07 10.3522 1027.25 10.7715C1027.42 11.1862 1027.67 11.5075 1028 11.7354C1028.32 11.9632 1028.7 12.0771 1029.14 12.0771C1029.64 12.0771 1030.04 11.9701 1030.36 11.7559C1030.67 11.5417 1030.9 11.2295 1031.03 10.8193L1031.05 10.7783L1032.22 10.7715L1032.21 10.8467C1032.11 11.2887 1031.93 11.6829 1031.67 12.0293C1031.42 12.3711 1031.08 12.64 1030.66 12.8359C1030.24 13.0319 1029.74 13.1299 1029.15 13.1299ZM1036.72 13.0547C1035.96 13.0547 1035.41 12.902 1035.07 12.5967C1034.74 12.2913 1034.57 11.7878 1034.57 11.0859V6.61523H1033.4V5.63086H1034.57V3.72363H1035.8V5.63086H1037.41V6.61523H1035.8V10.7852C1035.8 11.2181 1035.88 11.5303 1036.04 11.7217C1036.21 11.9085 1036.48 12.002 1036.86 12.002C1036.97 12.002 1037.06 11.9997 1037.13 11.9951C1037.21 11.9906 1037.3 11.9837 1037.41 11.9746V12.9863C1037.3 13.0046 1037.18 13.0205 1037.07 13.0342C1036.95 13.0479 1036.84 13.0547 1036.72 13.0547ZM1041.66 13.1299C1041.1 13.1299 1040.63 13.0251 1040.25 12.8154C1039.88 12.6012 1039.59 12.2913 1039.4 11.8857C1039.21 11.4756 1039.12 10.9811 1039.12 10.4023V5.63086H1040.31V10.1152C1040.31 10.776 1040.44 11.2682 1040.69 11.5918C1040.95 11.9154 1041.38 12.0771 1041.96 12.0771C1042.29 12.0771 1042.57 12.0293 1042.82 11.9336C1043.07 11.8379 1043.28 11.7012 1043.45 11.5234C1043.61 11.3411 1043.74 11.1224 1043.82 10.8672C1043.91 10.6074 1043.95 10.3158 1043.95 9.99219V5.63086H1045.14V13H1043.95V11.8994H1043.84C1043.72 12.1592 1043.56 12.3825 1043.36 12.5693C1043.15 12.7516 1042.91 12.8906 1042.62 12.9863C1042.34 13.082 1042.02 13.1299 1041.66 13.1299ZM1049.39 13.1299C1048.92 13.1299 1048.5 13.041 1048.13 12.8633C1047.76 12.6855 1047.47 12.4326 1047.25 12.1045C1047.03 11.7764 1046.93 11.389 1046.93 10.9424V10.9287C1046.93 10.4912 1047.03 10.1175 1047.24 9.80762C1047.45 9.49316 1047.76 9.24707 1048.16 9.06934C1048.56 8.8916 1049.04 8.78678 1049.61 8.75488L1052.32 8.59082V9.54102L1049.76 9.70508C1049.2 9.73698 1048.79 9.85319 1048.53 10.0537C1048.27 10.2542 1048.14 10.5368 1048.14 10.9014V10.915C1048.14 11.2887 1048.28 11.5804 1048.57 11.79C1048.85 11.9951 1049.2 12.0977 1049.63 12.0977C1050.04 12.0977 1050.4 12.0179 1050.71 11.8584C1051.03 11.6943 1051.27 11.4733 1051.45 11.1953C1051.63 10.9173 1051.72 10.6029 1051.72 10.252V7.95508C1051.72 7.49935 1051.59 7.15299 1051.31 6.91602C1051.03 6.67448 1050.62 6.55371 1050.07 6.55371C1049.63 6.55371 1049.27 6.63346 1048.98 6.79297C1048.7 6.94792 1048.51 7.16895 1048.42 7.45605L1048.41 7.47656H1047.22L1047.23 7.43555C1047.29 7.04818 1047.45 6.71094 1047.71 6.42383C1047.96 6.13216 1048.3 5.90658 1048.71 5.74707C1049.12 5.58301 1049.59 5.50098 1050.11 5.50098C1050.71 5.50098 1051.22 5.59896 1051.64 5.79492C1052.06 5.99089 1052.37 6.27344 1052.59 6.64258C1052.8 7.00716 1052.91 7.44466 1052.91 7.95508V13H1051.72V11.9131H1051.62C1051.46 12.1729 1051.27 12.3939 1051.05 12.5762C1050.83 12.7585 1050.58 12.8975 1050.3 12.9932C1050.02 13.0843 1049.72 13.1299 1049.39 13.1299ZM1055.16 13V2.70508H1056.35V13H1055.16Z" fill="#8F979E"/>
<circle cx="1074" cy="8" r="4" fill="#69BBFC" stroke="#299BF5" stroke-linecap="round" stroke-dasharray="2 2"/>
<path d="M1083.87 9.47949V8.38574H1086.66C1087.37 8.38574 1087.92 8.20345 1088.3 7.83887C1088.69 7.46973 1088.88 6.96159 1088.88 6.31445V6.30078C1088.88 5.64909 1088.69 5.14095 1088.3 4.77637C1087.92 4.41178 1087.37 4.22949 1086.66 4.22949H1083.87V3.13574H1086.98C1087.6 3.13574 1088.14 3.2679 1088.62 3.53223C1089.09 3.79655 1089.46 4.16569 1089.73 4.63965C1090 5.11361 1090.14 5.66276 1090.14 6.28711V6.30078C1090.14 6.92513 1090 7.47656 1089.73 7.95508C1089.46 8.43359 1089.09 8.80729 1088.62 9.07617C1088.14 9.34505 1087.6 9.47949 1086.98 9.47949H1083.87ZM1083.26 13V3.13574H1084.49V13H1083.26ZM1092.01 13V5.63086H1093.2V6.72461H1093.31C1093.45 6.33724 1093.69 6.03646 1094.02 5.82227C1094.36 5.60807 1094.78 5.50098 1095.28 5.50098C1095.39 5.50098 1095.5 5.50781 1095.61 5.52148C1095.72 5.5306 1095.81 5.53971 1095.87 5.54883V6.7041C1095.75 6.68132 1095.63 6.66536 1095.51 6.65625C1095.39 6.64258 1095.27 6.63574 1095.14 6.63574C1094.76 6.63574 1094.43 6.71094 1094.13 6.86133C1093.84 7.01172 1093.61 7.22135 1093.44 7.49023C1093.28 7.75911 1093.2 8.07357 1093.2 8.43359V13H1092.01ZM1100.16 13.1299C1099.47 13.1299 1098.86 12.9772 1098.35 12.6719C1097.85 12.362 1097.45 11.9222 1097.18 11.3525C1096.9 10.7829 1096.77 10.1061 1096.77 9.32227V9.30859C1096.77 8.52018 1096.9 7.84115 1097.18 7.27148C1097.45 6.70182 1097.85 6.26432 1098.35 5.95898C1098.86 5.65365 1099.47 5.50098 1100.16 5.50098C1100.86 5.50098 1101.47 5.65365 1101.97 5.95898C1102.48 6.26432 1102.87 6.70182 1103.14 7.27148C1103.42 7.84115 1103.56 8.52018 1103.56 9.30859V9.32227C1103.56 10.1061 1103.42 10.7829 1103.14 11.3525C1102.87 11.9222 1102.48 12.362 1101.97 12.6719C1101.47 12.9772 1100.86 13.1299 1100.16 13.1299ZM1100.16 12.0771C1100.63 12.0771 1101.02 11.9678 1101.35 11.749C1101.67 11.5303 1101.92 11.2158 1102.08 10.8057C1102.26 10.3955 1102.34 9.90104 1102.34 9.32227V9.30859C1102.34 8.72526 1102.26 8.22852 1102.08 7.81836C1101.92 7.4082 1101.67 7.09603 1101.35 6.88184C1101.02 6.66309 1100.63 6.55371 1100.16 6.55371C1099.7 6.55371 1099.3 6.66309 1098.98 6.88184C1098.66 7.09603 1098.41 7.4082 1098.24 7.81836C1098.07 8.22852 1097.98 8.72526 1097.98 9.30859V9.32227C1097.98 9.90104 1098.07 10.3955 1098.24 10.8057C1098.41 11.2158 1098.66 11.5303 1098.98 11.749C1099.3 11.9678 1099.7 12.0771 1100.16 12.0771ZM1104.35 15.5293C1104.32 15.5293 1104.29 15.5293 1104.26 15.5293C1104.22 15.5293 1104.18 15.5293 1104.15 15.5293V14.4766C1104.18 14.4766 1104.21 14.4766 1104.24 14.4766C1104.26 14.4766 1104.29 14.4766 1104.33 14.4766C1104.73 14.4766 1105.01 14.3945 1105.17 14.2305C1105.34 14.071 1105.43 13.7884 1105.43 13.3828V5.63086H1106.62V13.3623C1106.62 14.1188 1106.43 14.668 1106.06 15.0098C1105.7 15.3561 1105.13 15.5293 1104.35 15.5293ZM1106.02 4.20898C1105.8 4.20898 1105.6 4.12923 1105.44 3.96973C1105.28 3.80566 1105.2 3.61198 1105.2 3.38867C1105.2 3.16081 1105.28 2.96712 1105.44 2.80762C1105.6 2.64811 1105.8 2.56836 1106.02 2.56836C1106.25 2.56836 1106.44 2.64811 1106.6 2.80762C1106.76 2.96712 1106.84 3.16081 1106.84 3.38867C1106.84 3.61198 1106.76 3.80566 1106.6 3.96973C1106.44 4.12923 1106.25 4.20898 1106.02 4.20898ZM1111.87 13.1299C1111.17 13.1299 1110.57 12.9749 1110.06 12.665C1109.56 12.3551 1109.17 11.9176 1108.9 11.3525C1108.63 10.7829 1108.5 10.113 1108.5 9.34277V9.33594C1108.5 8.57487 1108.63 7.90723 1108.9 7.33301C1109.17 6.75879 1109.56 6.3099 1110.05 5.98633C1110.55 5.66276 1111.13 5.50098 1111.8 5.50098C1112.47 5.50098 1113.04 5.65592 1113.52 5.96582C1114 6.27572 1114.37 6.70866 1114.63 7.26465C1114.89 7.81608 1115.02 8.45866 1115.02 9.19238V9.65723H1109.11V8.70703H1114.41L1113.82 9.5752V9.10352C1113.82 8.52474 1113.73 8.0485 1113.56 7.6748C1113.39 7.30111 1113.15 7.02311 1112.84 6.84082C1112.54 6.65397 1112.19 6.56055 1111.79 6.56055C1111.39 6.56055 1111.04 6.65853 1110.72 6.85449C1110.41 7.0459 1110.17 7.33073 1109.99 7.70898C1109.8 8.08724 1109.71 8.55208 1109.71 9.10352V9.5752C1109.71 10.0993 1109.8 10.5482 1109.98 10.9219C1110.16 11.291 1110.41 11.5758 1110.74 11.7764C1111.07 11.9723 1111.45 12.0703 1111.9 12.0703C1112.23 12.0703 1112.52 12.0247 1112.77 11.9336C1113.01 11.8424 1113.22 11.7262 1113.38 11.585C1113.54 11.4437 1113.65 11.3001 1113.71 11.1543L1113.74 11.0928H1114.93L1114.92 11.1475C1114.85 11.3981 1114.74 11.6419 1114.57 11.8789C1114.41 12.1113 1114.21 12.3232 1113.95 12.5146C1113.7 12.7015 1113.39 12.8519 1113.04 12.9658C1112.7 13.0752 1112.31 13.1299 1111.87 13.1299ZM1119.88 13.1299C1119.19 13.1299 1118.59 12.9727 1118.09 12.6582C1117.58 12.3438 1117.19 11.8994 1116.91 11.3252C1116.63 10.751 1116.49 10.0742 1116.49 9.29492V9.28125C1116.49 8.51562 1116.63 7.85026 1116.9 7.28516C1117.18 6.72005 1117.57 6.28255 1118.08 5.97266C1118.59 5.6582 1119.18 5.50098 1119.87 5.50098C1120.47 5.50098 1120.98 5.60579 1121.42 5.81543C1121.85 6.02507 1122.2 6.30762 1122.46 6.66309C1122.71 7.014 1122.88 7.4082 1122.95 7.8457L1122.96 7.88672H1121.78L1121.77 7.86621C1121.68 7.50163 1121.47 7.19173 1121.15 6.93652C1120.83 6.68132 1120.4 6.55371 1119.87 6.55371C1119.43 6.55371 1119.05 6.66536 1118.72 6.88867C1118.4 7.11198 1118.15 7.42871 1117.97 7.83887C1117.8 8.24447 1117.71 8.72526 1117.71 9.28125V9.29492C1117.71 9.86003 1117.8 10.3522 1117.98 10.7715C1118.16 11.1862 1118.41 11.5075 1118.73 11.7354C1119.05 11.9632 1119.43 12.0771 1119.87 12.0771C1120.37 12.0771 1120.77 11.9701 1121.09 11.7559C1121.4 11.5417 1121.63 11.2295 1121.76 10.8193L1121.78 10.7783L1122.95 10.7715L1122.94 10.8467C1122.84 11.2887 1122.66 11.6829 1122.41 12.0293C1122.15 12.3711 1121.81 12.64 1121.4 12.8359C1120.98 13.0319 1120.47 13.1299 1119.88 13.1299ZM1127.45 13.0547C1126.7 13.0547 1126.15 12.902 1125.8 12.5967C1125.47 12.2913 1125.3 11.7878 1125.3 11.0859V6.61523H1124.14V5.63086H1125.3V3.72363H1126.53V5.63086H1128.14V6.61523H1126.53V10.7852C1126.53 11.2181 1126.61 11.5303 1126.78 11.7217C1126.94 11.9085 1127.21 12.002 1127.6 12.002C1127.7 12.002 1127.79 11.9997 1127.86 11.9951C1127.94 11.9906 1128.03 11.9837 1128.14 11.9746V12.9863C1128.03 13.0046 1127.91 13.0205 1127.8 13.0342C1127.69 13.0479 1127.57 13.0547 1127.45 13.0547ZM1132.83 13.1299C1132.13 13.1299 1131.53 12.9749 1131.02 12.665C1130.52 12.3551 1130.13 11.9176 1129.86 11.3525C1129.59 10.7829 1129.46 10.113 1129.46 9.34277V9.33594C1129.46 8.57487 1129.59 7.90723 1129.86 7.33301C1130.13 6.75879 1130.52 6.3099 1131.01 5.98633C1131.51 5.66276 1132.09 5.50098 1132.76 5.50098C1133.43 5.50098 1134 5.65592 1134.48 5.96582C1134.96 6.27572 1135.33 6.70866 1135.59 7.26465C1135.85 7.81608 1135.98 8.45866 1135.98 9.19238V9.65723H1130.07V8.70703H1135.37L1134.78 9.5752V9.10352C1134.78 8.52474 1134.69 8.0485 1134.52 7.6748C1134.35 7.30111 1134.11 7.02311 1133.8 6.84082C1133.5 6.65397 1133.15 6.56055 1132.75 6.56055C1132.35 6.56055 1132 6.65853 1131.68 6.85449C1131.37 7.0459 1131.13 7.33073 1130.95 7.70898C1130.76 8.08724 1130.67 8.55208 1130.67 9.10352V9.5752C1130.67 10.0993 1130.76 10.5482 1130.94 10.9219C1131.12 11.291 1131.37 11.5758 1131.7 11.7764C1132.03 11.9723 1132.41 12.0703 1132.86 12.0703C1133.19 12.0703 1133.48 12.0247 1133.73 11.9336C1133.97 11.8424 1134.18 11.7262 1134.34 11.585C1134.5 11.4437 1134.61 11.3001 1134.67 11.1543L1134.7 11.0928H1135.89L1135.87 11.1475C1135.81 11.3981 1135.7 11.6419 1135.53 11.8789C1135.37 12.1113 1135.17 12.3232 1134.91 12.5146C1134.65 12.7015 1134.35 12.8519 1134 12.9658C1133.65 13.0752 1133.26 13.1299 1132.83 13.1299ZM1140.54 13.1299C1139.92 13.1299 1139.38 12.9727 1138.92 12.6582C1138.45 12.3438 1138.09 11.9017 1137.84 11.332C1137.58 10.7578 1137.45 10.0879 1137.45 9.32227V9.30859C1137.45 8.53841 1137.58 7.86849 1137.84 7.29883C1138.09 6.72917 1138.45 6.28711 1138.91 5.97266C1139.37 5.6582 1139.92 5.50098 1140.54 5.50098C1140.88 5.50098 1141.2 5.55566 1141.49 5.66504C1141.79 5.76986 1142.06 5.91797 1142.29 6.10938C1142.53 6.30078 1142.71 6.52865 1142.84 6.79297H1142.95V2.70508H1144.14V13H1142.95V11.8242H1142.84C1142.69 12.0977 1142.5 12.3324 1142.27 12.5283C1142.04 12.7197 1141.78 12.8678 1141.49 12.9727C1141.2 13.0775 1140.88 13.1299 1140.54 13.1299ZM1140.82 12.0771C1141.26 12.0771 1141.65 11.9655 1141.97 11.7422C1142.3 11.5189 1142.54 11.2021 1142.72 10.792C1142.89 10.3773 1142.98 9.88737 1142.98 9.32227V9.30859C1142.98 8.73893 1142.89 8.24902 1142.72 7.83887C1142.54 7.42871 1142.3 7.11198 1141.97 6.88867C1141.65 6.66536 1141.26 6.55371 1140.82 6.55371C1140.37 6.55371 1139.98 6.66536 1139.66 6.88867C1139.34 7.10742 1139.1 7.42188 1138.92 7.83203C1138.75 8.24219 1138.67 8.73438 1138.67 9.30859V9.32227C1138.67 9.89193 1138.75 10.3841 1138.92 10.7988C1139.1 11.209 1139.34 11.5257 1139.66 11.749C1139.98 11.9678 1140.37 12.0771 1140.82 12.0771Z" fill="#8F979E"/>
<path d="M12.6895 35.877C12.1699 35.877 11.6875 35.7832 11.2422 35.5957C10.7969 35.4082 10.4355 35.1387 10.1582 34.7871C9.88477 34.4355 9.73828 34.0137 9.71875 33.5215V33.5156L10.7383 33.5098V33.5215C10.7773 33.791 10.8691 34.0352 11.0137 34.2539C11.1582 34.4727 11.3672 34.6465 11.6406 34.7754C11.918 34.9004 12.2715 34.9629 12.7012 34.9629C13.1426 34.9629 13.4961 34.9043 13.7617 34.7871C14.0312 34.666 14.2266 34.5059 14.3477 34.3066C14.4688 34.1035 14.5293 33.8809 14.5293 33.6387V33.627C14.5293 33.3066 14.4277 33.041 14.2246 32.8301C14.0254 32.6152 13.6348 32.4375 13.0527 32.2969L12.1797 32.0859C11.6953 31.9688 11.2852 31.8164 10.9492 31.6289C10.6172 31.4375 10.3652 31.2031 10.1934 30.9258C10.0215 30.6484 9.93555 30.3184 9.93555 29.9355V29.9238C9.93555 29.4668 10.0547 29.0703 10.293 28.7344C10.5352 28.3945 10.8633 28.1328 11.2773 27.9492C11.6914 27.7617 12.1621 27.668 12.6895 27.668C13.1934 27.668 13.6504 27.7637 14.0605 27.9551C14.4746 28.1465 14.8086 28.416 15.0625 28.7637C15.3164 29.1074 15.4512 29.5117 15.4668 29.9766V29.9824L14.4473 29.9883V29.9766C14.4199 29.6797 14.3262 29.4277 14.166 29.2207C14.0098 29.0137 13.8047 28.8555 13.5508 28.7461C13.2969 28.6367 13.0098 28.582 12.6895 28.582C12.3105 28.582 11.9922 28.6445 11.7344 28.7695C11.4766 28.8906 11.2812 29.0488 11.1484 29.2441C11.0195 29.4355 10.9551 29.6387 10.9551 29.8535V29.8652C10.9551 30.0527 10.998 30.2266 11.084 30.3867C11.1738 30.5469 11.3184 30.6895 11.5176 30.8145C11.7168 30.9395 11.9863 31.043 12.3262 31.125L13.1992 31.3359C13.9531 31.5156 14.5332 31.7754 14.9395 32.1152C15.3457 32.4551 15.5488 32.9316 15.5488 33.5449V33.5566C15.5488 34.0605 15.416 34.4863 15.1504 34.834C14.8848 35.1777 14.5352 35.4375 14.1016 35.6133C13.668 35.7891 13.1973 35.877 12.6895 35.877ZM12.3145 36.8496V26.6953H13.0176V36.8496H12.3145ZM19.4453 36V28.7168H19.3516L17.2012 30.2754V29.1621L19.4512 27.5449H20.5V36H19.4453ZM25.7734 36.1992C25.1484 36.1992 24.6133 36.0195 24.168 35.6602C23.7266 35.3008 23.3867 34.791 23.1484 34.1309C22.9102 33.4668 22.791 32.6816 22.791 31.7754V31.7637C22.791 30.8574 22.9102 30.0742 23.1484 29.4141C23.3867 28.7539 23.7266 28.2441 24.168 27.8848C24.6133 27.5254 25.1484 27.3457 25.7734 27.3457C26.3984 27.3457 26.9336 27.5254 27.3789 27.8848C27.8242 28.2441 28.166 28.7539 28.4043 29.4141C28.6465 30.0742 28.7676 30.8574 28.7676 31.7637V31.7754C28.7676 32.6816 28.6465 33.4668 28.4043 34.1309C28.166 34.791 27.8242 35.3008 27.3789 35.6602C26.9336 36.0195 26.3984 36.1992 25.7734 36.1992ZM25.7734 35.2793C26.1797 35.2793 26.5254 35.1367 26.8105 34.8516C27.0996 34.5664 27.3203 34.1621 27.4727 33.6387C27.6289 33.1152 27.707 32.4941 27.707 31.7754V31.7637C27.707 31.0449 27.6289 30.4258 27.4727 29.9062C27.3203 29.3828 27.0996 28.9805 26.8105 28.6992C26.5254 28.4141 26.1797 28.2715 25.7734 28.2715C25.3711 28.2715 25.0254 28.4141 24.7363 28.6992C24.4512 28.9805 24.2324 29.3828 24.0801 29.9062C23.9277 30.4258 23.8516 31.0449 23.8516 31.7637V31.7754C23.8516 32.4941 23.9277 33.1152 24.0801 33.6387C24.2324 34.1621 24.4512 34.5664 24.7363 34.8516C25.0254 35.1367 25.3711 35.2793 25.7734 35.2793ZM30.5078 36V29.6836H31.5273V30.6445H31.6211C31.7617 30.3047 31.9766 30.041 32.2656 29.8535C32.5586 29.666 32.9121 29.5723 33.3262 29.5723C33.6113 29.5723 33.8672 29.6191 34.0938 29.7129C34.3203 29.8066 34.5156 29.9375 34.6797 30.1055C34.8438 30.2695 34.9746 30.4609 35.0723 30.6797H35.166C35.2793 30.457 35.4316 30.2637 35.623 30.0996C35.8145 29.9316 36.0352 29.8027 36.2852 29.7129C36.5391 29.6191 36.8105 29.5723 37.0996 29.5723C37.5293 29.5723 37.8926 29.6523 38.1895 29.8125C38.4902 29.9727 38.7188 30.207 38.875 30.5156C39.0312 30.8203 39.1094 31.1934 39.1094 31.6348V36H38.0898V31.8691C38.0898 31.5566 38.041 31.2988 37.9434 31.0957C37.8496 30.8887 37.7051 30.7344 37.5098 30.6328C37.3145 30.5273 37.0684 30.4746 36.7715 30.4746C36.4785 30.4746 36.2227 30.541 36.0039 30.6738C35.7852 30.8066 35.6152 30.9844 35.4941 31.207C35.373 31.4258 35.3125 31.6699 35.3125 31.9395V36H34.293V31.7109C34.293 31.4609 34.2383 31.2441 34.1289 31.0605C34.0234 30.873 33.8711 30.7285 33.6719 30.627C33.4766 30.5254 33.2461 30.4746 32.9805 30.4746C32.707 30.4746 32.459 30.5469 32.2363 30.6914C32.0176 30.8359 31.8438 31.0312 31.7148 31.2773C31.5898 31.5195 31.5273 31.7891 31.5273 32.0859V36H30.5078Z" fill="#8F979E"/>
<line x1="48.5" y1="32" x2="1145.5" y2="32" stroke="#F2F2F3" stroke-linecap="round"/>
<path d="M18.1504 73.2769C17.6309 73.2769 17.1484 73.1831 16.7031 72.9956C16.2578 72.8081 15.8965 72.5386 15.6191 72.187C15.3457 71.8354 15.1992 71.4136 15.1797 70.9214V70.9155L16.1992 70.9097V70.9214C16.2383 71.1909 16.3301 71.4351 16.4746 71.6538C16.6191 71.8726 16.8281 72.0464 17.1016 72.1753C17.3789 72.3003 17.7324 72.3628 18.1621 72.3628C18.6035 72.3628 18.957 72.3042 19.2227 72.187C19.4922 72.0659 19.6875 71.9058 19.8086 71.7065C19.9297 71.5034 19.9902 71.2808 19.9902 71.0386V71.0269C19.9902 70.7065 19.8887 70.4409 19.6855 70.23C19.4863 70.0151 19.0957 69.8374 18.5137 69.6968L17.6406 69.4858C17.1562 69.3687 16.7461 69.2163 16.4102 69.0288C16.0781 68.8374 15.8262 68.603 15.6543 68.3257C15.4824 68.0483 15.3965 67.7183 15.3965 67.3354V67.3237C15.3965 66.8667 15.5156 66.4702 15.7539 66.1343C15.9961 65.7944 16.3242 65.5327 16.7383 65.3491C17.1523 65.1616 17.623 65.0679 18.1504 65.0679C18.6543 65.0679 19.1113 65.1636 19.5215 65.355C19.9355 65.5464 20.2695 65.8159 20.5234 66.1636C20.7773 66.5073 20.9121 66.9116 20.9277 67.3765V67.3823L19.9082 67.3882V67.3765C19.8809 67.0796 19.7871 66.8276 19.627 66.6206C19.4707 66.4136 19.2656 66.2554 19.0117 66.146C18.7578 66.0366 18.4707 65.9819 18.1504 65.9819C17.7715 65.9819 17.4531 66.0444 17.1953 66.1694C16.9375 66.2905 16.7422 66.4487 16.6094 66.644C16.4805 66.8354 16.416 67.0386 16.416 67.2534V67.2651C16.416 67.4526 16.459 67.6265 16.5449 67.7866C16.6348 67.9468 16.7793 68.0894 16.9785 68.2144C17.1777 68.3394 17.4473 68.4429 17.7871 68.5249L18.6602 68.7358C19.4141 68.9155 19.9941 69.1753 20.4004 69.5151C20.8066 69.855 21.0098 70.3315 21.0098 70.9448V70.9565C21.0098 71.4604 20.877 71.8862 20.6113 72.2339C20.3457 72.5776 19.9961 72.8374 19.5625 73.0132C19.1289 73.189 18.6582 73.2769 18.1504 73.2769ZM17.7754 74.2495V64.0952H18.4785V74.2495H17.7754ZM25.7266 73.5405C25.1289 73.5405 24.5996 73.437 24.1387 73.23C23.6777 73.0229 23.3145 72.7378 23.0488 72.3745C22.7871 72.0073 22.6562 71.5874 22.6562 71.1147V71.103C22.6562 70.7554 22.7324 70.4331 22.8848 70.1362C23.0371 69.8394 23.25 69.5874 23.5234 69.3804C23.7969 69.1694 24.1133 69.0229 24.4727 68.9409V68.9175C24.0117 68.7729 23.6445 68.5347 23.3711 68.2026C23.0977 67.8706 22.9609 67.4819 22.9609 67.0366V67.0249C22.9609 66.5991 23.0801 66.2202 23.3184 65.8882C23.5566 65.5522 23.8848 65.2886 24.3027 65.0972C24.7207 64.9019 25.1953 64.8042 25.7266 64.8042C26.2617 64.8042 26.7363 64.9019 27.1504 65.0972C27.5684 65.2886 27.8965 65.5522 28.1348 65.8882C28.373 66.2202 28.4922 66.5991 28.4922 67.0249V67.0366C28.4922 67.4819 28.3555 67.8706 28.082 68.2026C27.8125 68.5347 27.4453 68.7729 26.9805 68.9175V68.9409C27.3438 69.0229 27.6602 69.1694 27.9297 69.3804C28.2031 69.5874 28.416 69.8394 28.5684 70.1362C28.7207 70.4331 28.7969 70.7554 28.7969 71.103V71.1147C28.7969 71.5874 28.666 72.0073 28.4043 72.3745C28.1426 72.7378 27.7793 73.0229 27.3145 73.23C26.8535 73.437 26.3242 73.5405 25.7266 73.5405ZM25.7266 72.6206C26.1172 72.6206 26.4609 72.5542 26.7578 72.4214C27.0586 72.2847 27.2949 72.0991 27.4668 71.8647C27.6387 71.6265 27.7246 71.355 27.7246 71.0503V71.0386C27.7246 70.73 27.6387 70.4565 27.4668 70.2183C27.2988 69.98 27.0645 69.7925 26.7637 69.6558C26.4629 69.519 26.1172 69.4507 25.7266 69.4507C25.3359 69.4507 24.9902 69.519 24.6895 69.6558C24.3887 69.7925 24.1523 69.98 23.9805 70.2183C23.8125 70.4565 23.7285 70.73 23.7285 71.0386V71.0503C23.7285 71.355 23.8145 71.6265 23.9863 71.8647C24.1582 72.0991 24.3945 72.2847 24.6953 72.4214C24.9961 72.5542 25.3398 72.6206 25.7266 72.6206ZM25.7266 68.5249C26.0664 68.5249 26.3652 68.4663 26.623 68.3491C26.8809 68.228 27.082 68.062 27.2266 67.8511C27.3711 67.6401 27.4434 67.3979 27.4434 67.1245V67.1128C27.4434 66.8394 27.3711 66.5972 27.2266 66.3862C27.082 66.1753 26.8809 66.0112 26.623 65.894C26.3652 65.7729 26.0664 65.7124 25.7266 65.7124C25.3867 65.7124 25.0879 65.7729 24.8301 65.894C24.5723 66.0112 24.3711 66.1753 24.2266 66.3862C24.082 66.5972 24.0098 66.8394 24.0098 67.1128V67.1245C24.0098 67.3979 24.082 67.6401 24.2266 67.8511C24.3711 68.062 24.5723 68.228 24.8301 68.3491C25.0879 68.4663 25.3867 68.5249 25.7266 68.5249ZM30.5078 73.3999V67.0835H31.5273V68.0444H31.6211C31.7617 67.7046 31.9766 67.4409 32.2656 67.2534C32.5586 67.0659 32.9121 66.9722 33.3262 66.9722C33.6113 66.9722 33.8672 67.019 34.0938 67.1128C34.3203 67.2065 34.5156 67.3374 34.6797 67.5054C34.8438 67.6694 34.9746 67.8608 35.0723 68.0796H35.166C35.2793 67.8569 35.4316 67.6636 35.623 67.4995C35.8145 67.3315 36.0352 67.2026 36.2852 67.1128C36.5391 67.019 36.8105 66.9722 37.0996 66.9722C37.5293 66.9722 37.8926 67.0522 38.1895 67.2124C38.4902 67.3726 38.7188 67.6069 38.875 67.9155C39.0312 68.2202 39.1094 68.5933 39.1094 69.0347V73.3999H38.0898V69.269C38.0898 68.9565 38.041 68.6987 37.9434 68.4956C37.8496 68.2886 37.7051 68.1343 37.5098 68.0327C37.3145 67.9272 37.0684 67.8745 36.7715 67.8745C36.4785 67.8745 36.2227 67.9409 36.0039 68.0737C35.7852 68.2065 35.6152 68.3843 35.4941 68.6069C35.373 68.8257 35.3125 69.0698 35.3125 69.3394V73.3999H34.293V69.1108C34.293 68.8608 34.2383 68.644 34.1289 68.4604C34.0234 68.2729 33.8711 68.1284 33.6719 68.0269C33.4766 67.9253 33.2461 67.8745 32.9805 67.8745C32.707 67.8745 32.459 67.9468 32.2363 68.0913C32.0176 68.2358 31.8438 68.4312 31.7148 68.6772C31.5898 68.9194 31.5273 69.189 31.5273 69.4858V73.3999H30.5078Z" fill="#8F979E"/>
<line x1="48.5" y1="69.3999" x2="1145.5" y2="69.3999" stroke="#F2F2F3" stroke-linecap="round"/>
<path d="M18.1738 110.677C17.6543 110.677 17.1719 110.583 16.7266 110.396C16.2812 110.208 15.9199 109.939 15.6426 109.587C15.3691 109.236 15.2227 108.814 15.2031 108.322V108.316L16.2227 108.31V108.322C16.2617 108.591 16.3535 108.835 16.498 109.054C16.6426 109.273 16.8516 109.447 17.125 109.575C17.4023 109.7 17.7559 109.763 18.1855 109.763C18.627 109.763 18.9805 109.704 19.2461 109.587C19.5156 109.466 19.7109 109.306 19.832 109.107C19.9531 108.904 20.0137 108.681 20.0137 108.439V108.427C20.0137 108.107 19.9121 107.841 19.709 107.63C19.5098 107.415 19.1191 107.238 18.5371 107.097L17.6641 106.886C17.1797 106.769 16.7695 106.616 16.4336 106.429C16.1016 106.238 15.8496 106.003 15.6777 105.726C15.5059 105.448 15.4199 105.118 15.4199 104.736V104.724C15.4199 104.267 15.5391 103.87 15.7773 103.534C16.0195 103.195 16.3477 102.933 16.7617 102.749C17.1758 102.562 17.6465 102.468 18.1738 102.468C18.6777 102.468 19.1348 102.564 19.5449 102.755C19.959 102.947 20.293 103.216 20.5469 103.564C20.8008 103.907 20.9355 104.312 20.9512 104.777V104.782L19.9316 104.788V104.777C19.9043 104.48 19.8105 104.228 19.6504 104.021C19.4941 103.814 19.2891 103.656 19.0352 103.546C18.7812 103.437 18.4941 103.382 18.1738 103.382C17.7949 103.382 17.4766 103.445 17.2188 103.57C16.9609 103.691 16.7656 103.849 16.6328 104.044C16.5039 104.236 16.4395 104.439 16.4395 104.654V104.665C16.4395 104.853 16.4824 105.027 16.5684 105.187C16.6582 105.347 16.8027 105.49 17.002 105.615C17.2012 105.74 17.4707 105.843 17.8105 105.925L18.6836 106.136C19.4375 106.316 20.0176 106.575 20.4238 106.915C20.8301 107.255 21.0332 107.732 21.0332 108.345V108.357C21.0332 108.861 20.9004 109.286 20.6348 109.634C20.3691 109.978 20.0195 110.238 19.5859 110.413C19.1523 110.589 18.6816 110.677 18.1738 110.677ZM17.7988 111.65V101.495H18.502V111.65H17.7988ZM25.8496 110.999C25.4629 110.999 25.0801 110.925 24.7012 110.777C24.3262 110.628 23.9844 110.388 23.6758 110.056C23.3711 109.724 23.127 109.286 22.9434 108.743C22.7598 108.197 22.668 107.525 22.668 106.728V106.716C22.668 105.755 22.7969 104.935 23.0547 104.255C23.3125 103.572 23.6836 103.05 24.168 102.691C24.6523 102.327 25.2363 102.146 25.9199 102.146C26.3926 102.146 26.8184 102.234 27.1973 102.409C27.5801 102.581 27.8984 102.823 28.1523 103.136C28.4102 103.445 28.5859 103.808 28.6797 104.226L28.6973 104.302H27.6367L27.6133 104.238C27.5273 103.999 27.4043 103.796 27.2441 103.628C27.0879 103.456 26.8965 103.323 26.6699 103.23C26.4473 103.136 26.1934 103.089 25.9082 103.089C25.3965 103.089 24.9805 103.24 24.6602 103.54C24.3398 103.837 24.1016 104.234 23.9453 104.73C23.793 105.222 23.7051 105.763 23.6816 106.353C23.6777 106.404 23.6758 106.456 23.6758 106.511C23.6758 106.562 23.6758 106.615 23.6758 106.669L23.9277 108.075C23.9277 108.447 24.0117 108.782 24.1797 109.083C24.3516 109.384 24.582 109.624 24.8711 109.804C25.1602 109.98 25.4824 110.068 25.8379 110.068C26.1934 110.068 26.5156 109.982 26.8047 109.81C27.0938 109.634 27.3223 109.398 27.4902 109.101C27.6621 108.804 27.748 108.474 27.748 108.111V108.099C27.748 107.724 27.666 107.392 27.502 107.103C27.3418 106.81 27.1191 106.581 26.834 106.417C26.5488 106.249 26.2227 106.165 25.8555 106.165C25.4922 106.165 25.1641 106.247 24.8711 106.411C24.582 106.575 24.3516 106.802 24.1797 107.091C24.0117 107.376 23.9277 107.702 23.9277 108.07V108.075H23.582V106.552H23.7871C23.8926 106.322 24.0488 106.107 24.2559 105.907C24.4629 105.708 24.7168 105.548 25.0176 105.427C25.3184 105.306 25.6582 105.245 26.0371 105.245C26.5684 105.245 27.043 105.368 27.4609 105.615C27.8789 105.861 28.207 106.197 28.4453 106.622C28.6875 107.048 28.8086 107.532 28.8086 108.075V108.087C28.8086 108.65 28.6797 109.15 28.4219 109.587C28.168 110.025 27.8184 110.37 27.373 110.624C26.9277 110.874 26.4199 110.999 25.8496 110.999ZM30.5078 110.8V104.484H31.5273V105.445H31.6211C31.7617 105.105 31.9766 104.841 32.2656 104.654C32.5586 104.466 32.9121 104.372 33.3262 104.372C33.6113 104.372 33.8672 104.419 34.0938 104.513C34.3203 104.607 34.5156 104.738 34.6797 104.906C34.8438 105.07 34.9746 105.261 35.0723 105.48H35.166C35.2793 105.257 35.4316 105.064 35.623 104.9C35.8145 104.732 36.0352 104.603 36.2852 104.513C36.5391 104.419 36.8105 104.372 37.0996 104.372C37.5293 104.372 37.8926 104.452 38.1895 104.613C38.4902 104.773 38.7188 105.007 38.875 105.316C39.0312 105.62 39.1094 105.993 39.1094 106.435V110.8H38.0898V106.669C38.0898 106.357 38.041 106.099 37.9434 105.896C37.8496 105.689 37.7051 105.534 37.5098 105.433C37.3145 105.327 37.0684 105.275 36.7715 105.275C36.4785 105.275 36.2227 105.341 36.0039 105.474C35.7852 105.607 35.6152 105.784 35.4941 106.007C35.373 106.226 35.3125 106.47 35.3125 106.74V110.8H34.293V106.511C34.293 106.261 34.2383 106.044 34.1289 105.861C34.0234 105.673 33.8711 105.529 33.6719 105.427C33.4766 105.325 33.2461 105.275 32.9805 105.275C32.707 105.275 32.459 105.347 32.2363 105.491C32.0176 105.636 31.8438 105.831 31.7148 106.077C31.5898 106.32 31.5273 106.589 31.5273 106.886V110.8H30.5078Z" fill="#8F979E"/>
<line x1="48.5" y1="106.8" x2="1145.5" y2="106.8" stroke="#F2F2F3" stroke-linecap="round"/>
<path d="M18.0918 148.077C17.5723 148.077 17.0898 147.983 16.6445 147.796C16.1992 147.608 15.8379 147.339 15.5605 146.987C15.2871 146.635 15.1406 146.214 15.1211 145.721V145.716L16.1406 145.71V145.721C16.1797 145.991 16.2715 146.235 16.416 146.454C16.5605 146.673 16.7695 146.846 17.043 146.975C17.3203 147.1 17.6738 147.163 18.1035 147.163C18.5449 147.163 18.8984 147.104 19.1641 146.987C19.4336 146.866 19.6289 146.706 19.75 146.507C19.8711 146.303 19.9316 146.081 19.9316 145.839V145.827C19.9316 145.507 19.8301 145.241 19.627 145.03C19.4277 144.815 19.0371 144.637 18.4551 144.497L17.582 144.286C17.0977 144.169 16.6875 144.016 16.3516 143.829C16.0195 143.637 15.7676 143.403 15.5957 143.126C15.4238 142.848 15.3379 142.518 15.3379 142.135V142.124C15.3379 141.667 15.457 141.27 15.6953 140.934C15.9375 140.594 16.2656 140.333 16.6797 140.149C17.0938 139.962 17.5645 139.868 18.0918 139.868C18.5957 139.868 19.0527 139.964 19.4629 140.155C19.877 140.346 20.2109 140.616 20.4648 140.964C20.7188 141.307 20.8535 141.712 20.8691 142.177V142.182L19.8496 142.188V142.177C19.8223 141.88 19.7285 141.628 19.5684 141.421C19.4121 141.214 19.207 141.055 18.9531 140.946C18.6992 140.837 18.4121 140.782 18.0918 140.782C17.7129 140.782 17.3945 140.844 17.1367 140.969C16.8789 141.091 16.6836 141.249 16.5508 141.444C16.4219 141.635 16.3574 141.839 16.3574 142.053V142.065C16.3574 142.253 16.4004 142.427 16.4863 142.587C16.5762 142.747 16.7207 142.889 16.9199 143.014C17.1191 143.139 17.3887 143.243 17.7285 143.325L18.6016 143.536C19.3555 143.716 19.9355 143.975 20.3418 144.315C20.748 144.655 20.9512 145.132 20.9512 145.745V145.757C20.9512 146.26 20.8184 146.686 20.5527 147.034C20.2871 147.378 19.9375 147.637 19.5039 147.813C19.0703 147.989 18.5996 148.077 18.0918 148.077ZM17.7168 149.05V138.895H18.4199V149.05H17.7168ZM26.6406 148.2V146.448H22.5215V145.487C22.752 145.104 22.9863 144.718 23.2246 144.327C23.4629 143.932 23.7031 143.54 23.9453 143.149C24.1914 142.755 24.4375 142.364 24.6836 141.977C24.9297 141.591 25.1738 141.21 25.416 140.835C25.6621 140.46 25.9043 140.096 26.1426 139.745H27.6719V145.505H28.873V146.448H27.6719V148.2H26.6406ZM23.5996 145.51H26.6465V140.723H26.5762C26.3848 141.009 26.1895 141.305 25.9902 141.614C25.791 141.919 25.5879 142.231 25.3809 142.552C25.1777 142.872 24.9746 143.194 24.7715 143.518C24.5684 143.843 24.3672 144.167 24.168 144.491C23.9727 144.811 23.7832 145.128 23.5996 145.44V145.51ZM30.5078 148.2V141.884H31.5273V142.844H31.6211C31.7617 142.505 31.9766 142.241 32.2656 142.053C32.5586 141.866 32.9121 141.772 33.3262 141.772C33.6113 141.772 33.8672 141.819 34.0938 141.913C34.3203 142.007 34.5156 142.137 34.6797 142.305C34.8438 142.469 34.9746 142.661 35.0723 142.88H35.166C35.2793 142.657 35.4316 142.464 35.623 142.3C35.8145 142.132 36.0352 142.003 36.2852 141.913C36.5391 141.819 36.8105 141.772 37.0996 141.772C37.5293 141.772 37.8926 141.852 38.1895 142.012C38.4902 142.173 38.7188 142.407 38.875 142.716C39.0312 143.02 39.1094 143.393 39.1094 143.835V148.2H38.0898V144.069C38.0898 143.757 38.041 143.499 37.9434 143.296C37.8496 143.089 37.7051 142.934 37.5098 142.833C37.3145 142.727 37.0684 142.675 36.7715 142.675C36.4785 142.675 36.2227 142.741 36.0039 142.874C35.7852 143.007 35.6152 143.184 35.4941 143.407C35.373 143.626 35.3125 143.87 35.3125 144.139V148.2H34.293V143.911C34.293 143.661 34.2383 143.444 34.1289 143.26C34.0234 143.073 33.8711 142.928 33.6719 142.827C33.4766 142.725 33.2461 142.675 32.9805 142.675C32.707 142.675 32.459 142.747 32.2363 142.891C32.0176 143.036 31.8438 143.231 31.7148 143.477C31.5898 143.719 31.5273 143.989 31.5273 144.286V148.2H30.5078Z" fill="#8F979E"/>
<line x1="48.5" y1="144.2" x2="1145.5" y2="144.2" stroke="#F2F2F3" stroke-linecap="round"/>
<path d="M18.5723 185.477C18.0527 185.477 17.5703 185.383 17.125 185.196C16.6797 185.008 16.3184 184.739 16.041 184.387C15.7676 184.036 15.6211 183.614 15.6016 183.122V183.116L16.6211 183.11V183.122C16.6602 183.391 16.752 183.635 16.8965 183.854C17.041 184.073 17.25 184.247 17.5234 184.375C17.8008 184.5 18.1543 184.563 18.584 184.563C19.0254 184.563 19.3789 184.504 19.6445 184.387C19.9141 184.266 20.1094 184.106 20.2305 183.907C20.3516 183.704 20.4121 183.481 20.4121 183.239V183.227C20.4121 182.907 20.3105 182.641 20.1074 182.43C19.9082 182.215 19.5176 182.038 18.9355 181.897L18.0625 181.686C17.5781 181.569 17.168 181.417 16.832 181.229C16.5 181.038 16.248 180.803 16.0762 180.526C15.9043 180.249 15.8184 179.918 15.8184 179.536V179.524C15.8184 179.067 15.9375 178.67 16.1758 178.334C16.418 177.995 16.7461 177.733 17.1602 177.549C17.5742 177.362 18.0449 177.268 18.5723 177.268C19.0762 177.268 19.5332 177.364 19.9434 177.555C20.3574 177.747 20.6914 178.016 20.9453 178.364C21.1992 178.708 21.334 179.112 21.3496 179.577V179.583L20.3301 179.588V179.577C20.3027 179.28 20.209 179.028 20.0488 178.821C19.8926 178.614 19.6875 178.456 19.4336 178.346C19.1797 178.237 18.8926 178.182 18.5723 178.182C18.1934 178.182 17.875 178.245 17.6172 178.37C17.3594 178.491 17.1641 178.649 17.0312 178.844C16.9023 179.036 16.8379 179.239 16.8379 179.454V179.465C16.8379 179.653 16.8809 179.827 16.9668 179.987C17.0566 180.147 17.2012 180.29 17.4004 180.415C17.5996 180.54 17.8691 180.643 18.209 180.725L19.082 180.936C19.8359 181.116 20.416 181.375 20.8223 181.715C21.2285 182.055 21.4316 182.532 21.4316 183.145V183.157C21.4316 183.661 21.2988 184.086 21.0332 184.434C20.7676 184.778 20.418 185.038 19.9844 185.213C19.5508 185.389 19.0801 185.477 18.5723 185.477ZM18.1973 186.45V176.295H18.9004V186.45H18.1973ZM23.2598 185.6V184.874L26.1191 181.78C26.4785 181.389 26.7598 181.067 26.9629 180.813C27.166 180.555 27.3086 180.323 27.3906 180.116C27.4727 179.909 27.5137 179.682 27.5137 179.436V179.424C27.5137 179.127 27.4492 178.862 27.3203 178.627C27.1914 178.393 27.0078 178.208 26.7695 178.071C26.5312 177.934 26.2461 177.866 25.9141 177.866C25.5781 177.866 25.2832 177.936 25.0293 178.077C24.7754 178.213 24.5781 178.407 24.4375 178.657C24.2969 178.903 24.2266 179.192 24.2266 179.524L24.2207 179.536L23.2129 179.53L23.2012 179.524C23.2051 179.024 23.3262 178.581 23.5645 178.194C23.8027 177.803 24.1309 177.499 24.5488 177.28C24.9668 177.057 25.4453 176.946 25.9844 176.946C26.4766 176.946 26.9199 177.049 27.3145 177.256C27.709 177.459 28.0195 177.739 28.2461 178.094C28.4766 178.45 28.5918 178.856 28.5918 179.313V179.325C28.5918 179.645 28.5352 179.954 28.4219 180.25C28.3125 180.547 28.1172 180.877 27.8359 181.241C27.5547 181.6 27.1582 182.043 26.6465 182.571L24.4609 184.827L24.7246 184.34V184.827L24.4668 184.651H28.7324V185.6H23.2598ZM30.5078 185.6V179.284H31.5273V180.245H31.6211C31.7617 179.905 31.9766 179.641 32.2656 179.454C32.5586 179.266 32.9121 179.172 33.3262 179.172C33.6113 179.172 33.8672 179.219 34.0938 179.313C34.3203 179.407 34.5156 179.538 34.6797 179.706C34.8438 179.87 34.9746 180.061 35.0723 180.28H35.166C35.2793 180.057 35.4316 179.864 35.623 179.7C35.8145 179.532 36.0352 179.403 36.2852 179.313C36.5391 179.219 36.8105 179.172 37.0996 179.172C37.5293 179.172 37.8926 179.252 38.1895 179.413C38.4902 179.573 38.7188 179.807 38.875 180.116C39.0312 180.42 39.1094 180.793 39.1094 181.235V185.6H38.0898V181.469C38.0898 181.157 38.041 180.899 37.9434 180.696C37.8496 180.489 37.7051 180.334 37.5098 180.233C37.3145 180.127 37.0684 180.075 36.7715 180.075C36.4785 180.075 36.2227 180.141 36.0039 180.274C35.7852 180.407 35.6152 180.584 35.4941 180.807C35.373 181.026 35.3125 181.27 35.3125 181.54V185.6H34.293V181.311C34.293 181.061 34.2383 180.844 34.1289 180.661C34.0234 180.473 33.8711 180.329 33.6719 180.227C33.4766 180.125 33.2461 180.075 32.9805 180.075C32.707 180.075 32.459 180.147 32.2363 180.292C32.0176 180.436 31.8438 180.631 31.7148 180.877C31.5898 181.12 31.5273 181.389 31.5273 181.686V185.6H30.5078Z" fill="#8F979E"/>
<line x1="48.5" y1="181.6" x2="1145.5" y2="181.6" stroke="#F2F2F3" stroke-linecap="round"/>
<path d="M28.6973 222.877C28.1777 222.877 27.6953 222.783 27.25 222.596C26.8047 222.408 26.4434 222.139 26.166 221.787C25.8926 221.436 25.7461 221.014 25.7266 220.521V220.516L26.7461 220.51V220.521C26.7852 220.791 26.877 221.035 27.0215 221.254C27.166 221.473 27.375 221.646 27.6484 221.775C27.9258 221.9 28.2793 221.963 28.709 221.963C29.1504 221.963 29.5039 221.904 29.7695 221.787C30.0391 221.666 30.2344 221.506 30.3555 221.307C30.4766 221.104 30.5371 220.881 30.5371 220.639V220.627C30.5371 220.307 30.4355 220.041 30.2324 219.83C30.0332 219.615 29.6426 219.438 29.0605 219.297L28.1875 219.086C27.7031 218.969 27.293 218.816 26.957 218.629C26.625 218.438 26.373 218.203 26.2012 217.926C26.0293 217.648 25.9434 217.318 25.9434 216.936V216.924C25.9434 216.467 26.0625 216.07 26.3008 215.734C26.543 215.395 26.8711 215.133 27.2852 214.949C27.6992 214.762 28.1699 214.668 28.6973 214.668C29.2012 214.668 29.6582 214.764 30.0684 214.955C30.4824 215.146 30.8164 215.416 31.0703 215.764C31.3242 216.107 31.459 216.512 31.4746 216.977V216.982L30.4551 216.988V216.977C30.4277 216.68 30.334 216.428 30.1738 216.221C30.0176 216.014 29.8125 215.855 29.5586 215.746C29.3047 215.637 29.0176 215.582 28.6973 215.582C28.3184 215.582 28 215.645 27.7422 215.77C27.4844 215.891 27.2891 216.049 27.1562 216.244C27.0273 216.436 26.9629 216.639 26.9629 216.854V216.865C26.9629 217.053 27.0059 217.227 27.0918 217.387C27.1816 217.547 27.3262 217.689 27.5254 217.814C27.7246 217.939 27.9941 218.043 28.334 218.125L29.207 218.336C29.9609 218.516 30.541 218.775 30.9473 219.115C31.3535 219.455 31.5566 219.932 31.5566 220.545V220.557C31.5566 221.061 31.4238 221.486 31.1582 221.834C30.8926 222.178 30.543 222.438 30.1094 222.613C29.6758 222.789 29.2051 222.877 28.6973 222.877ZM28.3223 223.85V213.695H29.0254V223.85H28.3223ZM36.2148 223.199C35.5898 223.199 35.0547 223.02 34.6094 222.66C34.168 222.301 33.8281 221.791 33.5898 221.131C33.3516 220.467 33.2324 219.682 33.2324 218.775V218.764C33.2324 217.857 33.3516 217.074 33.5898 216.414C33.8281 215.754 34.168 215.244 34.6094 214.885C35.0547 214.525 35.5898 214.346 36.2148 214.346C36.8398 214.346 37.375 214.525 37.8203 214.885C38.2656 215.244 38.6074 215.754 38.8457 216.414C39.0879 217.074 39.209 217.857 39.209 218.764V218.775C39.209 219.682 39.0879 220.467 38.8457 221.131C38.6074 221.791 38.2656 222.301 37.8203 222.66C37.375 223.02 36.8398 223.199 36.2148 223.199ZM36.2148 222.279C36.6211 222.279 36.9668 222.137 37.252 221.852C37.541 221.566 37.7617 221.162 37.9141 220.639C38.0703 220.115 38.1484 219.494 38.1484 218.775V218.764C38.1484 218.045 38.0703 217.426 37.9141 216.906C37.7617 216.383 37.541 215.98 37.252 215.699C36.9668 215.414 36.6211 215.271 36.2148 215.271C35.8125 215.271 35.4668 215.414 35.1777 215.699C34.8926 215.98 34.6738 216.383 34.5215 216.906C34.3691 217.426 34.293 218.045 34.293 218.764V218.775C34.293 219.494 34.3691 220.115 34.5215 220.639C34.6738 221.162 34.8926 221.566 35.1777 221.852C35.4668 222.137 35.8125 222.279 36.2148 222.279Z" fill="#8F979E"/>
<line x1="48.5" y1="219" x2="1145.5" y2="219" stroke="#F2F2F3" stroke-linecap="round"/>
<path d="M52.8457 247.199C52.4785 247.199 52.1523 247.146 51.8672 247.041C51.582 246.936 51.3398 246.787 51.1406 246.596C50.9414 246.404 50.7852 246.18 50.6719 245.922C50.5586 245.664 50.4902 245.383 50.4668 245.078L50.4609 244.996H51.5156L51.5215 245.055C51.5449 245.266 51.6074 245.461 51.709 245.641C51.8105 245.816 51.9551 245.959 52.1426 246.068C52.3301 246.174 52.5625 246.227 52.8398 246.227C53.3086 246.227 53.666 246.092 53.9121 245.822C54.1582 245.549 54.2812 245.154 54.2812 244.639V238.545H55.3359V244.65C55.3359 245.182 55.2363 245.639 55.0371 246.021C54.8418 246.4 54.5586 246.691 54.1875 246.895C53.8164 247.098 53.3691 247.199 52.8457 247.199ZM59.0977 247.111C58.6992 247.111 58.3398 247.035 58.0195 246.883C57.7031 246.73 57.4512 246.514 57.2637 246.232C57.0801 245.951 56.9883 245.619 56.9883 245.236V245.225C56.9883 244.85 57.0781 244.529 57.2578 244.264C57.4375 243.994 57.6992 243.783 58.043 243.631C58.3867 243.479 58.8027 243.389 59.291 243.361L61.6113 243.221V244.035L59.4141 244.176C58.9336 244.203 58.582 244.303 58.3594 244.475C58.1406 244.646 58.0312 244.889 58.0312 245.201V245.213C58.0312 245.533 58.1523 245.783 58.3945 245.963C58.6367 246.139 58.9414 246.227 59.3086 246.227C59.6562 246.227 59.9648 246.158 60.2344 246.021C60.5039 245.881 60.7148 245.691 60.8672 245.453C61.0234 245.215 61.1016 244.945 61.1016 244.645V242.676C61.1016 242.285 60.9824 241.988 60.7441 241.785C60.5098 241.578 60.1562 241.475 59.6836 241.475C59.3047 241.475 58.9941 241.543 58.752 241.68C58.5098 241.812 58.3477 242.002 58.2656 242.248L58.2598 242.266H57.2402L57.2461 242.23C57.3008 241.898 57.4375 241.609 57.6562 241.363C57.8789 241.113 58.166 240.92 58.5176 240.783C58.8691 240.643 59.2695 240.572 59.7188 240.572C60.2344 240.572 60.6699 240.656 61.0254 240.824C61.3848 240.992 61.6562 241.234 61.8398 241.551C62.0273 241.863 62.1211 242.238 62.1211 242.676V247H61.1016V246.068H61.0078C60.875 246.291 60.7129 246.48 60.5215 246.637C60.334 246.793 60.1211 246.912 59.8828 246.994C59.6445 247.072 59.3828 247.111 59.0977 247.111ZM63.9844 247V240.684H65.0039V241.633H65.0977C65.2578 241.297 65.4883 241.037 65.7891 240.854C66.0898 240.666 66.4727 240.572 66.9375 240.572C67.6484 240.572 68.1934 240.775 68.5723 241.182C68.9551 241.584 69.1465 242.16 69.1465 242.91V247H68.127V243.156C68.127 242.586 68.0059 242.164 67.7637 241.891C67.5254 241.613 67.1543 241.475 66.6504 241.475C66.3145 241.475 66.0234 241.547 65.7773 241.691C65.5312 241.836 65.3398 242.041 65.2031 242.307C65.0703 242.572 65.0039 242.891 65.0039 243.262V247H63.9844Z" fill="#8F979E"/>
<path d="M148.167 247V238.545H153.3V239.494H149.222V242.4H152.966V243.338H149.222V247H148.167ZM157.484 247.111C156.882 247.111 156.365 246.979 155.931 246.713C155.501 246.447 155.169 246.072 154.935 245.588C154.705 245.1 154.589 244.525 154.589 243.865V243.859C154.589 243.207 154.705 242.635 154.935 242.143C155.169 241.65 155.5 241.266 155.925 240.988C156.351 240.711 156.849 240.572 157.419 240.572C157.994 240.572 158.486 240.705 158.896 240.971C159.31 241.236 159.626 241.607 159.845 242.084C160.068 242.557 160.179 243.107 160.179 243.736V244.135H155.117V243.32H159.658L159.154 244.064V243.66C159.154 243.164 159.08 242.756 158.931 242.436C158.783 242.115 158.578 241.877 158.316 241.721C158.054 241.561 157.753 241.48 157.414 241.48C157.074 241.48 156.769 241.564 156.5 241.732C156.234 241.896 156.023 242.141 155.867 242.465C155.71 242.789 155.632 243.188 155.632 243.66V244.064C155.632 244.514 155.708 244.898 155.861 245.219C156.013 245.535 156.23 245.779 156.511 245.951C156.792 246.119 157.125 246.203 157.507 246.203C157.792 246.203 158.041 246.164 158.251 246.086C158.462 246.008 158.636 245.908 158.773 245.787C158.91 245.666 159.005 245.543 159.06 245.418L159.083 245.365H160.103L160.091 245.412C160.037 245.627 159.939 245.836 159.798 246.039C159.662 246.238 159.484 246.42 159.265 246.584C159.046 246.744 158.787 246.873 158.486 246.971C158.189 247.064 157.855 247.111 157.484 247.111ZM164.902 247.111C164.609 247.111 164.337 247.066 164.087 246.977C163.837 246.887 163.615 246.76 163.419 246.596C163.224 246.428 163.062 246.227 162.933 245.992H162.839V247H161.82V238.176H162.839V241.68H162.933C163.05 241.453 163.207 241.258 163.402 241.094C163.601 240.93 163.828 240.803 164.082 240.713C164.339 240.619 164.613 240.572 164.902 240.572C165.437 240.572 165.902 240.707 166.296 240.977C166.695 241.246 167.003 241.625 167.222 242.113C167.441 242.602 167.55 243.176 167.55 243.836V243.848C167.55 244.504 167.441 245.078 167.222 245.57C167.003 246.059 166.695 246.438 166.296 246.707C165.902 246.977 165.437 247.111 164.902 247.111ZM164.667 246.209C165.054 246.209 165.384 246.115 165.658 245.928C165.931 245.736 166.14 245.465 166.285 245.113C166.433 244.758 166.507 244.336 166.507 243.848V243.836C166.507 243.344 166.433 242.922 166.285 242.57C166.14 242.219 165.931 241.949 165.658 241.762C165.384 241.57 165.054 241.475 164.667 241.475C164.285 241.475 163.955 241.57 163.677 241.762C163.4 241.953 163.187 242.225 163.039 242.576C162.89 242.928 162.816 243.348 162.816 243.836V243.848C162.816 244.332 162.89 244.752 163.039 245.107C163.187 245.459 163.4 245.73 163.677 245.922C163.955 246.113 164.285 246.209 164.667 246.209Z" fill="#8F979E"/>
<path d="M245.511 247V238.545H246.735L249.63 245.6H249.724L252.618 238.545H253.843V247H252.858V240.543H252.343L253.526 238.779L250.122 247H249.231L245.833 238.779L247.011 240.543H246.495V247H245.511ZM257.604 247.111C257.206 247.111 256.847 247.035 256.526 246.883C256.21 246.73 255.958 246.514 255.771 246.232C255.587 245.951 255.495 245.619 255.495 245.236V245.225C255.495 244.85 255.585 244.529 255.765 244.264C255.944 243.994 256.206 243.783 256.55 243.631C256.894 243.479 257.31 243.389 257.798 243.361L260.118 243.221V244.035L257.921 244.176C257.44 244.203 257.089 244.303 256.866 244.475C256.647 244.646 256.538 244.889 256.538 245.201V245.213C256.538 245.533 256.659 245.783 256.901 245.963C257.144 246.139 257.448 246.227 257.815 246.227C258.163 246.227 258.472 246.158 258.741 246.021C259.011 245.881 259.222 245.691 259.374 245.453C259.53 245.215 259.608 244.945 259.608 244.645V242.676C259.608 242.285 259.489 241.988 259.251 241.785C259.017 241.578 258.663 241.475 258.19 241.475C257.812 241.475 257.501 241.543 257.259 241.68C257.017 241.812 256.854 242.002 256.772 242.248L256.767 242.266H255.747L255.753 242.23C255.808 241.898 255.944 241.609 256.163 241.363C256.386 241.113 256.673 240.92 257.024 240.783C257.376 240.643 257.776 240.572 258.226 240.572C258.741 240.572 259.177 240.656 259.532 240.824C259.892 240.992 260.163 241.234 260.347 241.551C260.534 241.863 260.628 242.238 260.628 242.676V247H259.608V246.068H259.515C259.382 246.291 259.22 246.48 259.028 246.637C258.841 246.793 258.628 246.912 258.39 246.994C258.151 247.072 257.89 247.111 257.604 247.111ZM262.491 247V240.684H263.511V241.621H263.604C263.726 241.289 263.931 241.031 264.22 240.848C264.509 240.664 264.866 240.572 265.292 240.572C265.39 240.572 265.485 240.578 265.579 240.59C265.677 240.598 265.751 240.605 265.802 240.613V241.604C265.696 241.584 265.593 241.57 265.491 241.562C265.394 241.551 265.288 241.545 265.175 241.545C264.851 241.545 264.563 241.609 264.313 241.738C264.063 241.867 263.866 242.047 263.722 242.277C263.581 242.508 263.511 242.777 263.511 243.086V247H262.491Z" fill="#8F979E"/>
<path d="M343.323 247L346.44 238.545H347.249V239.91H346.915L344.431 247H343.323ZM344.735 244.58L345.063 243.684H348.884L349.212 244.58H344.735ZM349.493 247L347.009 239.91V238.545H347.483L350.601 247H349.493ZM351.954 249.109V240.684H352.974V241.691H353.067C353.196 241.457 353.358 241.258 353.554 241.094C353.749 240.926 353.972 240.797 354.222 240.707C354.472 240.617 354.743 240.572 355.036 240.572C355.571 240.572 356.036 240.709 356.431 240.982C356.829 241.252 357.138 241.631 357.356 242.119C357.575 242.607 357.685 243.18 357.685 243.836V243.848C357.685 244.508 357.575 245.082 357.356 245.57C357.138 246.059 356.829 246.438 356.431 246.707C356.036 246.977 355.571 247.111 355.036 247.111C354.747 247.111 354.474 247.066 354.216 246.977C353.962 246.883 353.735 246.754 353.536 246.59C353.341 246.426 353.185 246.23 353.067 246.004H352.974V249.109H351.954ZM354.802 246.209C355.188 246.209 355.519 246.115 355.792 245.928C356.065 245.736 356.274 245.465 356.419 245.113C356.567 244.758 356.642 244.336 356.642 243.848V243.836C356.642 243.344 356.567 242.922 356.419 242.57C356.274 242.219 356.065 241.949 355.792 241.762C355.519 241.57 355.188 241.475 354.802 241.475C354.419 241.475 354.089 241.57 353.812 241.762C353.534 241.953 353.321 242.225 353.173 242.576C353.024 242.928 352.95 243.348 352.95 243.836V243.848C352.95 244.332 353.024 244.752 353.173 245.107C353.321 245.459 353.534 245.73 353.812 245.922C354.089 246.113 354.419 246.209 354.802 246.209ZM359.278 247V240.684H360.298V241.621H360.392C360.513 241.289 360.718 241.031 361.007 240.848C361.296 240.664 361.653 240.572 362.079 240.572C362.177 240.572 362.272 240.578 362.366 240.59C362.464 240.598 362.538 240.605 362.589 240.613V241.604C362.483 241.584 362.38 241.57 362.278 241.562C362.181 241.551 362.075 241.545 361.962 241.545C361.638 241.545 361.351 241.609 361.101 241.738C360.851 241.867 360.653 242.047 360.509 242.277C360.368 242.508 360.298 242.777 360.298 243.086V247H359.278Z" fill="#8F979E"/>
<path d="M439.928 247V238.545H441.153L444.047 245.6H444.141L447.036 238.545H448.26V247H447.276V240.543H446.76L447.944 238.779L444.54 247H443.649L440.25 238.779L441.428 240.543H440.913V247H439.928ZM452.022 247.111C451.624 247.111 451.264 247.035 450.944 246.883C450.627 246.73 450.375 246.514 450.188 246.232C450.004 245.951 449.913 245.619 449.913 245.236V245.225C449.913 244.85 450.002 244.529 450.182 244.264C450.362 243.994 450.624 243.783 450.967 243.631C451.311 243.479 451.727 243.389 452.215 243.361L454.536 243.221V244.035L452.338 244.176C451.858 244.203 451.506 244.303 451.284 244.475C451.065 244.646 450.956 244.889 450.956 245.201V245.213C450.956 245.533 451.077 245.783 451.319 245.963C451.561 246.139 451.866 246.227 452.233 246.227C452.581 246.227 452.889 246.158 453.159 246.021C453.428 245.881 453.639 245.691 453.792 245.453C453.948 245.215 454.026 244.945 454.026 244.645V242.676C454.026 242.285 453.907 241.988 453.668 241.785C453.434 241.578 453.081 241.475 452.608 241.475C452.229 241.475 451.918 241.543 451.676 241.68C451.434 241.812 451.272 242.002 451.19 242.248L451.184 242.266H450.165L450.17 242.23C450.225 241.898 450.362 241.609 450.581 241.363C450.803 241.113 451.09 240.92 451.442 240.783C451.793 240.643 452.194 240.572 452.643 240.572C453.159 240.572 453.594 240.656 453.95 240.824C454.309 240.992 454.581 241.234 454.764 241.551C454.952 241.863 455.045 242.238 455.045 242.676V247H454.026V246.068H453.932C453.799 246.291 453.637 246.48 453.446 246.637C453.258 246.793 453.045 246.912 452.807 246.994C452.569 247.072 452.307 247.111 452.022 247.111ZM457.213 249.215C457.147 249.215 457.073 249.211 456.991 249.203C456.909 249.199 456.833 249.191 456.762 249.18V248.342C456.825 248.354 456.893 248.361 456.967 248.365C457.042 248.369 457.114 248.371 457.184 248.371C457.473 248.371 457.709 248.297 457.893 248.148C458.081 248 458.231 247.744 458.344 247.381L458.461 247.006L456.124 240.684H457.213L459.159 246.52L458.754 245.881H459.235L458.831 246.52L460.77 240.684H461.842L459.375 247.387C459.204 247.859 459.022 248.229 458.831 248.494C458.639 248.76 458.415 248.945 458.157 249.051C457.903 249.16 457.588 249.215 457.213 249.215Z" fill="#8F979E"/>
<path d="M540.834 247.199C540.467 247.199 540.141 247.146 539.855 247.041C539.57 246.936 539.328 246.787 539.129 246.596C538.93 246.404 538.773 246.18 538.66 245.922C538.547 245.664 538.479 245.383 538.455 245.078L538.449 244.996H539.504L539.51 245.055C539.533 245.266 539.596 245.461 539.697 245.641C539.799 245.816 539.943 245.959 540.131 246.068C540.318 246.174 540.551 246.227 540.828 246.227C541.297 246.227 541.654 246.092 541.9 245.822C542.146 245.549 542.27 245.154 542.27 244.639V238.545H543.324V244.65C543.324 245.182 543.225 245.639 543.025 246.021C542.83 246.4 542.547 246.691 542.176 246.895C541.805 247.098 541.357 247.199 540.834 247.199ZM547.467 247.111C546.99 247.111 546.59 247.021 546.266 246.842C545.941 246.658 545.697 246.393 545.533 246.045C545.373 245.693 545.293 245.27 545.293 244.773V240.684H546.312V244.527C546.312 245.094 546.422 245.516 546.641 245.793C546.863 246.07 547.227 246.209 547.73 246.209C548.008 246.209 548.252 246.168 548.463 246.086C548.678 246.004 548.857 245.887 549.002 245.734C549.146 245.578 549.254 245.391 549.324 245.172C549.398 244.949 549.436 244.699 549.436 244.422V240.684H550.455V247H549.436V246.057H549.342C549.24 246.279 549.102 246.471 548.926 246.631C548.75 246.787 548.539 246.906 548.293 246.988C548.051 247.07 547.775 247.111 547.467 247.111ZM552.359 247V240.684H553.379V241.633H553.473C553.633 241.297 553.863 241.037 554.164 240.854C554.465 240.666 554.848 240.572 555.312 240.572C556.023 240.572 556.568 240.775 556.947 241.182C557.33 241.584 557.521 242.16 557.521 242.91V247H556.502V243.156C556.502 242.586 556.381 242.164 556.139 241.891C555.9 241.613 555.529 241.475 555.025 241.475C554.689 241.475 554.398 241.547 554.152 241.691C553.906 241.836 553.715 242.041 553.578 242.307C553.445 242.572 553.379 242.891 553.379 243.262V247H552.359Z" fill="#8F979E"/>
<path d="M640.457 247.199C640.09 247.199 639.764 247.146 639.479 247.041C639.193 246.936 638.951 246.787 638.752 246.596C638.553 246.404 638.396 246.18 638.283 245.922C638.17 245.664 638.102 245.383 638.078 245.078L638.072 244.996H639.127L639.133 245.055C639.156 245.266 639.219 245.461 639.32 245.641C639.422 245.816 639.566 245.959 639.754 246.068C639.941 246.174 640.174 246.227 640.451 246.227C640.92 246.227 641.277 246.092 641.523 245.822C641.77 245.549 641.893 245.154 641.893 244.639V238.545H642.947V244.65C642.947 245.182 642.848 245.639 642.648 246.021C642.453 246.4 642.17 246.691 641.799 246.895C641.428 247.098 640.98 247.199 640.457 247.199ZM647.09 247.111C646.613 247.111 646.213 247.021 645.889 246.842C645.564 246.658 645.32 246.393 645.156 246.045C644.996 245.693 644.916 245.27 644.916 244.773V240.684H645.936V244.527C645.936 245.094 646.045 245.516 646.264 245.793C646.486 246.07 646.85 246.209 647.354 246.209C647.631 246.209 647.875 246.168 648.086 246.086C648.301 246.004 648.48 245.887 648.625 245.734C648.77 245.578 648.877 245.391 648.947 245.172C649.021 244.949 649.059 244.699 649.059 244.422V240.684H650.078V247H649.059V246.057H648.965C648.863 246.279 648.725 246.471 648.549 246.631C648.373 246.787 648.162 246.906 647.916 246.988C647.674 247.07 647.398 247.111 647.09 247.111ZM652.041 247V238.176H653.061V247H652.041Z" fill="#8F979E"/>
<path d="M732.802 247L735.919 238.545H736.728V239.91H736.394L733.91 247H732.802ZM734.214 244.58L734.542 243.684H738.363L738.691 244.58H734.214ZM738.972 247L736.488 239.91V238.545H736.962L740.08 247H738.972ZM743.255 247.111C742.779 247.111 742.378 247.021 742.054 246.842C741.73 246.658 741.486 246.393 741.322 246.045C741.162 245.693 741.082 245.27 741.082 244.773V240.684H742.101V244.527C742.101 245.094 742.21 245.516 742.429 245.793C742.652 246.07 743.015 246.209 743.519 246.209C743.796 246.209 744.041 246.168 744.251 246.086C744.466 246.004 744.646 245.887 744.791 245.734C744.935 245.578 745.042 245.391 745.113 245.172C745.187 244.949 745.224 244.699 745.224 244.422V240.684H746.244V247H745.224V246.057H745.13C745.029 246.279 744.89 246.471 744.714 246.631C744.539 246.787 744.328 246.906 744.082 246.988C743.839 247.07 743.564 247.111 743.255 247.111ZM750.75 249.227C750.242 249.227 749.798 249.154 749.419 249.01C749.041 248.869 748.738 248.668 748.511 248.406C748.289 248.148 748.15 247.848 748.095 247.504L748.107 247.498H749.162L749.167 247.504C749.222 247.742 749.386 247.938 749.66 248.09C749.933 248.246 750.296 248.324 750.75 248.324C751.316 248.324 751.757 248.195 752.074 247.938C752.394 247.684 752.554 247.324 752.554 246.859V245.582H752.46C752.328 245.812 752.162 246.01 751.962 246.174C751.763 246.338 751.539 246.463 751.289 246.549C751.039 246.631 750.769 246.672 750.48 246.672C749.937 246.672 749.466 246.543 749.068 246.285C748.673 246.023 748.369 245.664 748.154 245.207C747.939 244.75 747.832 244.227 747.832 243.637V243.625C747.832 243.035 747.939 242.512 748.154 242.055C748.373 241.594 748.681 241.232 749.08 240.971C749.478 240.705 749.953 240.572 750.503 240.572C750.8 240.572 751.074 240.619 751.324 240.713C751.574 240.807 751.794 240.939 751.986 241.111C752.181 241.283 752.343 241.488 752.472 241.727H752.542V240.684H753.562V246.912C753.562 247.381 753.447 247.789 753.216 248.137C752.99 248.484 752.666 248.752 752.244 248.939C751.822 249.131 751.324 249.227 750.75 249.227ZM750.703 245.77C751.093 245.77 751.427 245.68 751.705 245.5C751.986 245.316 752.201 245.064 752.349 244.744C752.501 244.424 752.578 244.055 752.578 243.637V243.625C752.578 243.207 752.501 242.836 752.349 242.512C752.201 242.188 751.986 241.934 751.705 241.75C751.427 241.566 751.093 241.475 750.703 241.475C750.312 241.475 749.98 241.566 749.707 241.75C749.437 241.934 749.23 242.188 749.085 242.512C748.945 242.836 748.875 243.207 748.875 243.625V243.637C748.875 244.055 748.945 244.424 749.085 244.744C749.23 245.064 749.437 245.316 749.707 245.5C749.98 245.68 750.312 245.77 750.703 245.77Z" fill="#8F979E"/>
<path d="M834.024 247.199C833.407 247.199 832.868 247.1 832.407 246.9C831.95 246.697 831.587 246.42 831.317 246.068C831.052 245.713 830.897 245.307 830.854 244.85L830.849 244.785H831.903L831.909 244.85C831.937 245.131 832.044 245.375 832.231 245.582C832.423 245.785 832.677 245.943 832.993 246.057C833.313 246.17 833.677 246.227 834.083 246.227C834.466 246.227 834.806 246.166 835.103 246.045C835.403 245.92 835.64 245.748 835.812 245.529C835.983 245.311 836.069 245.059 836.069 244.773V244.768C836.069 244.416 835.94 244.121 835.683 243.883C835.425 243.641 835.005 243.455 834.423 243.326L833.485 243.121C832.638 242.934 832.021 242.645 831.634 242.254C831.251 241.859 831.06 241.355 831.06 240.742V240.736C831.063 240.268 831.19 239.854 831.44 239.494C831.694 239.135 832.044 238.854 832.489 238.65C832.938 238.447 833.454 238.346 834.036 238.346C834.599 238.346 835.097 238.447 835.53 238.65C835.964 238.85 836.308 239.119 836.562 239.459C836.819 239.799 836.962 240.18 836.989 240.602L836.995 240.684H835.94L835.929 240.607C835.89 240.357 835.788 240.137 835.624 239.945C835.46 239.75 835.241 239.596 834.968 239.482C834.694 239.369 834.374 239.314 834.007 239.318C833.655 239.318 833.339 239.373 833.058 239.482C832.776 239.592 832.552 239.75 832.384 239.957C832.22 240.16 832.138 240.41 832.138 240.707V240.713C832.138 241.049 832.263 241.332 832.513 241.562C832.763 241.793 833.175 241.971 833.749 242.096L834.687 242.307C835.276 242.436 835.751 242.604 836.11 242.811C836.47 243.018 836.731 243.271 836.896 243.572C837.063 243.869 837.147 244.221 837.147 244.627V244.633C837.147 245.16 837.019 245.615 836.761 245.998C836.503 246.381 836.14 246.678 835.671 246.889C835.202 247.096 834.653 247.199 834.024 247.199ZM841.354 247.111C840.753 247.111 840.235 246.979 839.802 246.713C839.372 246.447 839.04 246.072 838.806 245.588C838.575 245.1 838.46 244.525 838.46 243.865V243.859C838.46 243.207 838.575 242.635 838.806 242.143C839.04 241.65 839.37 241.266 839.796 240.988C840.222 240.711 840.72 240.572 841.29 240.572C841.864 240.572 842.356 240.705 842.767 240.971C843.181 241.236 843.497 241.607 843.716 242.084C843.938 242.557 844.05 243.107 844.05 243.736V244.135H838.987V243.32H843.528L843.024 244.064V243.66C843.024 243.164 842.95 242.756 842.802 242.436C842.653 242.115 842.448 241.877 842.187 241.721C841.925 241.561 841.624 241.48 841.284 241.48C840.944 241.48 840.64 241.564 840.37 241.732C840.104 241.896 839.894 242.141 839.737 242.465C839.581 242.789 839.503 243.188 839.503 243.66V244.064C839.503 244.514 839.579 244.898 839.731 245.219C839.884 245.535 840.101 245.779 840.382 245.951C840.663 246.119 840.995 246.203 841.378 246.203C841.663 246.203 841.911 246.164 842.122 246.086C842.333 246.008 842.507 245.908 842.644 245.787C842.78 245.666 842.876 245.543 842.931 245.418L842.954 245.365H843.974L843.962 245.412C843.907 245.627 843.81 245.836 843.669 246.039C843.532 246.238 843.354 246.42 843.136 246.584C842.917 246.744 842.657 246.873 842.356 246.971C842.06 247.064 841.726 247.111 841.354 247.111ZM845.632 249.109V240.684H846.651V241.691H846.745C846.874 241.457 847.036 241.258 847.231 241.094C847.427 240.926 847.649 240.797 847.899 240.707C848.149 240.617 848.421 240.572 848.714 240.572C849.249 240.572 849.714 240.709 850.108 240.982C850.507 241.252 850.815 241.631 851.034 242.119C851.253 242.607 851.362 243.18 851.362 243.836V243.848C851.362 244.508 851.253 245.082 851.034 245.57C850.815 246.059 850.507 246.438 850.108 246.707C849.714 246.977 849.249 247.111 848.714 247.111C848.425 247.111 848.151 247.066 847.894 246.977C847.64 246.883 847.413 246.754 847.214 246.59C847.019 246.426 846.862 246.23 846.745 246.004H846.651V249.109H845.632ZM848.479 246.209C848.866 246.209 849.196 246.115 849.47 245.928C849.743 245.736 849.952 245.465 850.097 245.113C850.245 244.758 850.319 244.336 850.319 243.848V243.836C850.319 243.344 850.245 242.922 850.097 242.57C849.952 242.219 849.743 241.949 849.47 241.762C849.196 241.57 848.866 241.475 848.479 241.475C848.097 241.475 847.767 241.57 847.489 241.762C847.212 241.953 846.999 242.225 846.851 242.576C846.702 242.928 846.628 243.348 846.628 243.836V243.848C846.628 244.332 846.702 244.752 846.851 245.107C846.999 245.459 847.212 245.73 847.489 245.922C847.767 246.113 848.097 246.209 848.479 246.209Z" fill="#8F979E"/>
<path d="M933.131 247.199C932.323 247.199 931.629 247.02 931.051 246.66C930.473 246.297 930.028 245.783 929.715 245.119C929.407 244.455 929.252 243.674 929.252 242.775V242.764C929.252 241.857 929.409 241.074 929.721 240.414C930.038 239.754 930.485 239.244 931.063 238.885C931.645 238.525 932.334 238.346 933.131 238.346C933.932 238.346 934.622 238.525 935.2 238.885C935.782 239.244 936.229 239.756 936.542 240.42C936.854 241.08 937.01 241.861 937.01 242.764V242.775C937.01 243.674 936.854 244.455 936.542 245.119C936.233 245.779 935.788 246.291 935.206 246.654C934.627 247.018 933.936 247.199 933.131 247.199ZM933.131 246.227C933.709 246.227 934.208 246.084 934.625 245.799C935.043 245.514 935.366 245.113 935.592 244.598C935.819 244.078 935.932 243.471 935.932 242.775V242.764C935.932 242.061 935.819 241.451 935.592 240.936C935.366 240.42 935.043 240.021 934.625 239.74C934.208 239.459 933.709 239.318 933.131 239.318C932.557 239.318 932.061 239.459 931.643 239.74C931.225 240.021 930.901 240.42 930.67 240.936C930.444 241.451 930.331 242.061 930.331 242.764V242.775C930.331 243.471 930.442 244.078 930.665 244.598C930.887 245.113 931.208 245.514 931.625 245.799C932.043 246.084 932.545 246.227 933.131 246.227ZM941.293 247.111C940.704 247.111 940.192 246.977 939.758 246.707C939.325 246.438 938.989 246.057 938.75 245.564C938.512 245.072 938.393 244.492 938.393 243.824V243.812C938.393 243.156 938.51 242.586 938.745 242.102C938.983 241.617 939.319 241.242 939.752 240.977C940.186 240.707 940.698 240.572 941.288 240.572C941.799 240.572 942.241 240.662 942.612 240.842C942.983 241.021 943.28 241.264 943.502 241.568C943.725 241.869 943.868 242.207 943.93 242.582L943.936 242.617H942.922L942.917 242.6C942.838 242.287 942.661 242.021 942.383 241.803C942.106 241.584 941.741 241.475 941.288 241.475C940.909 241.475 940.581 241.57 940.303 241.762C940.026 241.953 939.811 242.225 939.659 242.576C939.51 242.924 939.436 243.336 939.436 243.812V243.824C939.436 244.309 939.512 244.73 939.665 245.09C939.817 245.445 940.032 245.721 940.309 245.916C940.586 246.111 940.913 246.209 941.288 246.209C941.713 246.209 942.061 246.117 942.331 245.934C942.6 245.75 942.793 245.482 942.911 245.131L942.922 245.096L943.93 245.09L943.918 245.154C943.833 245.533 943.68 245.871 943.461 246.168C943.243 246.461 942.954 246.691 942.594 246.859C942.235 247.027 941.801 247.111 941.293 247.111ZM947.786 247.047C947.137 247.047 946.667 246.916 946.374 246.654C946.084 246.393 945.94 245.961 945.94 245.359V241.527H944.944V240.684H945.94V239.049H946.995V240.684H948.377V241.527H946.995V245.102C946.995 245.473 947.065 245.74 947.206 245.904C947.346 246.064 947.581 246.145 947.909 246.145C947.999 246.145 948.075 246.143 948.137 246.139C948.204 246.135 948.284 246.129 948.377 246.121V246.988C948.28 247.004 948.182 247.018 948.084 247.029C947.987 247.041 947.887 247.047 947.786 247.047Z" fill="#8F979E"/>
<path d="M1026.31 247V238.545H1027.33L1032.18 245.494L1031.48 245.125H1032.02V238.545H1033.06V247H1032.03L1027.19 240.074L1027.89 240.443H1027.35V247H1026.31ZM1037.68 247.111C1037.08 247.111 1036.57 246.98 1036.13 246.719C1035.7 246.453 1035.36 246.076 1035.12 245.588C1034.89 245.1 1034.77 244.52 1034.77 243.848V243.836C1034.77 243.16 1034.89 242.578 1035.12 242.09C1035.36 241.602 1035.7 241.227 1036.13 240.965C1036.57 240.703 1037.08 240.572 1037.68 240.572C1038.28 240.572 1038.8 240.703 1039.23 240.965C1039.67 241.227 1040 241.602 1040.24 242.09C1040.47 242.578 1040.59 243.16 1040.59 243.836V243.848C1040.59 244.52 1040.47 245.1 1040.24 245.588C1040 246.076 1039.67 246.453 1039.23 246.719C1038.8 246.98 1038.28 247.111 1037.68 247.111ZM1037.68 246.209C1038.08 246.209 1038.42 246.115 1038.7 245.928C1038.97 245.74 1039.18 245.471 1039.33 245.119C1039.48 244.768 1039.55 244.344 1039.55 243.848V243.836C1039.55 243.336 1039.48 242.91 1039.33 242.559C1039.18 242.207 1038.97 241.939 1038.7 241.756C1038.42 241.568 1038.08 241.475 1037.68 241.475C1037.28 241.475 1036.95 241.568 1036.67 241.756C1036.39 241.939 1036.18 242.207 1036.03 242.559C1035.88 242.91 1035.81 243.336 1035.81 243.836V243.848C1035.81 244.344 1035.88 244.768 1036.03 245.119C1036.18 245.471 1036.39 245.74 1036.67 245.928C1036.95 246.115 1037.28 246.209 1037.68 246.209ZM1043.73 247L1041.39 240.684H1042.47L1044.2 245.887H1044.29L1046.02 240.684H1047.1L1044.76 247H1043.73Z" fill="#8F979E"/>
<path d="M1123.93 247V238.545H1126.83C1127.67 238.545 1128.38 238.713 1128.98 239.049C1129.58 239.381 1130.03 239.861 1130.35 240.49C1130.67 241.119 1130.82 241.877 1130.82 242.764V242.775C1130.82 243.662 1130.67 244.422 1130.35 245.055C1130.03 245.684 1129.58 246.166 1128.98 246.502C1128.39 246.834 1127.67 247 1126.83 247H1123.93ZM1124.99 246.051H1126.76C1127.39 246.051 1127.93 245.922 1128.38 245.664C1128.82 245.406 1129.16 245.033 1129.39 244.545C1129.63 244.057 1129.75 243.471 1129.75 242.787V242.775C1129.75 242.088 1129.63 241.5 1129.39 241.012C1129.15 240.52 1128.81 240.145 1128.37 239.887C1127.92 239.625 1127.39 239.494 1126.76 239.494H1124.99V246.051ZM1135.1 247.111C1134.5 247.111 1133.98 246.979 1133.55 246.713C1133.12 246.447 1132.79 246.072 1132.55 245.588C1132.32 245.1 1132.21 244.525 1132.21 243.865V243.859C1132.21 243.207 1132.32 242.635 1132.55 242.143C1132.79 241.65 1133.12 241.266 1133.54 240.988C1133.97 240.711 1134.47 240.572 1135.04 240.572C1135.61 240.572 1136.1 240.705 1136.51 240.971C1136.93 241.236 1137.24 241.607 1137.46 242.084C1137.69 242.557 1137.8 243.107 1137.8 243.736V244.135H1132.73V243.32H1137.28L1136.77 244.064V243.66C1136.77 243.164 1136.7 242.756 1136.55 242.436C1136.4 242.115 1136.2 241.877 1135.93 241.721C1135.67 241.561 1135.37 241.48 1135.03 241.48C1134.69 241.48 1134.39 241.564 1134.12 241.732C1133.85 241.896 1133.64 242.141 1133.48 242.465C1133.33 242.789 1133.25 243.188 1133.25 243.66V244.064C1133.25 244.514 1133.33 244.898 1133.48 245.219C1133.63 245.535 1133.85 245.779 1134.13 245.951C1134.41 246.119 1134.74 246.203 1135.12 246.203C1135.41 246.203 1135.66 246.164 1135.87 246.086C1136.08 246.008 1136.25 245.908 1136.39 245.787C1136.53 245.666 1136.62 245.543 1136.68 245.418L1136.7 245.365H1137.72L1137.71 245.412C1137.65 245.627 1137.56 245.836 1137.42 246.039C1137.28 246.238 1137.1 246.42 1136.88 246.584C1136.66 246.744 1136.4 246.873 1136.1 246.971C1135.81 247.064 1135.47 247.111 1135.1 247.111ZM1141.96 247.111C1141.37 247.111 1140.86 246.977 1140.43 246.707C1139.99 246.438 1139.66 246.057 1139.42 245.564C1139.18 245.072 1139.06 244.492 1139.06 243.824V243.812C1139.06 243.156 1139.18 242.586 1139.41 242.102C1139.65 241.617 1139.99 241.242 1140.42 240.977C1140.86 240.707 1141.37 240.572 1141.96 240.572C1142.47 240.572 1142.91 240.662 1143.28 240.842C1143.65 241.021 1143.95 241.264 1144.17 241.568C1144.39 241.869 1144.54 242.207 1144.6 242.582L1144.61 242.617H1143.59L1143.59 242.6C1143.51 242.287 1143.33 242.021 1143.05 241.803C1142.78 241.584 1142.41 241.475 1141.96 241.475C1141.58 241.475 1141.25 241.57 1140.97 241.762C1140.7 241.953 1140.48 242.225 1140.33 242.576C1140.18 242.924 1140.11 243.336 1140.11 243.812V243.824C1140.11 244.309 1140.18 244.73 1140.33 245.09C1140.49 245.445 1140.7 245.721 1140.98 245.916C1141.26 246.111 1141.58 246.209 1141.96 246.209C1142.38 246.209 1142.73 246.117 1143 245.934C1143.27 245.75 1143.46 245.482 1143.58 245.131L1143.59 245.096L1144.6 245.09L1144.59 245.154C1144.5 245.533 1144.35 245.871 1144.13 246.168C1143.91 246.461 1143.62 246.691 1143.26 246.859C1142.9 247.027 1142.47 247.111 1141.96 247.111Z" fill="#8F979E"/>
<g clip-path="url(#clip0_4908_18468)">
<path opacity="0.09" d="M1145 216H50V157.719C50.7474 157.719 51.5074 157.581 52.2432 157.284L59.8467 154.22C67.5135 151.13 82.0424 145.304 96.373 143.502C103.459 142.611 110.655 142.689 118.144 143.056C125.431 143.413 133.442 144.079 141.139 144.223C156.888 144.516 172.771 142.716 188.714 137.584C196.555 135.06 204.495 131.688 211.878 128.792C219.431 125.83 226.594 123.282 233.609 121.962C247.791 119.294 261.83 121.465 277.641 122.746C293.557 124.036 307.843 124.093 323.03 125.929C337.302 127.654 354.468 131.611 371.38 125.615C379.807 122.627 388.01 117.26 395.542 112.181C403.342 106.92 410.457 101.947 417.504 98.7109C431.131 92.4528 444.928 92.6435 459.525 95.3652C463.188 96.0482 466.878 96.8855 470.682 97.7637C474.448 98.6332 478.348 99.5484 482.254 100.334C490.064 101.905 498.307 103.049 506.732 102.369C515.087 101.695 523.288 99.2402 530.84 96.8984C538.616 94.487 545.687 92.204 552.694 91.2383C559.597 90.2869 566.648 90.6042 574.077 91.3643C581.134 92.0863 589.462 93.3429 597.042 93.9229C612.535 95.1081 628.602 93.8498 643.148 93.792C650.615 93.7623 658.103 94.0249 665.724 94.2969C673.306 94.5675 681.025 94.8471 688.762 94.832C704.165 94.8021 719.691 93.5944 734.681 92.8311C749.809 92.0606 764.919 91.7041 780.185 91.2344C795.401 90.7661 810.785 90.1853 826.211 88.6729C833.92 87.9169 841.611 86.9305 849.208 85.9463C856.833 84.9584 864.356 83.9733 871.869 83.1934C886.642 81.6598 902.921 80.8569 919.112 74.3496C927.055 71.1574 935.205 66.4716 942.424 62.7715C949.966 58.9055 956.8 55.9284 963.329 55.0176C969.787 54.1168 976.492 55.169 983.941 56.918C991.041 58.5848 999.352 61.0562 1007.36 62.0811C1023.54 64.1505 1040.06 60.599 1054.45 58.9111C1061.87 58.0407 1069.33 57.5454 1076.93 57.083C1084.48 56.6235 1092.21 56.1948 1099.95 55.4521C1115.42 53.9665 1130.85 51.234 1138.44 49.8896L1145 48.7295V216Z" fill="url(#paint0_linear_4908_18468)"/>
<path d="M50 154.719L57.6042 151.654C65.2083 148.59 80.4167 142.46 95.625 140.548C110.833 138.636 126.042 140.941 141.25 141.224C156.458 141.507 171.667 139.768 186.875 134.873C202.083 129.977 217.292 121.926 232.5 119.065C247.708 116.204 262.917 118.533 278.125 119.766C293.333 120.998 308.542 121.134 323.75 122.972C338.958 124.81 354.167 128.352 369.375 122.96C384.583 117.568 399.792 103.243 415 96.2585C430.208 89.2742 445.417 89.6307 460.625 92.4664C475.833 95.302 491.042 100.617 506.25 99.3887C521.458 98.1608 536.667 90.3903 551.875 88.2943C567.083 86.1982 582.292 89.7765 597.5 90.94C612.708 92.1035 627.917 90.8521 643.125 90.7916C658.333 90.7312 673.542 91.8617 688.75 91.8322C703.958 91.8026 719.167 90.613 734.375 89.8385C749.583 89.064 764.792 88.7047 780 88.2367C795.208 87.7687 810.417 87.192 825.625 85.7009C840.833 84.2097 856.042 81.804 871.25 80.2253C886.458 78.6466 901.667 77.8947 916.875 71.7823C932.083 65.6699 947.292 54.1968 962.5 52.0752C977.708 49.9537 992.917 57.1835 1008.12 59.129C1023.33 61.0744 1038.54 57.7354 1053.75 55.9517C1068.96 54.1679 1084.17 53.9394 1099.37 52.4792C1114.58 51.0191 1129.79 48.3273 1137.4 46.9814L1145 45.6355" stroke="#69BBFC" stroke-width="2" stroke-linecap="round" stroke-linejoin="round" stroke-dasharray="7 7"/>
<path d="M50 155L57.5952 151.939C65.1905 148.877 80.381 142.754 95.5714 140.844C110.762 138.934 125.952 141.236 141.143 141.519C156.333 141.802 171.524 140.065 186.714 135.174C201.905 130.284 217.095 122.241 232.286 119.383C247.476 116.525 262.667 118.852 277.857 120.083C293.048 121.315 308.238 121.45 323.429 123.286C338.619 125.123 353.81 128.66 369 123.274C384.19 117.888 399.381 103.578 414.571 96.6008C429.762 89.6238 444.952 89.98 460.143 92.8127C475.333 95.6453 490.524 100.954 505.714 99.7278C520.905 98.5012 536.095 90.7388 551.286 88.645C566.476 86.5511 581.667 90.1257 596.857 91.2879C612.048 92.4502 627.238 91.2001 642.429 91.1397C657.619 91.0793 672.81 92.2087 688 92.1792" stroke="#015DB1" stroke-width="2" stroke-linecap="round" stroke-linejoin="round"/>
</g>
<defs>
<linearGradient id="paint0_linear_4908_18468" x1="596.5" y1="81.0002" x2="597.5" y2="216" gradientUnits="userSpaceOnUse">
<stop stop-color="#3C97E7"/>
<stop offset="1" stop-color="white"/>
</linearGradient>
<clipPath id="clip0_4908_18468">
<rect width="1095" height="187" fill="white" transform="translate(50 32)"/>
</clipPath>
</defs>
</svg>
