<svg width="537" height="184" viewBox="0 0 537 184" fill="none" xmlns="http://www.w3.org/2000/svg">
<g clip-path="url(#clip0_4896_9967)">
<path d="M0.898438 10V2.9541H5.26367V3.74512H1.77734V6.00586H5.08301V6.78711H1.77734V9.20898H5.26367V10H0.898438ZM8.19336 10.0928C7.86133 10.0928 7.56185 10.0293 7.29492 9.90234C7.03125 9.77539 6.82129 9.59473 6.66504 9.36035C6.51204 9.12598 6.43555 8.84928 6.43555 8.53027V8.52051C6.43555 8.20801 6.51042 7.94108 6.66016 7.71973C6.8099 7.49512 7.02799 7.31934 7.31445 7.19238C7.60091 7.06543 7.94759 6.99056 8.35449 6.96777L10.2881 6.85059V7.5293L8.45703 7.64648C8.05664 7.66927 7.76367 7.75228 7.57812 7.89551C7.39583 8.03874 7.30469 8.24056 7.30469 8.50098V8.51074C7.30469 8.77767 7.4056 8.986 7.60742 9.13574C7.80924 9.28223 8.06315 9.35547 8.36914 9.35547C8.65885 9.35547 8.91602 9.2985 9.14062 9.18457C9.36523 9.06738 9.54102 8.90951 9.66797 8.71094C9.79818 8.51237 9.86328 8.28776 9.86328 8.03711V6.39648C9.86328 6.07096 9.764 5.82357 9.56543 5.6543C9.37012 5.48177 9.07552 5.39551 8.68164 5.39551C8.36589 5.39551 8.1071 5.45247 7.90527 5.56641C7.70345 5.67708 7.56836 5.83496 7.5 6.04004L7.49512 6.05469H6.64551L6.65039 6.02539C6.69596 5.7487 6.8099 5.50781 6.99219 5.30273C7.17773 5.0944 7.41699 4.93327 7.70996 4.81934C8.00293 4.70215 8.33659 4.64355 8.71094 4.64355C9.14062 4.64355 9.50358 4.71354 9.7998 4.85352C10.0993 4.99349 10.3255 5.19531 10.4785 5.45898C10.6348 5.7194 10.7129 6.0319 10.7129 6.39648V10H9.86328V9.22363H9.78516C9.67448 9.40918 9.53939 9.56706 9.37988 9.69727C9.22363 9.82747 9.04622 9.92676 8.84766 9.99512C8.64909 10.0602 8.43099 10.0928 8.19336 10.0928ZM14.0723 10.0928C13.6816 10.0928 13.3366 10.0342 13.0371 9.91699C12.7376 9.79655 12.4967 9.62891 12.3145 9.41406C12.1354 9.19922 12.0296 8.94694 11.9971 8.65723H12.8662C12.9378 8.87533 13.0778 9.05111 13.2861 9.18457C13.4945 9.31803 13.7663 9.38477 14.1016 9.38477C14.3392 9.38477 14.5475 9.35059 14.7266 9.28223C14.9089 9.21061 15.0521 9.11458 15.1562 8.99414C15.2604 8.87044 15.3125 8.72884 15.3125 8.56934V8.55957C15.3125 8.38053 15.2409 8.22917 15.0977 8.10547C14.9544 7.97852 14.7201 7.87598 14.3945 7.79785L13.5791 7.60254C13.2503 7.52441 12.9801 7.4235 12.7686 7.2998C12.557 7.17285 12.4007 7.01823 12.2998 6.83594C12.1989 6.65039 12.1484 6.43229 12.1484 6.18164V6.17676C12.1484 5.88379 12.2331 5.62174 12.4023 5.39062C12.5749 5.15951 12.8092 4.97721 13.1055 4.84375C13.4017 4.71029 13.7354 4.64355 14.1064 4.64355C14.4743 4.64355 14.7998 4.70215 15.083 4.81934C15.3695 4.93327 15.599 5.09603 15.7715 5.30762C15.9473 5.51921 16.0547 5.76823 16.0938 6.05469H15.2588C15.2035 5.84635 15.0765 5.67708 14.8779 5.54688C14.6794 5.41667 14.4206 5.35156 14.1016 5.35156C13.8932 5.35156 13.7077 5.38574 13.5449 5.4541C13.3822 5.51921 13.2536 5.61035 13.1592 5.72754C13.0648 5.84473 13.0176 5.98145 13.0176 6.1377V6.14746C13.0176 6.26465 13.0485 6.36882 13.1104 6.45996C13.1722 6.55111 13.2682 6.63086 13.3984 6.69922C13.5286 6.76758 13.6963 6.8278 13.9014 6.87988L14.7119 7.0752C15.2067 7.19564 15.5745 7.36816 15.8154 7.59277C16.0596 7.81738 16.1816 8.11849 16.1816 8.49609V8.50586C16.1816 8.81836 16.0889 9.09505 15.9033 9.33594C15.7178 9.57357 15.4655 9.75911 15.1465 9.89258C14.8307 10.026 14.4727 10.0928 14.0723 10.0928ZM19.3213 10.0391C18.7809 10.0391 18.3887 9.93001 18.1445 9.71191C17.9036 9.49382 17.7832 9.13411 17.7832 8.63281V5.43945H16.9531V4.73633H17.7832V3.37402H18.6621V4.73633H19.8145V5.43945H18.6621V8.41797C18.6621 8.72721 18.7207 8.9502 18.8379 9.08691C18.9551 9.22038 19.1504 9.28711 19.4238 9.28711C19.4987 9.28711 19.5622 9.28548 19.6143 9.28223C19.6696 9.27897 19.7363 9.27409 19.8145 9.26758V9.99023C19.7331 10.0033 19.6517 10.0146 19.5703 10.0244C19.4889 10.0342 19.4059 10.0391 19.3213 10.0391ZM23.1641 10.0928C22.6628 10.0928 22.2314 9.9821 21.8701 9.76074C21.512 9.53939 21.2354 9.22689 21.04 8.82324C20.848 8.41634 20.752 7.93783 20.752 7.3877V7.38281C20.752 6.83919 20.848 6.3623 21.04 5.95215C21.2354 5.54199 21.5104 5.22135 21.8652 4.99023C22.2201 4.75911 22.6351 4.64355 23.1104 4.64355C23.5889 4.64355 23.999 4.75423 24.3408 4.97559C24.6859 5.19694 24.9495 5.50618 25.1318 5.90332C25.3174 6.2972 25.4102 6.75618 25.4102 7.28027V7.6123H21.1914V6.93359H24.9756L24.5557 7.55371V7.2168C24.5557 6.80339 24.4938 6.46322 24.3701 6.19629C24.2464 5.92936 24.0755 5.73079 23.8574 5.60059C23.6393 5.46712 23.3887 5.40039 23.1055 5.40039C22.8223 5.40039 22.5684 5.47038 22.3438 5.61035C22.1224 5.74707 21.9466 5.95052 21.8164 6.2207C21.6862 6.49089 21.6211 6.82292 21.6211 7.2168V7.55371C21.6211 7.92806 21.6846 8.2487 21.8115 8.51562C21.9385 8.7793 22.1191 8.98275 22.3535 9.12598C22.5879 9.26595 22.8646 9.33594 23.1836 9.33594C23.4212 9.33594 23.6279 9.30339 23.8037 9.23828C23.9795 9.17318 24.1243 9.09017 24.2383 8.98926C24.3522 8.88835 24.432 8.78581 24.4775 8.68164L24.4971 8.6377H25.3467L25.3369 8.67676C25.2913 8.85579 25.21 9.02995 25.0928 9.19922C24.9788 9.36523 24.8307 9.5166 24.6484 9.65332C24.4661 9.78678 24.2497 9.89421 23.999 9.97559C23.7516 10.0537 23.4733 10.0928 23.1641 10.0928ZM26.7285 10V4.73633H27.5781V5.51758H27.6562C27.7572 5.24089 27.9281 5.02604 28.1689 4.87305C28.4098 4.72005 28.7077 4.64355 29.0625 4.64355C29.1439 4.64355 29.2236 4.64844 29.3018 4.6582C29.3831 4.66471 29.445 4.67122 29.4873 4.67773V5.50293C29.3994 5.48665 29.3132 5.47526 29.2285 5.46875C29.1471 5.45898 29.0592 5.4541 28.9648 5.4541C28.6947 5.4541 28.4554 5.50781 28.2471 5.61523C28.0387 5.72266 27.8743 5.8724 27.7539 6.06445C27.6367 6.25651 27.5781 6.48112 27.5781 6.73828V10H26.7285ZM30.6348 10V4.73633H31.4844V5.52734H31.5625C31.696 5.2474 31.888 5.03092 32.1387 4.87793C32.3893 4.72168 32.7083 4.64355 33.0957 4.64355C33.6882 4.64355 34.1423 4.81283 34.458 5.15137C34.777 5.48665 34.9365 5.9668 34.9365 6.5918V10H34.0869V6.79688C34.0869 6.32161 33.986 5.97005 33.7842 5.74219C33.5856 5.51107 33.2764 5.39551 32.8564 5.39551C32.5765 5.39551 32.334 5.45573 32.1289 5.57617C31.9238 5.69661 31.7643 5.86751 31.6504 6.08887C31.5397 6.31022 31.4844 6.57552 31.4844 6.88477V10H30.6348ZM2.94434 22.0928C2.4528 22.0928 2.02637 21.9805 1.66504 21.7559C1.30371 21.5312 1.02376 21.2139 0.825195 20.8037C0.626628 20.3936 0.527344 19.9102 0.527344 19.3535V19.3438C0.527344 18.7969 0.625 18.3216 0.820312 17.918C1.01888 17.5143 1.29883 17.2018 1.66016 16.9805C2.02148 16.7559 2.44792 16.6436 2.93945 16.6436C3.36589 16.6436 3.73372 16.7184 4.04297 16.8682C4.35221 17.0179 4.59961 17.2197 4.78516 17.4736C4.9707 17.7243 5.08952 18.0059 5.1416 18.3184L5.14648 18.3477H4.30176L4.29688 18.333C4.23177 18.0726 4.08366 17.8512 3.85254 17.6689C3.62142 17.4867 3.31706 17.3955 2.93945 17.3955C2.6237 17.3955 2.35026 17.4753 2.11914 17.6348C1.88802 17.7943 1.70898 18.0205 1.58203 18.3135C1.45833 18.6032 1.39648 18.9466 1.39648 19.3438V19.3535C1.39648 19.7572 1.45996 20.1087 1.58691 20.4082C1.71387 20.7044 1.8929 20.9339 2.12402 21.0967C2.35514 21.2594 2.62695 21.3408 2.93945 21.3408C3.29427 21.3408 3.58398 21.2643 3.80859 21.1113C4.0332 20.9583 4.19434 20.7354 4.29199 20.4424L4.30176 20.4131L5.1416 20.4082L5.13184 20.4619C5.06022 20.7777 4.93327 21.0592 4.75098 21.3066C4.56868 21.5508 4.3278 21.7428 4.02832 21.8828C3.72884 22.0228 3.36751 22.0928 2.94434 22.0928ZM6.43555 22V14.6465H7.28516V17.5273H7.36328C7.49674 17.2474 7.6888 17.0309 7.93945 16.8779C8.1901 16.7217 8.50911 16.6436 8.89648 16.6436C9.29036 16.6436 9.62402 16.7201 9.89746 16.873C10.1709 17.0228 10.3792 17.2425 10.5225 17.5322C10.6657 17.8219 10.7373 18.1751 10.7373 18.5918V22H9.8877V18.7969C9.8877 18.3216 9.78678 17.9701 9.58496 17.7422C9.38639 17.5111 9.07715 17.3955 8.65723 17.3955C8.37728 17.3955 8.13477 17.4557 7.92969 17.5762C7.72461 17.6966 7.5651 17.8675 7.45117 18.0889C7.34049 18.3102 7.28516 18.5755 7.28516 18.8848V22H6.43555ZM13.7207 22.0928C13.3887 22.0928 13.0892 22.0293 12.8223 21.9023C12.5586 21.7754 12.3486 21.5947 12.1924 21.3604C12.0394 21.126 11.9629 20.8493 11.9629 20.5303V20.5205C11.9629 20.208 12.0378 19.9411 12.1875 19.7197C12.3372 19.4951 12.5553 19.3193 12.8418 19.1924C13.1283 19.0654 13.4749 18.9906 13.8818 18.9678L15.8154 18.8506V19.5293L13.9844 19.6465C13.584 19.6693 13.291 19.7523 13.1055 19.8955C12.9232 20.0387 12.832 20.2406 12.832 20.501V20.5107C12.832 20.7777 12.9329 20.986 13.1348 21.1357C13.3366 21.2822 13.5905 21.3555 13.8965 21.3555C14.1862 21.3555 14.4434 21.2985 14.668 21.1846C14.8926 21.0674 15.0684 20.9095 15.1953 20.7109C15.3255 20.5124 15.3906 20.2878 15.3906 20.0371V18.3965C15.3906 18.071 15.2913 17.8236 15.0928 17.6543C14.8975 17.4818 14.6029 17.3955 14.209 17.3955C13.8932 17.3955 13.6344 17.4525 13.4326 17.5664C13.2308 17.6771 13.0957 17.835 13.0273 18.04L13.0225 18.0547H12.1729L12.1777 18.0254C12.2233 17.7487 12.3372 17.5078 12.5195 17.3027C12.7051 17.0944 12.9443 16.9333 13.2373 16.8193C13.5303 16.7021 13.8639 16.6436 14.2383 16.6436C14.668 16.6436 15.0309 16.7135 15.3271 16.8535C15.6266 16.9935 15.8529 17.1953 16.0059 17.459C16.1621 17.7194 16.2402 18.0319 16.2402 18.3965V22H15.3906V21.2236H15.3125C15.2018 21.4092 15.0667 21.5671 14.9072 21.6973C14.751 21.8275 14.5736 21.9268 14.375 21.9951C14.1764 22.0602 13.9583 22.0928 13.7207 22.0928ZM17.793 23.7578V16.7363H18.6426V17.5762H18.7207C18.8281 17.3809 18.9632 17.2148 19.126 17.0781C19.2887 16.9382 19.4743 16.8307 19.6826 16.7559C19.891 16.681 20.1172 16.6436 20.3613 16.6436C20.8073 16.6436 21.1947 16.7575 21.5234 16.9854C21.8555 17.21 22.1126 17.5257 22.2949 17.9326C22.4772 18.3395 22.5684 18.8164 22.5684 19.3633V19.373C22.5684 19.9232 22.4772 20.4017 22.2949 20.8086C22.1126 21.2155 21.8555 21.5312 21.5234 21.7559C21.1947 21.9805 20.8073 22.0928 20.3613 22.0928C20.1204 22.0928 19.8926 22.0553 19.6777 21.9805C19.4661 21.9023 19.2773 21.7949 19.1113 21.6582C18.9486 21.5215 18.8184 21.3587 18.7207 21.1699H18.6426V23.7578H17.793ZM20.166 21.3408C20.4883 21.3408 20.7633 21.2627 20.9912 21.1064C21.2191 20.9469 21.3932 20.7207 21.5137 20.4277C21.6374 20.1315 21.6992 19.7799 21.6992 19.373V19.3633C21.6992 18.9531 21.6374 18.6016 21.5137 18.3086C21.3932 18.0156 21.2191 17.791 20.9912 17.6348C20.7633 17.4753 20.4883 17.3955 20.166 17.3955C19.847 17.3955 19.5719 17.4753 19.3408 17.6348C19.1097 17.7943 18.9323 18.0205 18.8086 18.3135C18.6849 18.6064 18.623 18.9564 18.623 19.3633V19.373C18.623 19.7767 18.6849 20.1266 18.8086 20.4229C18.9323 20.7158 19.1097 20.9421 19.3408 21.1016C19.5719 21.2611 19.847 21.3408 20.166 21.3408ZM25.7666 22.0391C25.2262 22.0391 24.834 21.93 24.5898 21.7119C24.349 21.4938 24.2285 21.1341 24.2285 20.6328V17.4395H23.3984V16.7363H24.2285V15.374H25.1074V16.7363H26.2598V17.4395H25.1074V20.418C25.1074 20.7272 25.166 20.9502 25.2832 21.0869C25.4004 21.2204 25.5957 21.2871 25.8691 21.2871C25.944 21.2871 26.0075 21.2855 26.0596 21.2822C26.1149 21.279 26.1816 21.2741 26.2598 21.2676V21.9902C26.1784 22.0033 26.097 22.0146 26.0156 22.0244C25.9342 22.0342 25.8512 22.0391 25.7666 22.0391ZM29.6094 22.0928C29.1081 22.0928 28.6768 21.9821 28.3154 21.7607C27.9574 21.5394 27.6807 21.2269 27.4854 20.8232C27.2933 20.4163 27.1973 19.9378 27.1973 19.3877V19.3828C27.1973 18.8392 27.2933 18.3623 27.4854 17.9521C27.6807 17.542 27.9557 17.2214 28.3105 16.9902C28.6654 16.7591 29.0804 16.6436 29.5557 16.6436C30.0342 16.6436 30.4443 16.7542 30.7861 16.9756C31.1312 17.1969 31.3949 17.5062 31.5771 17.9033C31.7627 18.2972 31.8555 18.7562 31.8555 19.2803V19.6123H27.6367V18.9336H31.4209L31.001 19.5537V19.2168C31.001 18.8034 30.9391 18.4632 30.8154 18.1963C30.6917 17.9294 30.5208 17.7308 30.3027 17.6006C30.0846 17.4671 29.834 17.4004 29.5508 17.4004C29.2676 17.4004 29.0137 17.4704 28.7891 17.6104C28.5677 17.7471 28.3919 17.9505 28.2617 18.2207C28.1315 18.4909 28.0664 18.8229 28.0664 19.2168V19.5537C28.0664 19.9281 28.1299 20.2487 28.2568 20.5156C28.3838 20.7793 28.5645 20.9827 28.7988 21.126C29.0332 21.266 29.3099 21.3359 29.6289 21.3359C29.8665 21.3359 30.0732 21.3034 30.249 21.2383C30.4248 21.1732 30.5697 21.0902 30.6836 20.9893C30.7975 20.8883 30.8773 20.7858 30.9229 20.6816L30.9424 20.6377H31.792L31.7822 20.6768C31.7367 20.8558 31.6553 21.0299 31.5381 21.1992C31.4242 21.3652 31.276 21.5166 31.0938 21.6533C30.9115 21.7868 30.695 21.8942 30.4443 21.9756C30.1969 22.0537 29.9186 22.0928 29.6094 22.0928ZM33.1738 22V16.7363H34.0234V17.5176H34.1016C34.2025 17.2409 34.3734 17.026 34.6143 16.873C34.8551 16.7201 35.153 16.6436 35.5078 16.6436C35.5892 16.6436 35.6689 16.6484 35.7471 16.6582C35.8285 16.6647 35.8903 16.6712 35.9326 16.6777V17.5029C35.8447 17.4867 35.7585 17.4753 35.6738 17.4688C35.5924 17.459 35.5046 17.4541 35.4102 17.4541C35.14 17.4541 34.9007 17.5078 34.6924 17.6152C34.484 17.7227 34.3197 17.8724 34.1992 18.0645C34.082 18.2565 34.0234 18.4811 34.0234 18.7383V22H33.1738Z" fill="#3D454D"/>
<path d="M68 8C68 5.79086 69.7909 4 72 4H502C504.209 4 506 5.79086 506 8V16C506 18.2091 504.209 20 502 20H72C69.7909 20 68 18.2091 68 16V8Z" fill="#015DB1"/>
<path d="M510 12C510 7.58172 513.582 4 518 4H529C533.418 4 537 7.58172 537 12V12C537 16.4183 533.418 20 529 20H518C513.582 20 510 16.4183 510 12V12Z" fill="#F2F6FD"/>
<path d="M516.539 9.22656C516.823 9.22656 517.095 9.27995 517.355 9.38672C517.618 9.49089 517.854 9.65755 518.062 9.88672C518.271 10.1133 518.435 10.4089 518.555 10.7734C518.674 11.138 518.734 11.5794 518.734 12.0977V12.1055C518.734 12.7409 518.646 13.2852 518.469 13.7383C518.292 14.1888 518.036 14.5352 517.703 14.7773C517.372 15.0169 516.974 15.1367 516.508 15.1367C516.174 15.1367 515.874 15.0755 515.605 14.9531C515.34 14.8307 515.118 14.6615 514.941 14.4453C514.764 14.2292 514.645 13.9805 514.582 13.6992L514.57 13.6523H515.441L515.457 13.6914C515.509 13.8346 515.585 13.9583 515.684 14.0625C515.783 14.1667 515.901 14.2487 516.039 14.3086C516.177 14.3659 516.335 14.3945 516.512 14.3945C516.827 14.3945 517.083 14.3021 517.281 14.1172C517.482 13.9297 517.632 13.681 517.73 13.3711C517.829 13.0612 517.885 12.7201 517.898 12.3477C517.901 12.3086 517.902 12.2708 517.902 12.2344C517.902 12.1979 517.902 12.1628 517.902 12.1289L517.73 11.1875C517.73 10.9583 517.677 10.7513 517.57 10.5664C517.466 10.3815 517.324 10.2344 517.145 10.125C516.967 10.0156 516.768 9.96094 516.547 9.96094C516.328 9.96094 516.129 10.0143 515.949 10.1211C515.772 10.2279 515.63 10.3724 515.523 10.5547C515.417 10.7344 515.363 10.9375 515.363 11.1641V11.1719C515.363 11.401 515.414 11.6055 515.516 11.7852C515.617 11.9648 515.757 12.1068 515.934 12.2109C516.111 12.3125 516.311 12.3633 516.535 12.3633C516.762 12.3633 516.965 12.3125 517.145 12.2109C517.324 12.1094 517.466 11.9714 517.57 11.7969C517.677 11.6198 517.73 11.418 517.73 11.1914V11.1875H517.961V12.2148H517.824C517.757 12.3659 517.655 12.5065 517.52 12.6367C517.384 12.7669 517.217 12.8724 517.02 12.9531C516.824 13.0312 516.599 13.0703 516.344 13.0703C515.987 13.0703 515.669 12.9896 515.391 12.8281C515.112 12.6641 514.893 12.4414 514.734 12.1602C514.576 11.8763 514.496 11.5547 514.496 11.1953V11.1875C514.496 10.8099 514.583 10.474 514.758 10.1797C514.935 9.88281 515.177 9.64974 515.484 9.48047C515.794 9.3112 516.146 9.22656 516.539 9.22656ZM521.871 15.1055C521.452 15.1055 521.082 15.0365 520.762 14.8984C520.441 14.7604 520.19 14.569 520.008 14.3242C519.826 14.0768 519.734 13.7943 519.734 13.4766V13.4688C519.734 13.2318 519.786 13.0143 519.891 12.8164C519.997 12.6185 520.145 12.4518 520.332 12.3164C520.522 12.1784 520.74 12.0833 520.984 12.0312V12.0117C520.669 11.9206 520.415 11.7643 520.223 11.543C520.033 11.3216 519.938 11.0612 519.938 10.7617V10.7539C519.938 10.4648 520.02 10.2083 520.184 9.98438C520.35 9.76042 520.579 9.58333 520.871 9.45312C521.163 9.32292 521.496 9.25781 521.871 9.25781C522.246 9.25781 522.578 9.32292 522.867 9.45312C523.159 9.58333 523.387 9.76042 523.551 9.98438C523.717 10.2083 523.801 10.4648 523.801 10.7539V10.7617C523.801 11.0612 523.706 11.3216 523.516 11.543C523.326 11.7643 523.073 11.9206 522.758 12.0117V12.0312C523.005 12.0833 523.221 12.1784 523.406 12.3164C523.594 12.4518 523.74 12.6185 523.844 12.8164C523.951 13.0143 524.004 13.2318 524.004 13.4688V13.4766C524.004 13.7943 523.913 14.0768 523.73 14.3242C523.551 14.569 523.299 14.7604 522.977 14.8984C522.656 15.0365 522.288 15.1055 521.871 15.1055ZM521.871 14.4023C522.111 14.4023 522.323 14.3607 522.508 14.2773C522.693 14.1914 522.837 14.0755 522.941 13.9297C523.048 13.7812 523.102 13.612 523.102 13.4219V13.4141C523.102 13.2214 523.049 13.0508 522.945 12.9023C522.841 12.7513 522.695 12.6341 522.508 12.5508C522.323 12.4648 522.111 12.4219 521.871 12.4219C521.629 12.4219 521.415 12.4648 521.23 12.5508C521.046 12.6341 520.901 12.7513 520.797 12.9023C520.693 13.0508 520.641 13.2214 520.641 13.4141V13.4219C520.641 13.612 520.693 13.7812 520.797 13.9297C520.904 14.0755 521.049 14.1914 521.234 14.2773C521.419 14.3607 521.632 14.4023 521.871 14.4023ZM521.871 11.7148C522.079 11.7148 522.263 11.6784 522.422 11.6055C522.583 11.5299 522.708 11.4258 522.797 11.293C522.885 11.1602 522.93 11.0091 522.93 10.8398V10.832C522.93 10.6602 522.884 10.5078 522.793 10.375C522.704 10.2422 522.581 10.1393 522.422 10.0664C522.263 9.99089 522.079 9.95312 521.871 9.95312C521.663 9.95312 521.478 9.99089 521.316 10.0664C521.158 10.1393 521.033 10.2422 520.941 10.375C520.853 10.5078 520.809 10.6602 520.809 10.832V10.8398C520.809 11.0091 520.853 11.1602 520.941 11.293C521.033 11.4258 521.158 11.5299 521.316 11.6055C521.475 11.6784 521.66 11.7148 521.871 11.7148ZM526.242 12.375C525.99 12.375 525.772 12.3125 525.59 12.1875C525.41 12.0599 525.271 11.8815 525.172 11.6523C525.073 11.4206 525.023 11.1471 525.023 10.832V10.8281C525.023 10.5078 525.073 10.2331 525.172 10.0039C525.271 9.77474 525.41 9.59766 525.59 9.47266C525.772 9.34766 525.99 9.28516 526.242 9.28516C526.495 9.28516 526.712 9.34766 526.895 9.47266C527.079 9.59766 527.22 9.77474 527.316 10.0039C527.415 10.2331 527.465 10.5078 527.465 10.8281V10.832C527.465 11.1471 527.415 11.4206 527.316 11.6523C527.22 11.8815 527.079 12.0599 526.895 12.1875C526.712 12.3125 526.495 12.375 526.242 12.375ZM526.242 11.8516C526.427 11.8516 526.57 11.7617 526.672 11.582C526.776 11.4023 526.828 11.1523 526.828 10.832V10.8281C526.828 10.5052 526.776 10.2552 526.672 10.0781C526.57 9.89844 526.427 9.80859 526.242 9.80859C526.06 9.80859 525.918 9.89844 525.816 10.0781C525.715 10.2552 525.664 10.5052 525.664 10.8281V10.832C525.664 11.1523 525.715 11.4023 525.816 11.582C525.918 11.7617 526.06 11.8516 526.242 11.8516ZM526.828 15H526.098L529.918 9.36328H530.648L526.828 15ZM530.496 15.0781C530.243 15.0781 530.026 15.0156 529.844 14.8906C529.661 14.763 529.521 14.5846 529.422 14.3555C529.326 14.1237 529.277 13.849 529.277 13.5312V13.5273C529.277 13.2096 529.326 12.9362 529.422 12.707C529.521 12.4779 529.661 12.3008 529.844 12.1758C530.026 12.0508 530.243 11.9883 530.496 11.9883C530.749 11.9883 530.966 12.0508 531.148 12.1758C531.331 12.3008 531.47 12.4779 531.566 12.707C531.665 12.9362 531.715 13.2096 531.715 13.5273V13.5312C531.715 13.849 531.665 14.1237 531.566 14.3555C531.47 14.5846 531.331 14.763 531.148 14.8906C530.966 15.0156 530.749 15.0781 530.496 15.0781ZM530.496 14.5547C530.681 14.5547 530.824 14.4648 530.926 14.2852C531.027 14.1055 531.078 13.8542 531.078 13.5312V13.5273C531.078 13.207 531.027 12.9583 530.926 12.7812C530.824 12.6016 530.681 12.5117 530.496 12.5117C530.311 12.5117 530.168 12.6016 530.066 12.7812C529.965 12.9583 529.914 13.207 529.914 13.5273V13.5312C529.914 13.8542 529.965 14.1055 530.066 14.2852C530.168 14.4648 530.311 14.5547 530.496 14.5547Z" fill="#015DB1"/>
<path d="M0.898438 50V42.9541H1.75293L5.79102 48.7451L5.20508 48.4375H5.6543V42.9541H6.52344V50H5.66895L1.63086 44.2285L2.2168 44.5361H1.76758V50H0.898438ZM10.376 50.0928C9.87793 50.0928 9.44661 49.9837 9.08203 49.7656C8.7207 49.5443 8.44076 49.2301 8.24219 48.8232C8.04688 48.4163 7.94922 47.9329 7.94922 47.373V47.3633C7.94922 46.8001 8.04688 46.3151 8.24219 45.9082C8.44076 45.5013 8.7207 45.1888 9.08203 44.9707C9.44661 44.7526 9.87793 44.6436 10.376 44.6436C10.8773 44.6436 11.3086 44.7526 11.6699 44.9707C12.0312 45.1888 12.3096 45.5013 12.5049 45.9082C12.7035 46.3151 12.8027 46.8001 12.8027 47.3633V47.373C12.8027 47.9329 12.7035 48.4163 12.5049 48.8232C12.3096 49.2301 12.0312 49.5443 11.6699 49.7656C11.3086 49.9837 10.8773 50.0928 10.376 50.0928ZM10.376 49.3408C10.708 49.3408 10.9896 49.2627 11.2207 49.1064C11.4518 48.9502 11.6276 48.7256 11.748 48.4326C11.8717 48.1396 11.9336 47.7865 11.9336 47.373V47.3633C11.9336 46.9466 11.8717 46.5918 11.748 46.2988C11.6276 46.0059 11.4518 45.7829 11.2207 45.6299C10.9896 45.4736 10.708 45.3955 10.376 45.3955C10.0439 45.3955 9.76237 45.4736 9.53125 45.6299C9.30013 45.7829 9.12272 46.0059 8.99902 46.2988C8.87858 46.5918 8.81836 46.9466 8.81836 47.3633V47.373C8.81836 47.7865 8.87858 48.1396 8.99902 48.4326C9.12272 48.7256 9.30013 48.9502 9.53125 49.1064C9.76237 49.2627 10.0439 49.3408 10.376 49.3408ZM14.1211 50V44.7363H14.9707V45.5176H15.0488C15.1497 45.2409 15.3206 45.026 15.5615 44.873C15.8024 44.7201 16.1003 44.6436 16.4551 44.6436C16.5365 44.6436 16.6162 44.6484 16.6943 44.6582C16.7757 44.6647 16.8376 44.6712 16.8799 44.6777V45.5029C16.792 45.4867 16.7057 45.4753 16.6211 45.4688C16.5397 45.459 16.4518 45.4541 16.3574 45.4541C16.0872 45.4541 15.848 45.5078 15.6396 45.6152C15.4313 45.7227 15.2669 45.8724 15.1465 46.0645C15.0293 46.2565 14.9707 46.4811 14.9707 46.7383V50H14.1211ZM19.8975 50.0391C19.3571 50.0391 18.9648 49.93 18.7207 49.7119C18.4798 49.4938 18.3594 49.1341 18.3594 48.6328V45.4395H17.5293V44.7363H18.3594V43.374H19.2383V44.7363H20.3906V45.4395H19.2383V48.418C19.2383 48.7272 19.2969 48.9502 19.4141 49.0869C19.5312 49.2204 19.7266 49.2871 20 49.2871C20.0749 49.2871 20.1383 49.2855 20.1904 49.2822C20.2458 49.279 20.3125 49.2741 20.3906 49.2676V49.9902C20.3092 50.0033 20.2279 50.0146 20.1465 50.0244C20.0651 50.0342 19.9821 50.0391 19.8975 50.0391ZM21.709 50V42.6465H22.5586V45.5273H22.6367C22.7702 45.2474 22.9622 45.0309 23.2129 44.8779C23.4635 44.7217 23.7826 44.6436 24.1699 44.6436C24.5638 44.6436 24.8975 44.7201 25.1709 44.873C25.4443 45.0228 25.6527 45.2425 25.7959 45.5322C25.9391 45.8219 26.0107 46.1751 26.0107 46.5918V50H25.1611V46.7969C25.1611 46.3216 25.0602 45.9701 24.8584 45.7422C24.6598 45.5111 24.3506 45.3955 23.9307 45.3955C23.6507 45.3955 23.4082 45.4557 23.2031 45.5762C22.998 45.6966 22.8385 45.8675 22.7246 46.0889C22.6139 46.3102 22.5586 46.5755 22.5586 46.8848V50H21.709ZM32.168 50.0928C31.7773 50.0928 31.4323 50.0342 31.1328 49.917C30.8333 49.7965 30.5924 49.6289 30.4102 49.4141C30.2311 49.1992 30.1253 48.9469 30.0928 48.6572H30.9619C31.0335 48.8753 31.1735 49.0511 31.3818 49.1846C31.5902 49.318 31.862 49.3848 32.1973 49.3848C32.4349 49.3848 32.6432 49.3506 32.8223 49.2822C33.0046 49.2106 33.1478 49.1146 33.252 48.9941C33.3561 48.8704 33.4082 48.7288 33.4082 48.5693V48.5596C33.4082 48.3805 33.3366 48.2292 33.1934 48.1055C33.0501 47.9785 32.8158 47.876 32.4902 47.7979L31.6748 47.6025C31.346 47.5244 31.0758 47.4235 30.8643 47.2998C30.6527 47.1729 30.4964 47.0182 30.3955 46.8359C30.2946 46.6504 30.2441 46.4323 30.2441 46.1816V46.1768C30.2441 45.8838 30.3288 45.6217 30.498 45.3906C30.6706 45.1595 30.9049 44.9772 31.2012 44.8438C31.4974 44.7103 31.8311 44.6436 32.2021 44.6436C32.57 44.6436 32.8955 44.7021 33.1787 44.8193C33.4652 44.9333 33.6947 45.096 33.8672 45.3076C34.043 45.5192 34.1504 45.7682 34.1895 46.0547H33.3545C33.2992 45.8464 33.1722 45.6771 32.9736 45.5469C32.7751 45.4167 32.5163 45.3516 32.1973 45.3516C31.9889 45.3516 31.8034 45.3857 31.6406 45.4541C31.4779 45.5192 31.3493 45.6104 31.2549 45.7275C31.1605 45.8447 31.1133 45.9814 31.1133 46.1377V46.1475C31.1133 46.2646 31.1442 46.3688 31.2061 46.46C31.2679 46.5511 31.3639 46.6309 31.4941 46.6992C31.6243 46.7676 31.792 46.8278 31.9971 46.8799L32.8076 47.0752C33.3024 47.1956 33.6702 47.3682 33.9111 47.5928C34.1553 47.8174 34.2773 48.1185 34.2773 48.4961V48.5059C34.2773 48.8184 34.1846 49.0951 33.999 49.3359C33.8135 49.5736 33.5612 49.7591 33.2422 49.8926C32.9264 50.026 32.5684 50.0928 32.168 50.0928ZM35.6445 50V42.6465H36.4941V45.5273H36.5723C36.7057 45.2474 36.8978 45.0309 37.1484 44.8779C37.3991 44.7217 37.7181 44.6436 38.1055 44.6436C38.4993 44.6436 38.833 44.7201 39.1064 44.873C39.3799 45.0228 39.5882 45.2425 39.7314 45.5322C39.8747 45.8219 39.9463 46.1751 39.9463 46.5918V50H39.0967V46.7969C39.0967 46.3216 38.9958 45.9701 38.7939 45.7422C38.5954 45.5111 38.2861 45.3955 37.8662 45.3955C37.5863 45.3955 37.3438 45.4557 37.1387 45.5762C36.9336 45.6966 36.7741 45.8675 36.6602 46.0889C36.5495 46.3102 36.4941 46.5755 36.4941 46.8848V50H35.6445ZM43.6475 50.0928C43.1494 50.0928 42.7181 49.9837 42.3535 49.7656C41.9922 49.5443 41.7122 49.2301 41.5137 48.8232C41.3184 48.4163 41.2207 47.9329 41.2207 47.373V47.3633C41.2207 46.8001 41.3184 46.3151 41.5137 45.9082C41.7122 45.5013 41.9922 45.1888 42.3535 44.9707C42.7181 44.7526 43.1494 44.6436 43.6475 44.6436C44.1488 44.6436 44.5801 44.7526 44.9414 44.9707C45.3027 45.1888 45.5811 45.5013 45.7764 45.9082C45.9749 46.3151 46.0742 46.8001 46.0742 47.3633V47.373C46.0742 47.9329 45.9749 48.4163 45.7764 48.8232C45.5811 49.2301 45.3027 49.5443 44.9414 49.7656C44.5801 49.9837 44.1488 50.0928 43.6475 50.0928ZM43.6475 49.3408C43.9795 49.3408 44.2611 49.2627 44.4922 49.1064C44.7233 48.9502 44.8991 48.7256 45.0195 48.4326C45.1432 48.1396 45.2051 47.7865 45.2051 47.373V47.3633C45.2051 46.9466 45.1432 46.5918 45.0195 46.2988C44.8991 46.0059 44.7233 45.7829 44.4922 45.6299C44.2611 45.4736 43.9795 45.3955 43.6475 45.3955C43.3154 45.3955 43.0339 45.4736 42.8027 45.6299C42.5716 45.7829 42.3942 46.0059 42.2705 46.2988C42.1501 46.5918 42.0898 46.9466 42.0898 47.3633V47.373C42.0898 47.7865 42.1501 48.1396 42.2705 48.4326C42.3942 48.7256 42.5716 48.9502 42.8027 49.1064C43.0339 49.2627 43.3154 49.3408 43.6475 49.3408ZM47.3926 50V44.7363H48.2422V45.5176H48.3203C48.4212 45.2409 48.5921 45.026 48.833 44.873C49.0739 44.7201 49.3717 44.6436 49.7266 44.6436C49.8079 44.6436 49.8877 44.6484 49.9658 44.6582C50.0472 44.6647 50.109 44.6712 50.1514 44.6777V45.5029C50.0635 45.4867 49.9772 45.4753 49.8926 45.4688C49.8112 45.459 49.7233 45.4541 49.6289 45.4541C49.3587 45.4541 49.1195 45.5078 48.9111 45.6152C48.7028 45.7227 48.5384 45.8724 48.418 46.0645C48.3008 46.2565 48.2422 46.4811 48.2422 46.7383V50H47.3926ZM53.2031 50.0928C52.7018 50.0928 52.2705 49.9821 51.9092 49.7607C51.5511 49.5394 51.2744 49.2269 51.0791 48.8232C50.887 48.4163 50.791 47.9378 50.791 47.3877V47.3828C50.791 46.8392 50.887 46.3623 51.0791 45.9521C51.2744 45.542 51.5495 45.2214 51.9043 44.9902C52.2591 44.7591 52.6742 44.6436 53.1494 44.6436C53.6279 44.6436 54.0381 44.7542 54.3799 44.9756C54.7249 45.1969 54.9886 45.5062 55.1709 45.9033C55.3564 46.2972 55.4492 46.7562 55.4492 47.2803V47.6123H51.2305V46.9336H55.0146L54.5947 47.5537V47.2168C54.5947 46.8034 54.5329 46.4632 54.4092 46.1963C54.2855 45.9294 54.1146 45.7308 53.8965 45.6006C53.6784 45.4671 53.4277 45.4004 53.1445 45.4004C52.8613 45.4004 52.6074 45.4704 52.3828 45.6104C52.1615 45.7471 51.9857 45.9505 51.8555 46.2207C51.7253 46.4909 51.6602 46.8229 51.6602 47.2168V47.5537C51.6602 47.9281 51.7236 48.2487 51.8506 48.5156C51.9775 48.7793 52.1582 48.9827 52.3926 49.126C52.627 49.266 52.9036 49.3359 53.2227 49.3359C53.4603 49.3359 53.667 49.3034 53.8428 49.2383C54.0186 49.1732 54.1634 49.0902 54.2773 48.9893C54.3913 48.8883 54.471 48.7858 54.5166 48.6816L54.5361 48.6377H55.3857L55.376 48.6768C55.3304 48.8558 55.249 49.0299 55.1318 49.1992C55.0179 49.3652 54.8698 49.5166 54.6875 49.6533C54.5052 49.7868 54.2887 49.8942 54.0381 49.9756C53.7907 50.0537 53.5124 50.0928 53.2031 50.0928ZM2.94434 62.0928C2.4528 62.0928 2.02637 61.9805 1.66504 61.7559C1.30371 61.5312 1.02376 61.2139 0.825195 60.8037C0.626628 60.3936 0.527344 59.9102 0.527344 59.3535V59.3438C0.527344 58.7969 0.625 58.3216 0.820312 57.918C1.01888 57.5143 1.29883 57.2018 1.66016 56.9805C2.02148 56.7559 2.44792 56.6436 2.93945 56.6436C3.36589 56.6436 3.73372 56.7184 4.04297 56.8682C4.35221 57.0179 4.59961 57.2197 4.78516 57.4736C4.9707 57.7243 5.08952 58.0059 5.1416 58.3184L5.14648 58.3477H4.30176L4.29688 58.333C4.23177 58.0726 4.08366 57.8512 3.85254 57.6689C3.62142 57.4867 3.31706 57.3955 2.93945 57.3955C2.6237 57.3955 2.35026 57.4753 2.11914 57.6348C1.88802 57.7943 1.70898 58.0205 1.58203 58.3135C1.45833 58.6032 1.39648 58.9466 1.39648 59.3438V59.3535C1.39648 59.7572 1.45996 60.1087 1.58691 60.4082C1.71387 60.7044 1.8929 60.9339 2.12402 61.0967C2.35514 61.2594 2.62695 61.3408 2.93945 61.3408C3.29427 61.3408 3.58398 61.2643 3.80859 61.1113C4.0332 60.9583 4.19434 60.7354 4.29199 60.4424L4.30176 60.4131L5.1416 60.4082L5.13184 60.4619C5.06022 60.7777 4.93327 61.0592 4.75098 61.3066C4.56868 61.5508 4.3278 61.7428 4.02832 61.8828C3.72884 62.0228 3.36751 62.0928 2.94434 62.0928ZM6.43555 62V54.6465H7.28516V57.5273H7.36328C7.49674 57.2474 7.6888 57.0309 7.93945 56.8779C8.1901 56.7217 8.50911 56.6436 8.89648 56.6436C9.29036 56.6436 9.62402 56.7201 9.89746 56.873C10.1709 57.0228 10.3792 57.2425 10.5225 57.5322C10.6657 57.8219 10.7373 58.1751 10.7373 58.5918V62H9.8877V58.7969C9.8877 58.3216 9.78678 57.9701 9.58496 57.7422C9.38639 57.5111 9.07715 57.3955 8.65723 57.3955C8.37728 57.3955 8.13477 57.4557 7.92969 57.5762C7.72461 57.6966 7.5651 57.8675 7.45117 58.0889C7.34049 58.3102 7.28516 58.5755 7.28516 58.8848V62H6.43555ZM13.7207 62.0928C13.3887 62.0928 13.0892 62.0293 12.8223 61.9023C12.5586 61.7754 12.3486 61.5947 12.1924 61.3604C12.0394 61.126 11.9629 60.8493 11.9629 60.5303V60.5205C11.9629 60.208 12.0378 59.9411 12.1875 59.7197C12.3372 59.4951 12.5553 59.3193 12.8418 59.1924C13.1283 59.0654 13.4749 58.9906 13.8818 58.9678L15.8154 58.8506V59.5293L13.9844 59.6465C13.584 59.6693 13.291 59.7523 13.1055 59.8955C12.9232 60.0387 12.832 60.2406 12.832 60.501V60.5107C12.832 60.7777 12.9329 60.986 13.1348 61.1357C13.3366 61.2822 13.5905 61.3555 13.8965 61.3555C14.1862 61.3555 14.4434 61.2985 14.668 61.1846C14.8926 61.0674 15.0684 60.9095 15.1953 60.7109C15.3255 60.5124 15.3906 60.2878 15.3906 60.0371V58.3965C15.3906 58.071 15.2913 57.8236 15.0928 57.6543C14.8975 57.4818 14.6029 57.3955 14.209 57.3955C13.8932 57.3955 13.6344 57.4525 13.4326 57.5664C13.2308 57.6771 13.0957 57.835 13.0273 58.04L13.0225 58.0547H12.1729L12.1777 58.0254C12.2233 57.7487 12.3372 57.5078 12.5195 57.3027C12.7051 57.0944 12.9443 56.9333 13.2373 56.8193C13.5303 56.7021 13.8639 56.6436 14.2383 56.6436C14.668 56.6436 15.0309 56.7135 15.3271 56.8535C15.6266 56.9935 15.8529 57.1953 16.0059 57.459C16.1621 57.7194 16.2402 58.0319 16.2402 58.3965V62H15.3906V61.2236H15.3125C15.2018 61.4092 15.0667 61.5671 14.9072 61.6973C14.751 61.8275 14.5736 61.9268 14.375 61.9951C14.1764 62.0602 13.9583 62.0928 13.7207 62.0928ZM17.793 63.7578V56.7363H18.6426V57.5762H18.7207C18.8281 57.3809 18.9632 57.2148 19.126 57.0781C19.2887 56.9382 19.4743 56.8307 19.6826 56.7559C19.891 56.681 20.1172 56.6436 20.3613 56.6436C20.8073 56.6436 21.1947 56.7575 21.5234 56.9854C21.8555 57.21 22.1126 57.5257 22.2949 57.9326C22.4772 58.3395 22.5684 58.8164 22.5684 59.3633V59.373C22.5684 59.9232 22.4772 60.4017 22.2949 60.8086C22.1126 61.2155 21.8555 61.5312 21.5234 61.7559C21.1947 61.9805 20.8073 62.0928 20.3613 62.0928C20.1204 62.0928 19.8926 62.0553 19.6777 61.9805C19.4661 61.9023 19.2773 61.7949 19.1113 61.6582C18.9486 61.5215 18.8184 61.3587 18.7207 61.1699H18.6426V63.7578H17.793ZM20.166 61.3408C20.4883 61.3408 20.7633 61.2627 20.9912 61.1064C21.2191 60.9469 21.3932 60.7207 21.5137 60.4277C21.6374 60.1315 21.6992 59.7799 21.6992 59.373V59.3633C21.6992 58.9531 21.6374 58.6016 21.5137 58.3086C21.3932 58.0156 21.2191 57.791 20.9912 57.6348C20.7633 57.4753 20.4883 57.3955 20.166 57.3955C19.847 57.3955 19.5719 57.4753 19.3408 57.6348C19.1097 57.7943 18.9323 58.0205 18.8086 58.3135C18.6849 58.6064 18.623 58.9564 18.623 59.3633V59.373C18.623 59.7767 18.6849 60.1266 18.8086 60.4229C18.9323 60.7158 19.1097 60.9421 19.3408 61.1016C19.5719 61.2611 19.847 61.3408 20.166 61.3408ZM25.7666 62.0391C25.2262 62.0391 24.834 61.93 24.5898 61.7119C24.349 61.4938 24.2285 61.1341 24.2285 60.6328V57.4395H23.3984V56.7363H24.2285V55.374H25.1074V56.7363H26.2598V57.4395H25.1074V60.418C25.1074 60.7272 25.166 60.9502 25.2832 61.0869C25.4004 61.2204 25.5957 61.2871 25.8691 61.2871C25.944 61.2871 26.0075 61.2855 26.0596 61.2822C26.1149 61.279 26.1816 61.2741 26.2598 61.2676V61.9902C26.1784 62.0033 26.097 62.0146 26.0156 62.0244C25.9342 62.0342 25.8512 62.0391 25.7666 62.0391ZM29.6094 62.0928C29.1081 62.0928 28.6768 61.9821 28.3154 61.7607C27.9574 61.5394 27.6807 61.2269 27.4854 60.8232C27.2933 60.4163 27.1973 59.9378 27.1973 59.3877V59.3828C27.1973 58.8392 27.2933 58.3623 27.4854 57.9521C27.6807 57.542 27.9557 57.2214 28.3105 56.9902C28.6654 56.7591 29.0804 56.6436 29.5557 56.6436C30.0342 56.6436 30.4443 56.7542 30.7861 56.9756C31.1312 57.1969 31.3949 57.5062 31.5771 57.9033C31.7627 58.2972 31.8555 58.7562 31.8555 59.2803V59.6123H27.6367V58.9336H31.4209L31.001 59.5537V59.2168C31.001 58.8034 30.9391 58.4632 30.8154 58.1963C30.6917 57.9294 30.5208 57.7308 30.3027 57.6006C30.0846 57.4671 29.834 57.4004 29.5508 57.4004C29.2676 57.4004 29.0137 57.4704 28.7891 57.6104C28.5677 57.7471 28.3919 57.9505 28.2617 58.2207C28.1315 58.4909 28.0664 58.8229 28.0664 59.2168V59.5537C28.0664 59.9281 28.1299 60.2487 28.2568 60.5156C28.3838 60.7793 28.5645 60.9827 28.7988 61.126C29.0332 61.266 29.3099 61.3359 29.6289 61.3359C29.8665 61.3359 30.0732 61.3034 30.249 61.2383C30.4248 61.1732 30.5697 61.0902 30.6836 60.9893C30.7975 60.8883 30.8773 60.7858 30.9229 60.6816L30.9424 60.6377H31.792L31.7822 60.6768C31.7367 60.8558 31.6553 61.0299 31.5381 61.1992C31.4242 61.3652 31.276 61.5166 31.0938 61.6533C30.9115 61.7868 30.695 61.8942 30.4443 61.9756C30.1969 62.0537 29.9186 62.0928 29.6094 62.0928ZM33.1738 62V56.7363H34.0234V57.5176H34.1016C34.2025 57.2409 34.3734 57.026 34.6143 56.873C34.8551 56.7201 35.153 56.6436 35.5078 56.6436C35.5892 56.6436 35.6689 56.6484 35.7471 56.6582C35.8285 56.6647 35.8903 56.6712 35.9326 56.6777V57.5029C35.8447 57.4867 35.7585 57.4753 35.6738 57.4688C35.5924 57.459 35.5046 57.4541 35.4102 57.4541C35.14 57.4541 34.9007 57.5078 34.6924 57.6152C34.484 57.7227 34.3197 57.8724 34.1992 58.0645C34.082 58.2565 34.0234 58.4811 34.0234 58.7383V62H33.1738Z" fill="#3D454D"/>
<path d="M68 48C68 45.7909 69.7909 44 72 44H494C496.209 44 498 45.7909 498 48V56C498 58.2091 496.209 60 494 60H72C69.7909 60 68 58.2091 68 56V48Z" fill="#015DB1"/>
<path d="M502 52C502 47.5817 505.582 44 510 44H520C524.418 44 528 47.5817 528 52V52C528 56.4183 524.418 60 520 60H510C505.582 60 502 56.4183 502 52V52Z" fill="#F2F6FD"/>
<path d="M508.539 49.2266C508.823 49.2266 509.095 49.2799 509.355 49.3867C509.618 49.4909 509.854 49.6576 510.062 49.8867C510.271 50.1133 510.435 50.4089 510.555 50.7734C510.674 51.138 510.734 51.5794 510.734 52.0977V52.1055C510.734 52.7409 510.646 53.2852 510.469 53.7383C510.292 54.1888 510.036 54.5352 509.703 54.7773C509.372 55.0169 508.974 55.1367 508.508 55.1367C508.174 55.1367 507.874 55.0755 507.605 54.9531C507.34 54.8307 507.118 54.6615 506.941 54.4453C506.764 54.2292 506.645 53.9805 506.582 53.6992L506.57 53.6523H507.441L507.457 53.6914C507.509 53.8346 507.585 53.9583 507.684 54.0625C507.783 54.1667 507.901 54.2487 508.039 54.3086C508.177 54.3659 508.335 54.3945 508.512 54.3945C508.827 54.3945 509.083 54.3021 509.281 54.1172C509.482 53.9297 509.632 53.681 509.73 53.3711C509.829 53.0612 509.885 52.7201 509.898 52.3477C509.901 52.3086 509.902 52.2708 509.902 52.2344C509.902 52.1979 509.902 52.1628 509.902 52.1289L509.73 51.1875C509.73 50.9583 509.677 50.7513 509.57 50.5664C509.466 50.3815 509.324 50.2344 509.145 50.125C508.967 50.0156 508.768 49.9609 508.547 49.9609C508.328 49.9609 508.129 50.0143 507.949 50.1211C507.772 50.2279 507.63 50.3724 507.523 50.5547C507.417 50.7344 507.363 50.9375 507.363 51.1641V51.1719C507.363 51.401 507.414 51.6055 507.516 51.7852C507.617 51.9648 507.757 52.1068 507.934 52.2109C508.111 52.3125 508.311 52.3633 508.535 52.3633C508.762 52.3633 508.965 52.3125 509.145 52.2109C509.324 52.1094 509.466 51.9714 509.57 51.7969C509.677 51.6198 509.73 51.418 509.73 51.1914V51.1875H509.961V52.2148H509.824C509.757 52.3659 509.655 52.5065 509.52 52.6367C509.384 52.7669 509.217 52.8724 509.02 52.9531C508.824 53.0312 508.599 53.0703 508.344 53.0703C507.987 53.0703 507.669 52.9896 507.391 52.8281C507.112 52.6641 506.893 52.4414 506.734 52.1602C506.576 51.8763 506.496 51.5547 506.496 51.1953V51.1875C506.496 50.8099 506.583 50.474 506.758 50.1797C506.935 49.8828 507.177 49.6497 507.484 49.4805C507.794 49.3112 508.146 49.2266 508.539 49.2266ZM511.926 55L514.41 50.1641V50.1055H511.457V49.3633H515.297V50.125L512.848 55H511.926ZM517.469 52.375C517.216 52.375 516.999 52.3125 516.816 52.1875C516.637 52.0599 516.497 51.8815 516.398 51.6523C516.299 51.4206 516.25 51.1471 516.25 50.832V50.8281C516.25 50.5078 516.299 50.2331 516.398 50.0039C516.497 49.7747 516.637 49.5977 516.816 49.4727C516.999 49.3477 517.216 49.2852 517.469 49.2852C517.721 49.2852 517.939 49.3477 518.121 49.4727C518.306 49.5977 518.447 49.7747 518.543 50.0039C518.642 50.2331 518.691 50.5078 518.691 50.8281V50.832C518.691 51.1471 518.642 51.4206 518.543 51.6523C518.447 51.8815 518.306 52.0599 518.121 52.1875C517.939 52.3125 517.721 52.375 517.469 52.375ZM517.469 51.8516C517.654 51.8516 517.797 51.7617 517.898 51.582C518.003 51.4023 518.055 51.1523 518.055 50.832V50.8281C518.055 50.5052 518.003 50.2552 517.898 50.0781C517.797 49.8984 517.654 49.8086 517.469 49.8086C517.286 49.8086 517.145 49.8984 517.043 50.0781C516.941 50.2552 516.891 50.5052 516.891 50.8281V50.832C516.891 51.1523 516.941 51.4023 517.043 51.582C517.145 51.7617 517.286 51.8516 517.469 51.8516ZM518.055 55H517.324L521.145 49.3633H521.875L518.055 55ZM521.723 55.0781C521.47 55.0781 521.253 55.0156 521.07 54.8906C520.888 54.763 520.747 54.5846 520.648 54.3555C520.552 54.1237 520.504 53.849 520.504 53.5312V53.5273C520.504 53.2096 520.552 52.9362 520.648 52.707C520.747 52.4779 520.888 52.3008 521.07 52.1758C521.253 52.0508 521.47 51.9883 521.723 51.9883C521.975 51.9883 522.193 52.0508 522.375 52.1758C522.557 52.3008 522.697 52.4779 522.793 52.707C522.892 52.9362 522.941 53.2096 522.941 53.5273V53.5312C522.941 53.849 522.892 54.1237 522.793 54.3555C522.697 54.5846 522.557 54.763 522.375 54.8906C522.193 55.0156 521.975 55.0781 521.723 55.0781ZM521.723 54.5547C521.908 54.5547 522.051 54.4648 522.152 54.2852C522.254 54.1055 522.305 53.8542 522.305 53.5312V53.5273C522.305 53.207 522.254 52.9583 522.152 52.7812C522.051 52.6016 521.908 52.5117 521.723 52.5117C521.538 52.5117 521.395 52.6016 521.293 52.7812C521.191 52.9583 521.141 53.207 521.141 53.5273V53.5312C521.141 53.8542 521.191 54.1055 521.293 54.2852C521.395 54.4648 521.538 54.5547 521.723 54.5547Z" fill="#015DB1"/>
<path d="M3.20801 90.166C2.69368 90.166 2.24447 90.083 1.86035 89.917C1.47949 89.7477 1.17676 89.5166 0.952148 89.2236C0.730794 88.9274 0.602214 88.5889 0.566406 88.208L0.561523 88.1543H1.44043L1.44531 88.208C1.4681 88.4424 1.55762 88.6458 1.71387 88.8184C1.87337 88.9876 2.08496 89.1195 2.34863 89.2139C2.61556 89.3083 2.91829 89.3555 3.25684 89.3555C3.57585 89.3555 3.85905 89.305 4.10645 89.2041C4.3571 89.0999 4.55404 88.9567 4.69727 88.7744C4.84049 88.5921 4.91211 88.3822 4.91211 88.1445V88.1396C4.91211 87.8467 4.80469 87.6009 4.58984 87.4023C4.375 87.2005 4.02507 87.0459 3.54004 86.9385L2.75879 86.7676C2.05241 86.6113 1.53809 86.3704 1.21582 86.0449C0.89681 85.7161 0.737305 85.2962 0.737305 84.7852V84.7803C0.74056 84.3896 0.846354 84.0446 1.05469 83.7451C1.26628 83.4456 1.55762 83.2113 1.92871 83.042C2.30306 82.8727 2.73275 82.7881 3.21777 82.7881C3.68652 82.7881 4.10156 82.8727 4.46289 83.042C4.82422 83.208 5.11068 83.4326 5.32227 83.7158C5.53711 83.999 5.65592 84.3164 5.67871 84.668L5.68359 84.7363H4.80469L4.79492 84.6729C4.76237 84.4645 4.67773 84.2806 4.54102 84.1211C4.4043 83.9583 4.22201 83.8298 3.99414 83.7354C3.76628 83.641 3.49935 83.5954 3.19336 83.5986C2.90039 83.5986 2.63672 83.6442 2.40234 83.7354C2.16797 83.8265 1.98079 83.9583 1.84082 84.1309C1.7041 84.3001 1.63574 84.5085 1.63574 84.7559V84.7607C1.63574 85.0407 1.73991 85.2767 1.94824 85.4688C2.15658 85.6608 2.5 85.8089 2.97852 85.9131L3.75977 86.0889C4.2513 86.1963 4.64681 86.3363 4.94629 86.5088C5.24577 86.6813 5.46387 86.8929 5.60059 87.1436C5.74056 87.391 5.81055 87.6839 5.81055 88.0225V88.0273C5.81055 88.4668 5.70312 88.846 5.48828 89.165C5.27344 89.484 4.9707 89.7314 4.58008 89.9072C4.18945 90.0798 3.7321 90.166 3.20801 90.166ZM9.33105 90.0928C8.83301 90.0928 8.40169 89.9837 8.03711 89.7656C7.67578 89.5443 7.39583 89.2301 7.19727 88.8232C7.00195 88.4163 6.9043 87.9329 6.9043 87.373V87.3633C6.9043 86.8001 7.00195 86.3151 7.19727 85.9082C7.39583 85.5013 7.67578 85.1888 8.03711 84.9707C8.40169 84.7526 8.83301 84.6436 9.33105 84.6436C9.83236 84.6436 10.2637 84.7526 10.625 84.9707C10.9863 85.1888 11.2646 85.5013 11.46 85.9082C11.6585 86.3151 11.7578 86.8001 11.7578 87.3633V87.373C11.7578 87.9329 11.6585 88.4163 11.46 88.8232C11.2646 89.2301 10.9863 89.5443 10.625 89.7656C10.2637 89.9837 9.83236 90.0928 9.33105 90.0928ZM9.33105 89.3408C9.66309 89.3408 9.94466 89.2627 10.1758 89.1064C10.4069 88.9502 10.5827 88.7256 10.7031 88.4326C10.8268 88.1396 10.8887 87.7865 10.8887 87.373V87.3633C10.8887 86.9466 10.8268 86.5918 10.7031 86.2988C10.5827 86.0059 10.4069 85.7829 10.1758 85.6299C9.94466 85.4736 9.66309 85.3955 9.33105 85.3955C8.99902 85.3955 8.71745 85.4736 8.48633 85.6299C8.25521 85.7829 8.0778 86.0059 7.9541 86.2988C7.83366 86.5918 7.77344 86.9466 7.77344 87.3633V87.373C7.77344 87.7865 7.83366 88.1396 7.9541 88.4326C8.0778 88.7256 8.25521 88.9502 8.48633 89.1064C8.71745 89.2627 8.99902 89.3408 9.33105 89.3408ZM14.8389 90.0928C14.4417 90.0928 14.1081 90.0179 13.8379 89.8682C13.5677 89.7152 13.3643 89.4938 13.2275 89.2041C13.0941 88.9111 13.0273 88.5579 13.0273 88.1445V84.7363H13.877V87.9395C13.877 88.4115 13.9681 88.763 14.1504 88.9941C14.3359 89.2253 14.6387 89.3408 15.0586 89.3408C15.2897 89.3408 15.4932 89.3066 15.6689 89.2383C15.848 89.1699 15.9977 89.0723 16.1182 88.9453C16.2386 88.8151 16.3281 88.6589 16.3867 88.4766C16.4486 88.291 16.4795 88.0827 16.4795 87.8516V84.7363H17.3291V90H16.4795V89.2139H16.4014C16.3167 89.3994 16.2012 89.5589 16.0547 89.6924C15.9082 89.8226 15.7324 89.9219 15.5273 89.9902C15.3255 90.0586 15.096 90.0928 14.8389 90.0928ZM20.7861 90.0391C20.2458 90.0391 19.8535 89.93 19.6094 89.7119C19.3685 89.4938 19.248 89.1341 19.248 88.6328V85.4395H18.418V84.7363H19.248V83.374H20.127V84.7363H21.2793V85.4395H20.127V88.418C20.127 88.7272 20.1855 88.9502 20.3027 89.0869C20.4199 89.2204 20.6152 89.2871 20.8887 89.2871C20.9635 89.2871 21.027 89.2855 21.0791 89.2822C21.1344 89.279 21.2012 89.2741 21.2793 89.2676V89.9902C21.1979 90.0033 21.1165 90.0146 21.0352 90.0244C20.9538 90.0342 20.8708 90.0391 20.7861 90.0391ZM22.5977 90V82.6465H23.4473V85.5273H23.5254C23.6589 85.2474 23.8509 85.0309 24.1016 84.8779C24.3522 84.7217 24.6712 84.6436 25.0586 84.6436C25.4525 84.6436 25.7861 84.7201 26.0596 84.873C26.333 85.0228 26.5413 85.2425 26.6846 85.5322C26.8278 85.8219 26.8994 86.1751 26.8994 86.5918V90H26.0498V86.7969C26.0498 86.3216 25.9489 85.9701 25.7471 85.7422C25.5485 85.5111 25.2393 85.3955 24.8193 85.3955C24.5394 85.3955 24.2969 85.4557 24.0918 85.5762C23.8867 85.6966 23.7272 85.8675 23.6133 86.0889C23.5026 86.3102 23.4473 86.5755 23.4473 86.8848V90H22.5977ZM30.5859 90.0928C30.0846 90.0928 29.6533 89.9821 29.292 89.7607C28.9339 89.5394 28.6572 89.2269 28.4619 88.8232C28.2699 88.4163 28.1738 87.9378 28.1738 87.3877V87.3828C28.1738 86.8392 28.2699 86.3623 28.4619 85.9521C28.6572 85.542 28.9323 85.2214 29.2871 84.9902C29.6419 84.7591 30.057 84.6436 30.5322 84.6436C31.0107 84.6436 31.4209 84.7542 31.7627 84.9756C32.1077 85.1969 32.3714 85.5062 32.5537 85.9033C32.7393 86.2972 32.832 86.7562 32.832 87.2803V87.6123H28.6133V86.9336H32.3975L31.9775 87.5537V87.2168C31.9775 86.8034 31.9157 86.4632 31.792 86.1963C31.6683 85.9294 31.4974 85.7308 31.2793 85.6006C31.0612 85.4671 30.8105 85.4004 30.5273 85.4004C30.2441 85.4004 29.9902 85.4704 29.7656 85.6104C29.5443 85.7471 29.3685 85.9505 29.2383 86.2207C29.1081 86.4909 29.043 86.8229 29.043 87.2168V87.5537C29.043 87.9281 29.1064 88.2487 29.2334 88.5156C29.3604 88.7793 29.541 88.9827 29.7754 89.126C30.0098 89.266 30.2865 89.3359 30.6055 89.3359C30.8431 89.3359 31.0498 89.3034 31.2256 89.2383C31.4014 89.1732 31.5462 89.0902 31.6602 88.9893C31.7741 88.8883 31.8538 88.7858 31.8994 88.6816L31.9189 88.6377H32.7686L32.7588 88.6768C32.7132 88.8558 32.6318 89.0299 32.5146 89.1992C32.4007 89.3652 32.2526 89.5166 32.0703 89.6533C31.888 89.7868 31.6715 89.8942 31.4209 89.9756C31.1735 90.0537 30.8952 90.0928 30.5859 90.0928ZM34.1504 90V84.7363H35V85.5176H35.0781C35.179 85.2409 35.3499 85.026 35.5908 84.873C35.8317 84.7201 36.1296 84.6436 36.4844 84.6436C36.5658 84.6436 36.6455 84.6484 36.7236 84.6582C36.805 84.6647 36.8669 84.6712 36.9092 84.6777V85.5029C36.8213 85.4867 36.735 85.4753 36.6504 85.4688C36.569 85.459 36.4811 85.4541 36.3867 85.4541C36.1165 85.4541 35.8773 85.5078 35.6689 85.6152C35.4606 85.7227 35.2962 85.8724 35.1758 86.0645C35.0586 86.2565 35 86.4811 35 86.7383V90H34.1504ZM38.0566 90V84.7363H38.9062V85.5273H38.9844C39.1178 85.2474 39.3099 85.0309 39.5605 84.8779C39.8112 84.7217 40.1302 84.6436 40.5176 84.6436C41.11 84.6436 41.5641 84.8128 41.8799 85.1514C42.1989 85.4867 42.3584 85.9668 42.3584 86.5918V90H41.5088V86.7969C41.5088 86.3216 41.4079 85.9701 41.2061 85.7422C41.0075 85.5111 40.6982 85.3955 40.2783 85.3955C39.9984 85.3955 39.7559 85.4557 39.5508 85.5762C39.3457 85.6966 39.1862 85.8675 39.0723 86.0889C38.9616 86.3102 38.9062 86.5755 38.9062 86.8848V90H38.0566ZM2.94434 102.093C2.4528 102.093 2.02637 101.98 1.66504 101.756C1.30371 101.531 1.02376 101.214 0.825195 100.804C0.626628 100.394 0.527344 99.9102 0.527344 99.3535V99.3438C0.527344 98.7969 0.625 98.3216 0.820312 97.918C1.01888 97.5143 1.29883 97.2018 1.66016 96.9805C2.02148 96.7559 2.44792 96.6436 2.93945 96.6436C3.36589 96.6436 3.73372 96.7184 4.04297 96.8682C4.35221 97.0179 4.59961 97.2197 4.78516 97.4736C4.9707 97.7243 5.08952 98.0059 5.1416 98.3184L5.14648 98.3477H4.30176L4.29688 98.333C4.23177 98.0726 4.08366 97.8512 3.85254 97.6689C3.62142 97.4867 3.31706 97.3955 2.93945 97.3955C2.6237 97.3955 2.35026 97.4753 2.11914 97.6348C1.88802 97.7943 1.70898 98.0205 1.58203 98.3135C1.45833 98.6032 1.39648 98.9466 1.39648 99.3438V99.3535C1.39648 99.7572 1.45996 100.109 1.58691 100.408C1.71387 100.704 1.8929 100.934 2.12402 101.097C2.35514 101.259 2.62695 101.341 2.93945 101.341C3.29427 101.341 3.58398 101.264 3.80859 101.111C4.0332 100.958 4.19434 100.735 4.29199 100.442L4.30176 100.413L5.1416 100.408L5.13184 100.462C5.06022 100.778 4.93327 101.059 4.75098 101.307C4.56868 101.551 4.3278 101.743 4.02832 101.883C3.72884 102.023 3.36751 102.093 2.94434 102.093ZM6.43555 102V94.6465H7.28516V97.5273H7.36328C7.49674 97.2474 7.6888 97.0309 7.93945 96.8779C8.1901 96.7217 8.50911 96.6436 8.89648 96.6436C9.29036 96.6436 9.62402 96.7201 9.89746 96.873C10.1709 97.0228 10.3792 97.2425 10.5225 97.5322C10.6657 97.8219 10.7373 98.1751 10.7373 98.5918V102H9.8877V98.7969C9.8877 98.3216 9.78678 97.9701 9.58496 97.7422C9.38639 97.5111 9.07715 97.3955 8.65723 97.3955C8.37728 97.3955 8.13477 97.4557 7.92969 97.5762C7.72461 97.6966 7.5651 97.8675 7.45117 98.0889C7.34049 98.3102 7.28516 98.5755 7.28516 98.8848V102H6.43555ZM13.7207 102.093C13.3887 102.093 13.0892 102.029 12.8223 101.902C12.5586 101.775 12.3486 101.595 12.1924 101.36C12.0394 101.126 11.9629 100.849 11.9629 100.53V100.521C11.9629 100.208 12.0378 99.9411 12.1875 99.7197C12.3372 99.4951 12.5553 99.3193 12.8418 99.1924C13.1283 99.0654 13.4749 98.9906 13.8818 98.9678L15.8154 98.8506V99.5293L13.9844 99.6465C13.584 99.6693 13.291 99.7523 13.1055 99.8955C12.9232 100.039 12.832 100.241 12.832 100.501V100.511C12.832 100.778 12.9329 100.986 13.1348 101.136C13.3366 101.282 13.5905 101.355 13.8965 101.355C14.1862 101.355 14.4434 101.299 14.668 101.185C14.8926 101.067 15.0684 100.91 15.1953 100.711C15.3255 100.512 15.3906 100.288 15.3906 100.037V98.3965C15.3906 98.071 15.2913 97.8236 15.0928 97.6543C14.8975 97.4818 14.6029 97.3955 14.209 97.3955C13.8932 97.3955 13.6344 97.4525 13.4326 97.5664C13.2308 97.6771 13.0957 97.835 13.0273 98.04L13.0225 98.0547H12.1729L12.1777 98.0254C12.2233 97.7487 12.3372 97.5078 12.5195 97.3027C12.7051 97.0944 12.9443 96.9333 13.2373 96.8193C13.5303 96.7021 13.8639 96.6436 14.2383 96.6436C14.668 96.6436 15.0309 96.7135 15.3271 96.8535C15.6266 96.9935 15.8529 97.1953 16.0059 97.459C16.1621 97.7194 16.2402 98.0319 16.2402 98.3965V102H15.3906V101.224H15.3125C15.2018 101.409 15.0667 101.567 14.9072 101.697C14.751 101.827 14.5736 101.927 14.375 101.995C14.1764 102.06 13.9583 102.093 13.7207 102.093ZM17.793 103.758V96.7363H18.6426V97.5762H18.7207C18.8281 97.3809 18.9632 97.2148 19.126 97.0781C19.2887 96.9382 19.4743 96.8307 19.6826 96.7559C19.891 96.681 20.1172 96.6436 20.3613 96.6436C20.8073 96.6436 21.1947 96.7575 21.5234 96.9854C21.8555 97.21 22.1126 97.5257 22.2949 97.9326C22.4772 98.3395 22.5684 98.8164 22.5684 99.3633V99.373C22.5684 99.9232 22.4772 100.402 22.2949 100.809C22.1126 101.215 21.8555 101.531 21.5234 101.756C21.1947 101.98 20.8073 102.093 20.3613 102.093C20.1204 102.093 19.8926 102.055 19.6777 101.98C19.4661 101.902 19.2773 101.795 19.1113 101.658C18.9486 101.521 18.8184 101.359 18.7207 101.17H18.6426V103.758H17.793ZM20.166 101.341C20.4883 101.341 20.7633 101.263 20.9912 101.106C21.2191 100.947 21.3932 100.721 21.5137 100.428C21.6374 100.132 21.6992 99.7799 21.6992 99.373V99.3633C21.6992 98.9531 21.6374 98.6016 21.5137 98.3086C21.3932 98.0156 21.2191 97.791 20.9912 97.6348C20.7633 97.4753 20.4883 97.3955 20.166 97.3955C19.847 97.3955 19.5719 97.4753 19.3408 97.6348C19.1097 97.7943 18.9323 98.0205 18.8086 98.3135C18.6849 98.6064 18.623 98.9564 18.623 99.3633V99.373C18.623 99.7767 18.6849 100.127 18.8086 100.423C18.9323 100.716 19.1097 100.942 19.3408 101.102C19.5719 101.261 19.847 101.341 20.166 101.341ZM25.7666 102.039C25.2262 102.039 24.834 101.93 24.5898 101.712C24.349 101.494 24.2285 101.134 24.2285 100.633V97.4395H23.3984V96.7363H24.2285V95.374H25.1074V96.7363H26.2598V97.4395H25.1074V100.418C25.1074 100.727 25.166 100.95 25.2832 101.087C25.4004 101.22 25.5957 101.287 25.8691 101.287C25.944 101.287 26.0075 101.285 26.0596 101.282C26.1149 101.279 26.1816 101.274 26.2598 101.268V101.99C26.1784 102.003 26.097 102.015 26.0156 102.024C25.9342 102.034 25.8512 102.039 25.7666 102.039ZM29.6094 102.093C29.1081 102.093 28.6768 101.982 28.3154 101.761C27.9574 101.539 27.6807 101.227 27.4854 100.823C27.2933 100.416 27.1973 99.9378 27.1973 99.3877V99.3828C27.1973 98.8392 27.2933 98.3623 27.4854 97.9521C27.6807 97.542 27.9557 97.2214 28.3105 96.9902C28.6654 96.7591 29.0804 96.6436 29.5557 96.6436C30.0342 96.6436 30.4443 96.7542 30.7861 96.9756C31.1312 97.1969 31.3949 97.5062 31.5771 97.9033C31.7627 98.2972 31.8555 98.7562 31.8555 99.2803V99.6123H27.6367V98.9336H31.4209L31.001 99.5537V99.2168C31.001 98.8034 30.9391 98.4632 30.8154 98.1963C30.6917 97.9294 30.5208 97.7308 30.3027 97.6006C30.0846 97.4671 29.834 97.4004 29.5508 97.4004C29.2676 97.4004 29.0137 97.4704 28.7891 97.6104C28.5677 97.7471 28.3919 97.9505 28.2617 98.2207C28.1315 98.4909 28.0664 98.8229 28.0664 99.2168V99.5537C28.0664 99.9281 28.1299 100.249 28.2568 100.516C28.3838 100.779 28.5645 100.983 28.7988 101.126C29.0332 101.266 29.3099 101.336 29.6289 101.336C29.8665 101.336 30.0732 101.303 30.249 101.238C30.4248 101.173 30.5697 101.09 30.6836 100.989C30.7975 100.888 30.8773 100.786 30.9229 100.682L30.9424 100.638H31.792L31.7822 100.677C31.7367 100.856 31.6553 101.03 31.5381 101.199C31.4242 101.365 31.276 101.517 31.0938 101.653C30.9115 101.787 30.695 101.894 30.4443 101.976C30.1969 102.054 29.9186 102.093 29.6094 102.093ZM33.1738 102V96.7363H34.0234V97.5176H34.1016C34.2025 97.2409 34.3734 97.026 34.6143 96.873C34.8551 96.7201 35.153 96.6436 35.5078 96.6436C35.5892 96.6436 35.6689 96.6484 35.7471 96.6582C35.8285 96.6647 35.8903 96.6712 35.9326 96.6777V97.5029C35.8447 97.4867 35.7585 97.4753 35.6738 97.4688C35.5924 97.459 35.5046 97.4541 35.4102 97.4541C35.14 97.4541 34.9007 97.5078 34.6924 97.6152C34.484 97.7227 34.3197 97.8724 34.1992 98.0645C34.082 98.2565 34.0234 98.4811 34.0234 98.7383V102H33.1738Z" fill="#3D454D"/>
<path d="M68 88C68 85.7909 69.7909 84 72 84H476C478.209 84 480 85.7909 480 88V96C480 98.2091 478.209 100 476 100H72C69.7909 100 68 98.2091 68 96V88Z" fill="#015DB1"/>
<path d="M484 92C484 87.5817 487.582 84 492 84H503C507.418 84 511 87.5817 511 92V92C511 96.4183 507.418 100 503 100H492C487.582 100 484 96.4183 484 92V92Z" fill="#F2F6FD"/>
<path d="M490.539 89.2266C490.823 89.2266 491.095 89.2799 491.355 89.3867C491.618 89.4909 491.854 89.6576 492.062 89.8867C492.271 90.1133 492.435 90.4089 492.555 90.7734C492.674 91.138 492.734 91.5794 492.734 92.0977V92.1055C492.734 92.7409 492.646 93.2852 492.469 93.7383C492.292 94.1888 492.036 94.5352 491.703 94.7773C491.372 95.0169 490.974 95.1367 490.508 95.1367C490.174 95.1367 489.874 95.0755 489.605 94.9531C489.34 94.8307 489.118 94.6615 488.941 94.4453C488.764 94.2292 488.645 93.9805 488.582 93.6992L488.57 93.6523H489.441L489.457 93.6914C489.509 93.8346 489.585 93.9583 489.684 94.0625C489.783 94.1667 489.901 94.2487 490.039 94.3086C490.177 94.3659 490.335 94.3945 490.512 94.3945C490.827 94.3945 491.083 94.3021 491.281 94.1172C491.482 93.9297 491.632 93.681 491.73 93.3711C491.829 93.0612 491.885 92.7201 491.898 92.3477C491.901 92.3086 491.902 92.2708 491.902 92.2344C491.902 92.1979 491.902 92.1628 491.902 92.1289L491.73 91.1875C491.73 90.9583 491.677 90.7513 491.57 90.5664C491.466 90.3815 491.324 90.2344 491.145 90.125C490.967 90.0156 490.768 89.9609 490.547 89.9609C490.328 89.9609 490.129 90.0143 489.949 90.1211C489.772 90.2279 489.63 90.3724 489.523 90.5547C489.417 90.7344 489.363 90.9375 489.363 91.1641V91.1719C489.363 91.401 489.414 91.6055 489.516 91.7852C489.617 91.9648 489.757 92.1068 489.934 92.2109C490.111 92.3125 490.311 92.3633 490.535 92.3633C490.762 92.3633 490.965 92.3125 491.145 92.2109C491.324 92.1094 491.466 91.9714 491.57 91.7969C491.677 91.6198 491.73 91.418 491.73 91.1914V91.1875H491.961V92.2148H491.824C491.757 92.3659 491.655 92.5065 491.52 92.6367C491.384 92.7669 491.217 92.8724 491.02 92.9531C490.824 93.0312 490.599 93.0703 490.344 93.0703C489.987 93.0703 489.669 92.9896 489.391 92.8281C489.112 92.6641 488.893 92.4414 488.734 92.1602C488.576 91.8763 488.496 91.5547 488.496 91.1953V91.1875C488.496 90.8099 488.583 90.474 488.758 90.1797C488.935 89.8828 489.177 89.6497 489.484 89.4805C489.794 89.3112 490.146 89.2266 490.539 89.2266ZM495.797 95.1367C495.43 95.1367 495.104 95.0664 494.82 94.9258C494.536 94.7852 494.31 94.5938 494.141 94.3516C493.971 94.1068 493.872 93.8333 493.844 93.5312L493.84 93.4805H494.664L494.668 93.5117C494.694 93.6758 494.757 93.8255 494.855 93.9609C494.957 94.0964 495.09 94.2031 495.254 94.2812C495.418 94.3594 495.602 94.3984 495.805 94.3984C496.036 94.3984 496.241 94.3477 496.418 94.2461C496.595 94.1419 496.733 94 496.832 93.8203C496.934 93.6406 496.984 93.4336 496.984 93.1992V93.1914C496.984 92.9596 496.934 92.7539 496.832 92.5742C496.73 92.3945 496.592 92.2552 496.418 92.1562C496.243 92.0547 496.042 92.0039 495.812 92.0039C495.643 92.0039 495.486 92.0299 495.34 92.082C495.197 92.1315 495.069 92.207 494.957 92.3086C494.908 92.3555 494.861 92.4062 494.816 92.4609C494.772 92.513 494.733 92.5716 494.699 92.6367H493.941L494.223 89.3633H497.504V90.1055H494.914L494.742 91.9023H494.805C494.885 91.7747 494.986 91.6667 495.105 91.5781C495.228 91.4896 495.366 91.4219 495.52 91.375C495.673 91.3281 495.836 91.3047 496.008 91.3047C496.362 91.3047 496.674 91.3854 496.945 91.5469C497.219 91.7083 497.434 91.9297 497.59 92.2109C497.746 92.4922 497.824 92.8138 497.824 93.1758V93.1836C497.824 93.5664 497.737 93.9049 497.562 94.1992C497.391 94.4935 497.152 94.724 496.848 94.8906C496.546 95.0547 496.195 95.1367 495.797 95.1367ZM500.047 92.375C499.794 92.375 499.577 92.3125 499.395 92.1875C499.215 92.0599 499.076 91.8815 498.977 91.6523C498.878 91.4206 498.828 91.1471 498.828 90.832V90.8281C498.828 90.5078 498.878 90.2331 498.977 90.0039C499.076 89.7747 499.215 89.5977 499.395 89.4727C499.577 89.3477 499.794 89.2852 500.047 89.2852C500.299 89.2852 500.517 89.3477 500.699 89.4727C500.884 89.5977 501.025 89.7747 501.121 90.0039C501.22 90.2331 501.27 90.5078 501.27 90.8281V90.832C501.27 91.1471 501.22 91.4206 501.121 91.6523C501.025 91.8815 500.884 92.0599 500.699 92.1875C500.517 92.3125 500.299 92.375 500.047 92.375ZM500.047 91.8516C500.232 91.8516 500.375 91.7617 500.477 91.582C500.581 91.4023 500.633 91.1523 500.633 90.832V90.8281C500.633 90.5052 500.581 90.2552 500.477 90.0781C500.375 89.8984 500.232 89.8086 500.047 89.8086C499.865 89.8086 499.723 89.8984 499.621 90.0781C499.52 90.2552 499.469 90.5052 499.469 90.8281V90.832C499.469 91.1523 499.52 91.4023 499.621 91.582C499.723 91.7617 499.865 91.8516 500.047 91.8516ZM500.633 95H499.902L503.723 89.3633H504.453L500.633 95ZM504.301 95.0781C504.048 95.0781 503.831 95.0156 503.648 94.8906C503.466 94.763 503.326 94.5846 503.227 94.3555C503.13 94.1237 503.082 93.849 503.082 93.5312V93.5273C503.082 93.2096 503.13 92.9362 503.227 92.707C503.326 92.4779 503.466 92.3008 503.648 92.1758C503.831 92.0508 504.048 91.9883 504.301 91.9883C504.553 91.9883 504.771 92.0508 504.953 92.1758C505.135 92.3008 505.275 92.4779 505.371 92.707C505.47 92.9362 505.52 93.2096 505.52 93.5273V93.5312C505.52 93.849 505.47 94.1237 505.371 94.3555C505.275 94.5846 505.135 94.763 504.953 94.8906C504.771 95.0156 504.553 95.0781 504.301 95.0781ZM504.301 94.5547C504.486 94.5547 504.629 94.4648 504.73 94.2852C504.832 94.1055 504.883 93.8542 504.883 93.5312V93.5273C504.883 93.207 504.832 92.9583 504.73 92.7812C504.629 92.6016 504.486 92.5117 504.301 92.5117C504.116 92.5117 503.973 92.6016 503.871 92.7812C503.77 92.9583 503.719 93.207 503.719 93.5273V93.5312C503.719 93.8542 503.77 94.1055 503.871 94.2852C503.973 94.4648 504.116 94.5547 504.301 94.5547Z" fill="#015DB1"/>
<path d="M2.3584 130L0.439453 122.954H1.35742L2.75879 128.682H2.81738L4.39453 122.954H5.2832L6.86035 128.682H6.91895L8.32031 122.954H9.23828L7.31934 130H6.48926L4.86816 124.438H4.80957L3.18848 130H2.3584ZM12.1289 130.093C11.6276 130.093 11.1963 129.982 10.835 129.761C10.4769 129.539 10.2002 129.227 10.0049 128.823C9.81283 128.416 9.7168 127.938 9.7168 127.388V127.383C9.7168 126.839 9.81283 126.362 10.0049 125.952C10.2002 125.542 10.4753 125.221 10.8301 124.99C11.1849 124.759 11.5999 124.644 12.0752 124.644C12.5537 124.644 12.9639 124.754 13.3057 124.976C13.6507 125.197 13.9144 125.506 14.0967 125.903C14.2822 126.297 14.375 126.756 14.375 127.28V127.612H10.1562V126.934H13.9404L13.5205 127.554V127.217C13.5205 126.803 13.4587 126.463 13.335 126.196C13.2113 125.929 13.0404 125.731 12.8223 125.601C12.6042 125.467 12.3535 125.4 12.0703 125.4C11.7871 125.4 11.5332 125.47 11.3086 125.61C11.0872 125.747 10.9115 125.951 10.7812 126.221C10.651 126.491 10.5859 126.823 10.5859 127.217V127.554C10.5859 127.928 10.6494 128.249 10.7764 128.516C10.9033 128.779 11.084 128.983 11.3184 129.126C11.5527 129.266 11.8294 129.336 12.1484 129.336C12.3861 129.336 12.5928 129.303 12.7686 129.238C12.9443 129.173 13.0892 129.09 13.2031 128.989C13.3171 128.888 13.3968 128.786 13.4424 128.682L13.4619 128.638H14.3115L14.3018 128.677C14.2562 128.856 14.1748 129.03 14.0576 129.199C13.9437 129.365 13.7956 129.517 13.6133 129.653C13.431 129.787 13.2145 129.894 12.9639 129.976C12.7165 130.054 12.4382 130.093 12.1289 130.093ZM17.5 130.093C17.1094 130.093 16.7643 130.034 16.4648 129.917C16.1654 129.797 15.9245 129.629 15.7422 129.414C15.5632 129.199 15.4574 128.947 15.4248 128.657H16.2939C16.3656 128.875 16.5055 129.051 16.7139 129.185C16.9222 129.318 17.194 129.385 17.5293 129.385C17.7669 129.385 17.9753 129.351 18.1543 129.282C18.3366 129.211 18.4798 129.115 18.584 128.994C18.6882 128.87 18.7402 128.729 18.7402 128.569V128.56C18.7402 128.381 18.6686 128.229 18.5254 128.105C18.3822 127.979 18.1478 127.876 17.8223 127.798L17.0068 127.603C16.6781 127.524 16.4079 127.424 16.1963 127.3C15.9847 127.173 15.8285 127.018 15.7275 126.836C15.6266 126.65 15.5762 126.432 15.5762 126.182V126.177C15.5762 125.884 15.6608 125.622 15.8301 125.391C16.0026 125.16 16.237 124.977 16.5332 124.844C16.8294 124.71 17.1631 124.644 17.5342 124.644C17.902 124.644 18.2275 124.702 18.5107 124.819C18.7972 124.933 19.0267 125.096 19.1992 125.308C19.375 125.519 19.4824 125.768 19.5215 126.055H18.6865C18.6312 125.846 18.5042 125.677 18.3057 125.547C18.1071 125.417 17.8483 125.352 17.5293 125.352C17.321 125.352 17.1354 125.386 16.9727 125.454C16.8099 125.519 16.6813 125.61 16.5869 125.728C16.4925 125.845 16.4453 125.981 16.4453 126.138V126.147C16.4453 126.265 16.4762 126.369 16.5381 126.46C16.5999 126.551 16.696 126.631 16.8262 126.699C16.9564 126.768 17.124 126.828 17.3291 126.88L18.1396 127.075C18.6344 127.196 19.0023 127.368 19.2432 127.593C19.4873 127.817 19.6094 128.118 19.6094 128.496V128.506C19.6094 128.818 19.5166 129.095 19.3311 129.336C19.1455 129.574 18.8932 129.759 18.5742 129.893C18.2585 130.026 17.9004 130.093 17.5 130.093ZM22.749 130.039C22.2087 130.039 21.8164 129.93 21.5723 129.712C21.3314 129.494 21.2109 129.134 21.2109 128.633V125.439H20.3809V124.736H21.2109V123.374H22.0898V124.736H23.2422V125.439H22.0898V128.418C22.0898 128.727 22.1484 128.95 22.2656 129.087C22.3828 129.22 22.5781 129.287 22.8516 129.287C22.9264 129.287 22.9899 129.285 23.042 129.282C23.0973 129.279 23.1641 129.274 23.2422 129.268V129.99C23.1608 130.003 23.0794 130.015 22.998 130.024C22.9167 130.034 22.8337 130.039 22.749 130.039ZM26.5918 130.093C26.0905 130.093 25.6592 129.982 25.2979 129.761C24.9398 129.539 24.6631 129.227 24.4678 128.823C24.2757 128.416 24.1797 127.938 24.1797 127.388V127.383C24.1797 126.839 24.2757 126.362 24.4678 125.952C24.6631 125.542 24.9382 125.221 25.293 124.99C25.6478 124.759 26.0628 124.644 26.5381 124.644C27.0166 124.644 27.4268 124.754 27.7686 124.976C28.1136 125.197 28.3773 125.506 28.5596 125.903C28.7451 126.297 28.8379 126.756 28.8379 127.28V127.612H24.6191V126.934H28.4033L27.9834 127.554V127.217C27.9834 126.803 27.9215 126.463 27.7979 126.196C27.6742 125.929 27.5033 125.731 27.2852 125.601C27.0671 125.467 26.8164 125.4 26.5332 125.4C26.25 125.4 25.9961 125.47 25.7715 125.61C25.5501 125.747 25.3743 125.951 25.2441 126.221C25.1139 126.491 25.0488 126.823 25.0488 127.217V127.554C25.0488 127.928 25.1123 128.249 25.2393 128.516C25.3662 128.779 25.5469 128.983 25.7812 129.126C26.0156 129.266 26.2923 129.336 26.6113 129.336C26.849 129.336 27.0557 129.303 27.2314 129.238C27.4072 129.173 27.5521 129.09 27.666 128.989C27.7799 128.888 27.8597 128.786 27.9053 128.682L27.9248 128.638H28.7744L28.7646 128.677C28.7191 128.856 28.6377 129.03 28.5205 129.199C28.4066 129.365 28.2585 129.517 28.0762 129.653C27.8939 129.787 27.6774 129.894 27.4268 129.976C27.1794 130.054 26.901 130.093 26.5918 130.093ZM30.1562 130V124.736H31.0059V125.518H31.084C31.1849 125.241 31.3558 125.026 31.5967 124.873C31.8376 124.72 32.1354 124.644 32.4902 124.644C32.5716 124.644 32.6514 124.648 32.7295 124.658C32.8109 124.665 32.8727 124.671 32.915 124.678V125.503C32.8271 125.487 32.7409 125.475 32.6562 125.469C32.5749 125.459 32.487 125.454 32.3926 125.454C32.1224 125.454 31.8831 125.508 31.6748 125.615C31.4665 125.723 31.3021 125.872 31.1816 126.064C31.0645 126.257 31.0059 126.481 31.0059 126.738V130H30.1562ZM34.0625 130V124.736H34.9121V125.527H34.9902C35.1237 125.247 35.3158 125.031 35.5664 124.878C35.8171 124.722 36.1361 124.644 36.5234 124.644C37.1159 124.644 37.57 124.813 37.8857 125.151C38.2048 125.487 38.3643 125.967 38.3643 126.592V130H37.5146V126.797C37.5146 126.322 37.4137 125.97 37.2119 125.742C37.0133 125.511 36.7041 125.396 36.2842 125.396C36.0042 125.396 35.7617 125.456 35.5566 125.576C35.3516 125.697 35.1921 125.868 35.0781 126.089C34.9674 126.31 34.9121 126.576 34.9121 126.885V130H34.0625ZM2.94434 142.093C2.4528 142.093 2.02637 141.98 1.66504 141.756C1.30371 141.531 1.02376 141.214 0.825195 140.804C0.626628 140.394 0.527344 139.91 0.527344 139.354V139.344C0.527344 138.797 0.625 138.322 0.820312 137.918C1.01888 137.514 1.29883 137.202 1.66016 136.98C2.02148 136.756 2.44792 136.644 2.93945 136.644C3.36589 136.644 3.73372 136.718 4.04297 136.868C4.35221 137.018 4.59961 137.22 4.78516 137.474C4.9707 137.724 5.08952 138.006 5.1416 138.318L5.14648 138.348H4.30176L4.29688 138.333C4.23177 138.073 4.08366 137.851 3.85254 137.669C3.62142 137.487 3.31706 137.396 2.93945 137.396C2.6237 137.396 2.35026 137.475 2.11914 137.635C1.88802 137.794 1.70898 138.021 1.58203 138.313C1.45833 138.603 1.39648 138.947 1.39648 139.344V139.354C1.39648 139.757 1.45996 140.109 1.58691 140.408C1.71387 140.704 1.8929 140.934 2.12402 141.097C2.35514 141.259 2.62695 141.341 2.93945 141.341C3.29427 141.341 3.58398 141.264 3.80859 141.111C4.0332 140.958 4.19434 140.735 4.29199 140.442L4.30176 140.413L5.1416 140.408L5.13184 140.462C5.06022 140.778 4.93327 141.059 4.75098 141.307C4.56868 141.551 4.3278 141.743 4.02832 141.883C3.72884 142.023 3.36751 142.093 2.94434 142.093ZM6.43555 142V134.646H7.28516V137.527H7.36328C7.49674 137.247 7.6888 137.031 7.93945 136.878C8.1901 136.722 8.50911 136.644 8.89648 136.644C9.29036 136.644 9.62402 136.72 9.89746 136.873C10.1709 137.023 10.3792 137.243 10.5225 137.532C10.6657 137.822 10.7373 138.175 10.7373 138.592V142H9.8877V138.797C9.8877 138.322 9.78678 137.97 9.58496 137.742C9.38639 137.511 9.07715 137.396 8.65723 137.396C8.37728 137.396 8.13477 137.456 7.92969 137.576C7.72461 137.697 7.5651 137.868 7.45117 138.089C7.34049 138.31 7.28516 138.576 7.28516 138.885V142H6.43555ZM13.7207 142.093C13.3887 142.093 13.0892 142.029 12.8223 141.902C12.5586 141.775 12.3486 141.595 12.1924 141.36C12.0394 141.126 11.9629 140.849 11.9629 140.53V140.521C11.9629 140.208 12.0378 139.941 12.1875 139.72C12.3372 139.495 12.5553 139.319 12.8418 139.192C13.1283 139.065 13.4749 138.991 13.8818 138.968L15.8154 138.851V139.529L13.9844 139.646C13.584 139.669 13.291 139.752 13.1055 139.896C12.9232 140.039 12.832 140.241 12.832 140.501V140.511C12.832 140.778 12.9329 140.986 13.1348 141.136C13.3366 141.282 13.5905 141.355 13.8965 141.355C14.1862 141.355 14.4434 141.299 14.668 141.185C14.8926 141.067 15.0684 140.91 15.1953 140.711C15.3255 140.512 15.3906 140.288 15.3906 140.037V138.396C15.3906 138.071 15.2913 137.824 15.0928 137.654C14.8975 137.482 14.6029 137.396 14.209 137.396C13.8932 137.396 13.6344 137.452 13.4326 137.566C13.2308 137.677 13.0957 137.835 13.0273 138.04L13.0225 138.055H12.1729L12.1777 138.025C12.2233 137.749 12.3372 137.508 12.5195 137.303C12.7051 137.094 12.9443 136.933 13.2373 136.819C13.5303 136.702 13.8639 136.644 14.2383 136.644C14.668 136.644 15.0309 136.714 15.3271 136.854C15.6266 136.993 15.8529 137.195 16.0059 137.459C16.1621 137.719 16.2402 138.032 16.2402 138.396V142H15.3906V141.224H15.3125C15.2018 141.409 15.0667 141.567 14.9072 141.697C14.751 141.827 14.5736 141.927 14.375 141.995C14.1764 142.06 13.9583 142.093 13.7207 142.093ZM17.793 143.758V136.736H18.6426V137.576H18.7207C18.8281 137.381 18.9632 137.215 19.126 137.078C19.2887 136.938 19.4743 136.831 19.6826 136.756C19.891 136.681 20.1172 136.644 20.3613 136.644C20.8073 136.644 21.1947 136.757 21.5234 136.985C21.8555 137.21 22.1126 137.526 22.2949 137.933C22.4772 138.34 22.5684 138.816 22.5684 139.363V139.373C22.5684 139.923 22.4772 140.402 22.2949 140.809C22.1126 141.215 21.8555 141.531 21.5234 141.756C21.1947 141.98 20.8073 142.093 20.3613 142.093C20.1204 142.093 19.8926 142.055 19.6777 141.98C19.4661 141.902 19.2773 141.795 19.1113 141.658C18.9486 141.521 18.8184 141.359 18.7207 141.17H18.6426V143.758H17.793ZM20.166 141.341C20.4883 141.341 20.7633 141.263 20.9912 141.106C21.2191 140.947 21.3932 140.721 21.5137 140.428C21.6374 140.132 21.6992 139.78 21.6992 139.373V139.363C21.6992 138.953 21.6374 138.602 21.5137 138.309C21.3932 138.016 21.2191 137.791 20.9912 137.635C20.7633 137.475 20.4883 137.396 20.166 137.396C19.847 137.396 19.5719 137.475 19.3408 137.635C19.1097 137.794 18.9323 138.021 18.8086 138.313C18.6849 138.606 18.623 138.956 18.623 139.363V139.373C18.623 139.777 18.6849 140.127 18.8086 140.423C18.9323 140.716 19.1097 140.942 19.3408 141.102C19.5719 141.261 19.847 141.341 20.166 141.341ZM25.7666 142.039C25.2262 142.039 24.834 141.93 24.5898 141.712C24.349 141.494 24.2285 141.134 24.2285 140.633V137.439H23.3984V136.736H24.2285V135.374H25.1074V136.736H26.2598V137.439H25.1074V140.418C25.1074 140.727 25.166 140.95 25.2832 141.087C25.4004 141.22 25.5957 141.287 25.8691 141.287C25.944 141.287 26.0075 141.285 26.0596 141.282C26.1149 141.279 26.1816 141.274 26.2598 141.268V141.99C26.1784 142.003 26.097 142.015 26.0156 142.024C25.9342 142.034 25.8512 142.039 25.7666 142.039ZM29.6094 142.093C29.1081 142.093 28.6768 141.982 28.3154 141.761C27.9574 141.539 27.6807 141.227 27.4854 140.823C27.2933 140.416 27.1973 139.938 27.1973 139.388V139.383C27.1973 138.839 27.2933 138.362 27.4854 137.952C27.6807 137.542 27.9557 137.221 28.3105 136.99C28.6654 136.759 29.0804 136.644 29.5557 136.644C30.0342 136.644 30.4443 136.754 30.7861 136.976C31.1312 137.197 31.3949 137.506 31.5771 137.903C31.7627 138.297 31.8555 138.756 31.8555 139.28V139.612H27.6367V138.934H31.4209L31.001 139.554V139.217C31.001 138.803 30.9391 138.463 30.8154 138.196C30.6917 137.929 30.5208 137.731 30.3027 137.601C30.0846 137.467 29.834 137.4 29.5508 137.4C29.2676 137.4 29.0137 137.47 28.7891 137.61C28.5677 137.747 28.3919 137.951 28.2617 138.221C28.1315 138.491 28.0664 138.823 28.0664 139.217V139.554C28.0664 139.928 28.1299 140.249 28.2568 140.516C28.3838 140.779 28.5645 140.983 28.7988 141.126C29.0332 141.266 29.3099 141.336 29.6289 141.336C29.8665 141.336 30.0732 141.303 30.249 141.238C30.4248 141.173 30.5697 141.09 30.6836 140.989C30.7975 140.888 30.8773 140.786 30.9229 140.682L30.9424 140.638H31.792L31.7822 140.677C31.7367 140.856 31.6553 141.03 31.5381 141.199C31.4242 141.365 31.276 141.517 31.0938 141.653C30.9115 141.787 30.695 141.894 30.4443 141.976C30.1969 142.054 29.9186 142.093 29.6094 142.093ZM33.1738 142V136.736H34.0234V137.518H34.1016C34.2025 137.241 34.3734 137.026 34.6143 136.873C34.8551 136.72 35.153 136.644 35.5078 136.644C35.5892 136.644 35.6689 136.648 35.7471 136.658C35.8285 136.665 35.8903 136.671 35.9326 136.678V137.503C35.8447 137.487 35.7585 137.475 35.6738 137.469C35.5924 137.459 35.5046 137.454 35.4102 137.454C35.14 137.454 34.9007 137.508 34.6924 137.615C34.484 137.723 34.3197 137.872 34.1992 138.064C34.082 138.257 34.0234 138.481 34.0234 138.738V142H33.1738Z" fill="#3D454D"/>
<path d="M68 128C68 125.791 69.7909 124 72 124H449C451.209 124 453 125.791 453 128V136C453 138.209 451.209 140 449 140H72C69.7909 140 68 138.209 68 136V128Z" fill="#015DB1"/>
<path d="M457 132C457 127.582 460.582 124 465 124H474C478.418 124 482 127.582 482 132V132C482 136.418 478.418 140 474 140H465C460.582 140 457 136.418 457 132V132Z" fill="#F2F6FD"/>
<path d="M463.539 129.227C463.823 129.227 464.095 129.28 464.355 129.387C464.618 129.491 464.854 129.658 465.062 129.887C465.271 130.113 465.435 130.409 465.555 130.773C465.674 131.138 465.734 131.579 465.734 132.098V132.105C465.734 132.741 465.646 133.285 465.469 133.738C465.292 134.189 465.036 134.535 464.703 134.777C464.372 135.017 463.974 135.137 463.508 135.137C463.174 135.137 462.874 135.076 462.605 134.953C462.34 134.831 462.118 134.661 461.941 134.445C461.764 134.229 461.645 133.98 461.582 133.699L461.57 133.652H462.441L462.457 133.691C462.509 133.835 462.585 133.958 462.684 134.062C462.783 134.167 462.901 134.249 463.039 134.309C463.177 134.366 463.335 134.395 463.512 134.395C463.827 134.395 464.083 134.302 464.281 134.117C464.482 133.93 464.632 133.681 464.73 133.371C464.829 133.061 464.885 132.72 464.898 132.348C464.901 132.309 464.902 132.271 464.902 132.234C464.902 132.198 464.902 132.163 464.902 132.129L464.73 131.188C464.73 130.958 464.677 130.751 464.57 130.566C464.466 130.382 464.324 130.234 464.145 130.125C463.967 130.016 463.768 129.961 463.547 129.961C463.328 129.961 463.129 130.014 462.949 130.121C462.772 130.228 462.63 130.372 462.523 130.555C462.417 130.734 462.363 130.938 462.363 131.164V131.172C462.363 131.401 462.414 131.605 462.516 131.785C462.617 131.965 462.757 132.107 462.934 132.211C463.111 132.312 463.311 132.363 463.535 132.363C463.762 132.363 463.965 132.312 464.145 132.211C464.324 132.109 464.466 131.971 464.57 131.797C464.677 131.62 464.73 131.418 464.73 131.191V131.188H464.961V132.215H464.824C464.757 132.366 464.655 132.507 464.52 132.637C464.384 132.767 464.217 132.872 464.02 132.953C463.824 133.031 463.599 133.07 463.344 133.07C462.987 133.07 462.669 132.99 462.391 132.828C462.112 132.664 461.893 132.441 461.734 132.16C461.576 131.876 461.496 131.555 461.496 131.195V131.188C461.496 130.81 461.583 130.474 461.758 130.18C461.935 129.883 462.177 129.65 462.484 129.48C462.794 129.311 463.146 129.227 463.539 129.227ZM468.219 135V130.266H468.156L466.738 131.277V130.418L468.223 129.363H469.098V135H468.219ZM471.82 132.375C471.568 132.375 471.35 132.312 471.168 132.188C470.988 132.06 470.849 131.882 470.75 131.652C470.651 131.421 470.602 131.147 470.602 130.832V130.828C470.602 130.508 470.651 130.233 470.75 130.004C470.849 129.775 470.988 129.598 471.168 129.473C471.35 129.348 471.568 129.285 471.82 129.285C472.073 129.285 472.29 129.348 472.473 129.473C472.658 129.598 472.798 129.775 472.895 130.004C472.993 130.233 473.043 130.508 473.043 130.828V130.832C473.043 131.147 472.993 131.421 472.895 131.652C472.798 131.882 472.658 132.06 472.473 132.188C472.29 132.312 472.073 132.375 471.82 132.375ZM471.82 131.852C472.005 131.852 472.148 131.762 472.25 131.582C472.354 131.402 472.406 131.152 472.406 130.832V130.828C472.406 130.505 472.354 130.255 472.25 130.078C472.148 129.898 472.005 129.809 471.82 129.809C471.638 129.809 471.496 129.898 471.395 130.078C471.293 130.255 471.242 130.505 471.242 130.828V130.832C471.242 131.152 471.293 131.402 471.395 131.582C471.496 131.762 471.638 131.852 471.82 131.852ZM472.406 135H471.676L475.496 129.363H476.227L472.406 135ZM476.074 135.078C475.822 135.078 475.604 135.016 475.422 134.891C475.24 134.763 475.099 134.585 475 134.355C474.904 134.124 474.855 133.849 474.855 133.531V133.527C474.855 133.21 474.904 132.936 475 132.707C475.099 132.478 475.24 132.301 475.422 132.176C475.604 132.051 475.822 131.988 476.074 131.988C476.327 131.988 476.544 132.051 476.727 132.176C476.909 132.301 477.048 132.478 477.145 132.707C477.243 132.936 477.293 133.21 477.293 133.527V133.531C477.293 133.849 477.243 134.124 477.145 134.355C477.048 134.585 476.909 134.763 476.727 134.891C476.544 135.016 476.327 135.078 476.074 135.078ZM476.074 134.555C476.259 134.555 476.402 134.465 476.504 134.285C476.605 134.105 476.656 133.854 476.656 133.531V133.527C476.656 133.207 476.605 132.958 476.504 132.781C476.402 132.602 476.259 132.512 476.074 132.512C475.889 132.512 475.746 132.602 475.645 132.781C475.543 132.958 475.492 133.207 475.492 133.527V133.531C475.492 133.854 475.543 134.105 475.645 134.285C475.746 134.465 475.889 134.555 476.074 134.555Z" fill="#015DB1"/>
<path d="M3.73535 170.166C3.09733 170.166 2.54557 170.016 2.08008 169.717C1.61458 169.417 1.25488 168.993 1.00098 168.442C0.750326 167.892 0.625 167.24 0.625 166.484V166.475C0.625 165.716 0.750326 165.062 1.00098 164.512C1.25488 163.962 1.61296 163.537 2.0752 163.237C2.54069 162.938 3.09245 162.788 3.73047 162.788C4.22526 162.788 4.67448 162.886 5.07812 163.081C5.48503 163.273 5.82031 163.542 6.08398 163.887C6.34766 164.229 6.51367 164.624 6.58203 165.073L6.57715 165.083H5.69336L5.68848 165.073C5.61035 164.771 5.47852 164.51 5.29297 164.292C5.10742 164.071 4.88118 163.9 4.61426 163.779C4.35059 163.659 4.05599 163.599 3.73047 163.599C3.28125 163.599 2.89062 163.716 2.55859 163.95C2.22982 164.185 1.97591 164.517 1.79688 164.946C1.61784 165.376 1.52832 165.885 1.52832 166.475V166.484C1.52832 167.07 1.61784 167.578 1.79688 168.008C1.97591 168.438 2.22982 168.77 2.55859 169.004C2.89062 169.238 3.28288 169.355 3.73535 169.355C4.06413 169.355 4.36198 169.303 4.62891 169.199C4.89583 169.092 5.12044 168.94 5.30273 168.745C5.48503 168.547 5.61198 168.312 5.68359 168.042L5.69336 168.032H6.58203V168.042C6.50391 168.472 6.33464 168.846 6.07422 169.165C5.8138 169.481 5.4834 169.727 5.08301 169.902C4.68587 170.078 4.23665 170.166 3.73535 170.166ZM10.0977 170.093C9.59635 170.093 9.16504 169.982 8.80371 169.761C8.44564 169.539 8.16895 169.227 7.97363 168.823C7.78158 168.416 7.68555 167.938 7.68555 167.388V167.383C7.68555 166.839 7.78158 166.362 7.97363 165.952C8.16895 165.542 8.44401 165.221 8.79883 164.99C9.15365 164.759 9.56868 164.644 10.0439 164.644C10.5225 164.644 10.9326 164.754 11.2744 164.976C11.6195 165.197 11.8831 165.506 12.0654 165.903C12.251 166.297 12.3438 166.756 12.3438 167.28V167.612H8.125V166.934H11.9092L11.4893 167.554V167.217C11.4893 166.803 11.4274 166.463 11.3037 166.196C11.18 165.929 11.0091 165.731 10.791 165.601C10.5729 165.467 10.3223 165.4 10.0391 165.4C9.75586 165.4 9.50195 165.47 9.27734 165.61C9.05599 165.747 8.88021 165.951 8.75 166.221C8.61979 166.491 8.55469 166.823 8.55469 167.217V167.554C8.55469 167.928 8.61816 168.249 8.74512 168.516C8.87207 168.779 9.05273 168.983 9.28711 169.126C9.52148 169.266 9.79818 169.336 10.1172 169.336C10.3548 169.336 10.5615 169.303 10.7373 169.238C10.9131 169.173 11.0579 169.09 11.1719 168.989C11.2858 168.888 11.3656 168.786 11.4111 168.682L11.4307 168.638H12.2803L12.2705 168.677C12.2249 168.856 12.1436 169.03 12.0264 169.199C11.9124 169.365 11.7643 169.517 11.582 169.653C11.3997 169.787 11.1833 169.894 10.9326 169.976C10.6852 170.054 10.4069 170.093 10.0977 170.093ZM13.6621 170V164.736H14.5117V165.527H14.5898C14.7233 165.247 14.9154 165.031 15.166 164.878C15.4167 164.722 15.7357 164.644 16.123 164.644C16.7155 164.644 17.1696 164.813 17.4854 165.151C17.8044 165.487 17.9639 165.967 17.9639 166.592V170H17.1143V166.797C17.1143 166.322 17.0133 165.97 16.8115 165.742C16.613 165.511 16.3037 165.396 15.8838 165.396C15.6038 165.396 15.3613 165.456 15.1562 165.576C14.9512 165.697 14.7917 165.868 14.6777 166.089C14.5671 166.31 14.5117 166.576 14.5117 166.885V170H13.6621ZM21.3721 170.039C20.8317 170.039 20.4395 169.93 20.1953 169.712C19.9544 169.494 19.834 169.134 19.834 168.633V165.439H19.0039V164.736H19.834V163.374H20.7129V164.736H21.8652V165.439H20.7129V168.418C20.7129 168.727 20.7715 168.95 20.8887 169.087C21.0059 169.22 21.2012 169.287 21.4746 169.287C21.5495 169.287 21.613 169.285 21.665 169.282C21.7204 169.279 21.7871 169.274 21.8652 169.268V169.99C21.7839 170.003 21.7025 170.015 21.6211 170.024C21.5397 170.034 21.4567 170.039 21.3721 170.039ZM23.1348 170V164.736H23.9844V165.518H24.0625C24.1634 165.241 24.3343 165.026 24.5752 164.873C24.8161 164.72 25.1139 164.644 25.4688 164.644C25.5501 164.644 25.6299 164.648 25.708 164.658C25.7894 164.665 25.8512 164.671 25.8936 164.678V165.503C25.8057 165.487 25.7194 165.475 25.6348 165.469C25.5534 165.459 25.4655 165.454 25.3711 165.454C25.1009 165.454 24.8617 165.508 24.6533 165.615C24.445 165.723 24.2806 165.872 24.1602 166.064C24.043 166.257 23.9844 166.481 23.9844 166.738V170H23.1348ZM28.3887 170.093C28.0566 170.093 27.7572 170.029 27.4902 169.902C27.2266 169.775 27.0166 169.595 26.8604 169.36C26.7074 169.126 26.6309 168.849 26.6309 168.53V168.521C26.6309 168.208 26.7057 167.941 26.8555 167.72C27.0052 167.495 27.2233 167.319 27.5098 167.192C27.7962 167.065 28.1429 166.991 28.5498 166.968L30.4834 166.851V167.529L28.6523 167.646C28.252 167.669 27.959 167.752 27.7734 167.896C27.5911 168.039 27.5 168.241 27.5 168.501V168.511C27.5 168.778 27.6009 168.986 27.8027 169.136C28.0046 169.282 28.2585 169.355 28.5645 169.355C28.8542 169.355 29.1113 169.299 29.3359 169.185C29.5605 169.067 29.7363 168.91 29.8633 168.711C29.9935 168.512 30.0586 168.288 30.0586 168.037V166.396C30.0586 166.071 29.9593 165.824 29.7607 165.654C29.5654 165.482 29.2708 165.396 28.877 165.396C28.5612 165.396 28.3024 165.452 28.1006 165.566C27.8988 165.677 27.7637 165.835 27.6953 166.04L27.6904 166.055H26.8408L26.8457 166.025C26.8913 165.749 27.0052 165.508 27.1875 165.303C27.373 165.094 27.6123 164.933 27.9053 164.819C28.1982 164.702 28.5319 164.644 28.9062 164.644C29.3359 164.644 29.6989 164.714 29.9951 164.854C30.2946 164.993 30.5208 165.195 30.6738 165.459C30.8301 165.719 30.9082 166.032 30.9082 166.396V170H30.0586V169.224H29.9805C29.8698 169.409 29.7347 169.567 29.5752 169.697C29.4189 169.827 29.2415 169.927 29.043 169.995C28.8444 170.06 28.6263 170.093 28.3887 170.093ZM32.5098 170V162.646H33.3594V170H32.5098ZM2.94434 182.093C2.4528 182.093 2.02637 181.98 1.66504 181.756C1.30371 181.531 1.02376 181.214 0.825195 180.804C0.626628 180.394 0.527344 179.91 0.527344 179.354V179.344C0.527344 178.797 0.625 178.322 0.820312 177.918C1.01888 177.514 1.29883 177.202 1.66016 176.98C2.02148 176.756 2.44792 176.644 2.93945 176.644C3.36589 176.644 3.73372 176.718 4.04297 176.868C4.35221 177.018 4.59961 177.22 4.78516 177.474C4.9707 177.724 5.08952 178.006 5.1416 178.318L5.14648 178.348H4.30176L4.29688 178.333C4.23177 178.073 4.08366 177.851 3.85254 177.669C3.62142 177.487 3.31706 177.396 2.93945 177.396C2.6237 177.396 2.35026 177.475 2.11914 177.635C1.88802 177.794 1.70898 178.021 1.58203 178.313C1.45833 178.603 1.39648 178.947 1.39648 179.344V179.354C1.39648 179.757 1.45996 180.109 1.58691 180.408C1.71387 180.704 1.8929 180.934 2.12402 181.097C2.35514 181.259 2.62695 181.341 2.93945 181.341C3.29427 181.341 3.58398 181.264 3.80859 181.111C4.0332 180.958 4.19434 180.735 4.29199 180.442L4.30176 180.413L5.1416 180.408L5.13184 180.462C5.06022 180.778 4.93327 181.059 4.75098 181.307C4.56868 181.551 4.3278 181.743 4.02832 181.883C3.72884 182.023 3.36751 182.093 2.94434 182.093ZM6.43555 182V174.646H7.28516V177.527H7.36328C7.49674 177.247 7.6888 177.031 7.93945 176.878C8.1901 176.722 8.50911 176.644 8.89648 176.644C9.29036 176.644 9.62402 176.72 9.89746 176.873C10.1709 177.023 10.3792 177.243 10.5225 177.532C10.6657 177.822 10.7373 178.175 10.7373 178.592V182H9.8877V178.797C9.8877 178.322 9.78678 177.97 9.58496 177.742C9.38639 177.511 9.07715 177.396 8.65723 177.396C8.37728 177.396 8.13477 177.456 7.92969 177.576C7.72461 177.697 7.5651 177.868 7.45117 178.089C7.34049 178.31 7.28516 178.576 7.28516 178.885V182H6.43555ZM13.7207 182.093C13.3887 182.093 13.0892 182.029 12.8223 181.902C12.5586 181.775 12.3486 181.595 12.1924 181.36C12.0394 181.126 11.9629 180.849 11.9629 180.53V180.521C11.9629 180.208 12.0378 179.941 12.1875 179.72C12.3372 179.495 12.5553 179.319 12.8418 179.192C13.1283 179.065 13.4749 178.991 13.8818 178.968L15.8154 178.851V179.529L13.9844 179.646C13.584 179.669 13.291 179.752 13.1055 179.896C12.9232 180.039 12.832 180.241 12.832 180.501V180.511C12.832 180.778 12.9329 180.986 13.1348 181.136C13.3366 181.282 13.5905 181.355 13.8965 181.355C14.1862 181.355 14.4434 181.299 14.668 181.185C14.8926 181.067 15.0684 180.91 15.1953 180.711C15.3255 180.512 15.3906 180.288 15.3906 180.037V178.396C15.3906 178.071 15.2913 177.824 15.0928 177.654C14.8975 177.482 14.6029 177.396 14.209 177.396C13.8932 177.396 13.6344 177.452 13.4326 177.566C13.2308 177.677 13.0957 177.835 13.0273 178.04L13.0225 178.055H12.1729L12.1777 178.025C12.2233 177.749 12.3372 177.508 12.5195 177.303C12.7051 177.094 12.9443 176.933 13.2373 176.819C13.5303 176.702 13.8639 176.644 14.2383 176.644C14.668 176.644 15.0309 176.714 15.3271 176.854C15.6266 176.993 15.8529 177.195 16.0059 177.459C16.1621 177.719 16.2402 178.032 16.2402 178.396V182H15.3906V181.224H15.3125C15.2018 181.409 15.0667 181.567 14.9072 181.697C14.751 181.827 14.5736 181.927 14.375 181.995C14.1764 182.06 13.9583 182.093 13.7207 182.093ZM17.793 183.758V176.736H18.6426V177.576H18.7207C18.8281 177.381 18.9632 177.215 19.126 177.078C19.2887 176.938 19.4743 176.831 19.6826 176.756C19.891 176.681 20.1172 176.644 20.3613 176.644C20.8073 176.644 21.1947 176.757 21.5234 176.985C21.8555 177.21 22.1126 177.526 22.2949 177.933C22.4772 178.34 22.5684 178.816 22.5684 179.363V179.373C22.5684 179.923 22.4772 180.402 22.2949 180.809C22.1126 181.215 21.8555 181.531 21.5234 181.756C21.1947 181.98 20.8073 182.093 20.3613 182.093C20.1204 182.093 19.8926 182.055 19.6777 181.98C19.4661 181.902 19.2773 181.795 19.1113 181.658C18.9486 181.521 18.8184 181.359 18.7207 181.17H18.6426V183.758H17.793ZM20.166 181.341C20.4883 181.341 20.7633 181.263 20.9912 181.106C21.2191 180.947 21.3932 180.721 21.5137 180.428C21.6374 180.132 21.6992 179.78 21.6992 179.373V179.363C21.6992 178.953 21.6374 178.602 21.5137 178.309C21.3932 178.016 21.2191 177.791 20.9912 177.635C20.7633 177.475 20.4883 177.396 20.166 177.396C19.847 177.396 19.5719 177.475 19.3408 177.635C19.1097 177.794 18.9323 178.021 18.8086 178.313C18.6849 178.606 18.623 178.956 18.623 179.363V179.373C18.623 179.777 18.6849 180.127 18.8086 180.423C18.9323 180.716 19.1097 180.942 19.3408 181.102C19.5719 181.261 19.847 181.341 20.166 181.341ZM25.7666 182.039C25.2262 182.039 24.834 181.93 24.5898 181.712C24.349 181.494 24.2285 181.134 24.2285 180.633V177.439H23.3984V176.736H24.2285V175.374H25.1074V176.736H26.2598V177.439H25.1074V180.418C25.1074 180.727 25.166 180.95 25.2832 181.087C25.4004 181.22 25.5957 181.287 25.8691 181.287C25.944 181.287 26.0075 181.285 26.0596 181.282C26.1149 181.279 26.1816 181.274 26.2598 181.268V181.99C26.1784 182.003 26.097 182.015 26.0156 182.024C25.9342 182.034 25.8512 182.039 25.7666 182.039ZM29.6094 182.093C29.1081 182.093 28.6768 181.982 28.3154 181.761C27.9574 181.539 27.6807 181.227 27.4854 180.823C27.2933 180.416 27.1973 179.938 27.1973 179.388V179.383C27.1973 178.839 27.2933 178.362 27.4854 177.952C27.6807 177.542 27.9557 177.221 28.3105 176.99C28.6654 176.759 29.0804 176.644 29.5557 176.644C30.0342 176.644 30.4443 176.754 30.7861 176.976C31.1312 177.197 31.3949 177.506 31.5771 177.903C31.7627 178.297 31.8555 178.756 31.8555 179.28V179.612H27.6367V178.934H31.4209L31.001 179.554V179.217C31.001 178.803 30.9391 178.463 30.8154 178.196C30.6917 177.929 30.5208 177.731 30.3027 177.601C30.0846 177.467 29.834 177.4 29.5508 177.4C29.2676 177.4 29.0137 177.47 28.7891 177.61C28.5677 177.747 28.3919 177.951 28.2617 178.221C28.1315 178.491 28.0664 178.823 28.0664 179.217V179.554C28.0664 179.928 28.1299 180.249 28.2568 180.516C28.3838 180.779 28.5645 180.983 28.7988 181.126C29.0332 181.266 29.3099 181.336 29.6289 181.336C29.8665 181.336 30.0732 181.303 30.249 181.238C30.4248 181.173 30.5697 181.09 30.6836 180.989C30.7975 180.888 30.8773 180.786 30.9229 180.682L30.9424 180.638H31.792L31.7822 180.677C31.7367 180.856 31.6553 181.03 31.5381 181.199C31.4242 181.365 31.276 181.517 31.0938 181.653C30.9115 181.787 30.695 181.894 30.4443 181.976C30.1969 182.054 29.9186 182.093 29.6094 182.093ZM33.1738 182V176.736H34.0234V177.518H34.1016C34.2025 177.241 34.3734 177.026 34.6143 176.873C34.8551 176.72 35.153 176.644 35.5078 176.644C35.5892 176.644 35.6689 176.648 35.7471 176.658C35.8285 176.665 35.8903 176.671 35.9326 176.678V177.503C35.8447 177.487 35.7585 177.475 35.6738 177.469C35.5924 177.459 35.5046 177.454 35.4102 177.454C35.14 177.454 34.9007 177.508 34.6924 177.615C34.484 177.723 34.3197 177.872 34.1992 178.064C34.082 178.257 34.0234 178.481 34.0234 178.738V182H33.1738Z" fill="#3D454D"/>
<path d="M68 168C68 165.791 69.7909 164 72 164H446C448.209 164 450 165.791 450 168V176C450 178.209 448.209 180 446 180H72C69.7909 180 68 178.209 68 176V168Z" fill="#015DB1"/>
<path d="M454 172C454 167.582 457.582 164 462 164H473C477.418 164 481 167.582 481 172V172C481 176.418 477.418 180 473 180H462C457.582 180 454 176.418 454 172V172Z" fill="#F2F6FD"/>
<path d="M460.539 169.227C460.823 169.227 461.095 169.28 461.355 169.387C461.618 169.491 461.854 169.658 462.062 169.887C462.271 170.113 462.435 170.409 462.555 170.773C462.674 171.138 462.734 171.579 462.734 172.098V172.105C462.734 172.741 462.646 173.285 462.469 173.738C462.292 174.189 462.036 174.535 461.703 174.777C461.372 175.017 460.974 175.137 460.508 175.137C460.174 175.137 459.874 175.076 459.605 174.953C459.34 174.831 459.118 174.661 458.941 174.445C458.764 174.229 458.645 173.98 458.582 173.699L458.57 173.652H459.441L459.457 173.691C459.509 173.835 459.585 173.958 459.684 174.062C459.783 174.167 459.901 174.249 460.039 174.309C460.177 174.366 460.335 174.395 460.512 174.395C460.827 174.395 461.083 174.302 461.281 174.117C461.482 173.93 461.632 173.681 461.73 173.371C461.829 173.061 461.885 172.72 461.898 172.348C461.901 172.309 461.902 172.271 461.902 172.234C461.902 172.198 461.902 172.163 461.902 172.129L461.73 171.188C461.73 170.958 461.677 170.751 461.57 170.566C461.466 170.382 461.324 170.234 461.145 170.125C460.967 170.016 460.768 169.961 460.547 169.961C460.328 169.961 460.129 170.014 459.949 170.121C459.772 170.228 459.63 170.372 459.523 170.555C459.417 170.734 459.363 170.938 459.363 171.164V171.172C459.363 171.401 459.414 171.605 459.516 171.785C459.617 171.965 459.757 172.107 459.934 172.211C460.111 172.312 460.311 172.363 460.535 172.363C460.762 172.363 460.965 172.312 461.145 172.211C461.324 172.109 461.466 171.971 461.57 171.797C461.677 171.62 461.73 171.418 461.73 171.191V171.188H461.961V172.215H461.824C461.757 172.366 461.655 172.507 461.52 172.637C461.384 172.767 461.217 172.872 461.02 172.953C460.824 173.031 460.599 173.07 460.344 173.07C459.987 173.07 459.669 172.99 459.391 172.828C459.112 172.664 458.893 172.441 458.734 172.16C458.576 171.876 458.496 171.555 458.496 171.195V171.188C458.496 170.81 458.583 170.474 458.758 170.18C458.935 169.883 459.177 169.65 459.484 169.48C459.794 169.311 460.146 169.227 460.539 169.227ZM465.832 175.137C465.397 175.137 465.025 175.017 464.715 174.777C464.405 174.538 464.167 174.198 464 173.758C463.833 173.315 463.75 172.79 463.75 172.184V172.176C463.75 171.569 463.833 171.046 464 170.605C464.167 170.165 464.405 169.826 464.715 169.586C465.025 169.346 465.397 169.227 465.832 169.227C466.267 169.227 466.639 169.346 466.949 169.586C467.259 169.826 467.497 170.165 467.664 170.605C467.833 171.046 467.918 171.569 467.918 172.176V172.184C467.918 172.79 467.833 173.315 467.664 173.758C467.497 174.198 467.259 174.538 466.949 174.777C466.639 175.017 466.267 175.137 465.832 175.137ZM465.832 174.406C466.085 174.406 466.299 174.316 466.477 174.137C466.656 173.957 466.793 173.702 466.887 173.371C466.983 173.038 467.031 172.642 467.031 172.184V172.176C467.031 171.717 466.983 171.323 466.887 170.992C466.793 170.661 466.656 170.408 466.477 170.23C466.299 170.051 466.085 169.961 465.832 169.961C465.582 169.961 465.367 170.051 465.188 170.23C465.01 170.408 464.874 170.661 464.777 170.992C464.684 171.323 464.637 171.717 464.637 172.176V172.184C464.637 172.642 464.684 173.038 464.777 173.371C464.874 173.702 465.01 173.957 465.188 174.137C465.367 174.316 465.582 174.406 465.832 174.406ZM470.172 172.375C469.919 172.375 469.702 172.312 469.52 172.188C469.34 172.06 469.201 171.882 469.102 171.652C469.003 171.421 468.953 171.147 468.953 170.832V170.828C468.953 170.508 469.003 170.233 469.102 170.004C469.201 169.775 469.34 169.598 469.52 169.473C469.702 169.348 469.919 169.285 470.172 169.285C470.424 169.285 470.642 169.348 470.824 169.473C471.009 169.598 471.15 169.775 471.246 170.004C471.345 170.233 471.395 170.508 471.395 170.828V170.832C471.395 171.147 471.345 171.421 471.246 171.652C471.15 171.882 471.009 172.06 470.824 172.188C470.642 172.312 470.424 172.375 470.172 172.375ZM470.172 171.852C470.357 171.852 470.5 171.762 470.602 171.582C470.706 171.402 470.758 171.152 470.758 170.832V170.828C470.758 170.505 470.706 170.255 470.602 170.078C470.5 169.898 470.357 169.809 470.172 169.809C469.99 169.809 469.848 169.898 469.746 170.078C469.645 170.255 469.594 170.505 469.594 170.828V170.832C469.594 171.152 469.645 171.402 469.746 171.582C469.848 171.762 469.99 171.852 470.172 171.852ZM470.758 175H470.027L473.848 169.363H474.578L470.758 175ZM474.426 175.078C474.173 175.078 473.956 175.016 473.773 174.891C473.591 174.763 473.451 174.585 473.352 174.355C473.255 174.124 473.207 173.849 473.207 173.531V173.527C473.207 173.21 473.255 172.936 473.352 172.707C473.451 172.478 473.591 172.301 473.773 172.176C473.956 172.051 474.173 171.988 474.426 171.988C474.678 171.988 474.896 172.051 475.078 172.176C475.26 172.301 475.4 172.478 475.496 172.707C475.595 172.936 475.645 173.21 475.645 173.527V173.531C475.645 173.849 475.595 174.124 475.496 174.355C475.4 174.585 475.26 174.763 475.078 174.891C474.896 175.016 474.678 175.078 474.426 175.078ZM474.426 174.555C474.611 174.555 474.754 174.465 474.855 174.285C474.957 174.105 475.008 173.854 475.008 173.531V173.527C475.008 173.207 474.957 172.958 474.855 172.781C474.754 172.602 474.611 172.512 474.426 172.512C474.241 172.512 474.098 172.602 473.996 172.781C473.895 172.958 473.844 173.207 473.844 173.527V173.531C473.844 173.854 473.895 174.105 473.996 174.285C474.098 174.465 474.241 174.555 474.426 174.555Z" fill="#015DB1"/>
</g>
<defs>
<clipPath id="clip0_4896_9967">
<rect width="537" height="184" fill="white"/>
</clipPath>
</defs>
</svg>
